<svg xmlns="http://www.w3.org/2000/svg" width="2122" height="586">
  <path fill="#5D5D5D" fill-rule="evenodd" d="M565 1l4-1 3 1-4 2c-2 0-3-1-3-2m14 0l4-1 3 1-4 2c-2 0-3-1-3-2m14 0l4-1 3 1-4 2c-2 0-3-1-3-2m14 0l4-1 3 1-4 2c-2 0-3-1-3-2m14 0l4-1 3 1-4 2c-2 0-3-1-3-2m14 0l4-1 3 1-4 2c-2 0-3-1-3-2m14 0l4-1 3 1-4 2c-2 0-3-1-3-2m84 0l4-1 3 1-4 2c-2 0-3-1-3-2m14 0l4-1 3 1-4 2c-2 0-3-1-3-2m15 0l4-1 3 1-4 2c-2 0-3-1-3-2m14 0l4-1 3 1-4 2c-2 0-3-1-3-2m14 0l4-1 3 1-4 2c-2 0-3-1-3-2m448 0l3-1 4 1c0 1-1 2-3 2l-4-2m14 0l3-1 4 1c0 1-1 2-3 2l-4-2M520 5l4-1 3 1-4 2c-2 0-3-1-3-2m14 0l4-1 3 1-4 2c-2 0-3-1-3-2m14 0l4-1 3 1-4 2c-2 0-3-1-3-2m14 0l4-1 3 1-4 2c-2 0-3-1-3-2m15 0l4-1 3 1-4 2c-2 0-3-1-3-2m14 0l4-1 3 1-4 2c-2 0-3-1-3-2m14 0l4-1 3 1-4 2c-2 0-3-1-3-2m14 0l4-1 3 1-4 2c-2 0-3-1-3-2m14 0l4-1 3 1-4 2c-2 0-3-1-3-2m28 0l4-1 3 1-4 2c-2 0-3-1-3-2m14 0l4-1 3 1-4 2c-2 0-3-1-3-2m14 0l4-1 3 1-4 2c-2 0-3-1-3-2m14 0l4-1 3 1-4 2c-2 0-3-1-3-2m15 0l4-1 3 1-4 2c-2 0-3-1-3-2m14 0l4-1 3 1-4 2c-2 0-3-1-3-2m14 0l4-1 3 1-4 2c-2 0-3-1-3-2m14 0l4-1 3 1-4 2c-2 0-3-1-3-2m14 0l4-1 3 1-4 2c-2 0-3-1-3-2m15 0l4-1 3 1-4 2c-2 0-3-1-3-2m14 0l4-1 3 1-4 2c-2 0-3-1-3-2m28 0l4-1 3 1-4 2c-2 0-3-1-3-2m254 0l3-1 4 1c0 1-1 2-3 2l-4-2m28 0l3-1 4 1c0 1-1 2-3 2l-4-2m113 0l3-1 4 1c0 1-1 2-3 2l-4-2m14 0l3-1 4 1c0 1-1 2-3 2l-4-2m14 0l3-1 4 1c0 1-1 2-3 2l-4-2m-808 5l4-1 3 1-4 2-3-2m28 0l4-1 3 1-4 2c-2 0-3-1-3-2m15 0l4-1 3 1-4 2c-2 0-3-1-3-2m14 0l4-1 3 1-4 2c-2 0-3-1-3-2m28 0l4-1 3 1-4 2c-2 0-3-1-3-2m14 0l4-1 3 1-4 2c-2 0-3-1-3-2m14 0l4-1 3 1-4 2c-2 0-3-1-3-2m15 0l4-1 3 1-4 2c-2 0-3-1-3-2m14 0l4-1 3 1-4 2c-2 0-3-1-3-2m14 0l4-1 3 1-4 2c-2 0-3-1-3-2m43 0l4-1 3 1-4 2c-2 0-3-1-3-2m15 0l4-1 3 1-4 2c-2 0-3-1-3-2m14 0l4-1 3 1-4 2c-2 0-3-1-3-2m14 0l4-1 3 1-4 2c-2 0-3-1-3-2m14 0l4-1 3 1-4 2c-2 0-3-1-3-2m14 0l4-1 3 1-4 2c-2 0-3-1-3-2m14 0l4-1 3 1-4 2c-2 0-3-1-3-2m15 0l4-1 3 1-4 2c-2 0-3-1-3-2m14 0l4-1 3 1-4 2c-2 0-3-1-3-2m14 0l4-1 3 1-4 2c-2 0-3-1-3-2m15 0l4-1 3 1-4 2c-2 0-3-1-3-2m14 0l4-1 3 1-4 2c-2 0-3-1-3-2m14 0l4-1 3 1-4 2c-2 0-3-1-3-2m128 0l3-1 4 1c0 1-1 2-3 2l-4-2m15 0l3-1 4 1c0 1-1 2-3 2l-4-2m14 0l3-1 4 1c0 1-1 2-3 2l-4-2m313 0l3-1 4 1c0 1-1 2-3 2l-4-2m171 0l3-1 5 1c0 1-1 2-3 2l-5-2M384 16l5-1 3 1-5 2c-2 0-3-1-3-2m14 0l5-1 3 1-5 2c-2 0-3-1-3-2m15 0l5-1 3 1-5 2c-2 0-3-1-3-2m57 0l4-1 3 1-4 2c-2 0-3-1-3-2m72 0l4-1 3 1-4 2c-2 0-3-1-3-2m15 0l4-1 3 1-4 2c-2 0-3-1-3-2m14 0l4-1 3 1-4 2c-2 0-3-1-3-2m14 0l4-1 3 1-4 2c-2 0-3-1-3-2m29 0l4-1 3 1-4 2c-2 0-3-1-3-2m14 0l4-1 3 1-4 2c-2 0-3-1-3-2m15 0l4-1 3 1-4 2c-2 0-3-1-3-2m14 0l4-1 3 1-4 2c-2 0-3-1-3-2m15 0l4-1 3 1-4 2c-2 0-3-1-3-2m14 0l4-1 3 1-4 2c-2 0-3-1-3-2m15 0l4-1 3 1-4 2c-2 0-3-1-3-2m14 0l4-1 3 1-4 2c-2 0-3-1-3-2m14 0l4-1 3 1-4 2c-2 0-3-1-3-2m14 0l4-1 3 1-4 2c-2 0-3-1-3-2m14 0l4-1 3 1-4 2c-2 0-3-1-3-2m15 0l4-1 3 1-4 2c-2 0-3-1-3-2m14 0l4-1 3 1-4 2c-2 0-3-1-3-2m15 0l4-1 3 1-4 2c-2 0-3-1-3-2m115 0l3-1 4 1-3 2-4-2m14 0l3-1 4 1-3 2-4-2m15 0l3-1 4 1c0 1-1 2-3 2l-4-2m301 0l3-1 4 1c0 1-1 2-3 2l-4-2m14 0l3-1 4 1c0 1-1 2-3 2l-4-2m14 0l3-1 4 1c0 1-1 2-3 2l-4-2m15 0l3-1 4 1c0 1-1 2-3 2l-4-2m14 0l3-1 4 1c0 1-1 2-3 2l-4-2m15 0l3-1 4 1c0 1-1 2-3 2l-4-2m14 0l3-1 4 1c0 1-1 2-3 2l-4-2m15 0l3-1 4 1c0 1-1 2-3 2l-4-2m14 0l3-1 4 1c0 1-1 2-3 2l-4-2m14 0l3-1 5 1c0 1-1 2-3 2l-5-2m57 0l3-1 5 1c0 1-1 2-3 2l-5-2m14 0l3-1 5 1c0 1-1 2-3 2l-5-2m15 0l3-1 5 1c0 1-1 2-3 2l-5-2m14 0l3-1 5 1c0 1-1 2-3 2l-5-2m15 0l3-1 5 1c0 1-1 2-3 2l-5-2m14 0l3-1 5 1c0 1-1 2-3 2l-5-2M408 20l5-1 3 1-5 2c-2 0-3-1-3-2m15 0l5-1 3 1-5 2c-2 0-3-1-3-2m14 0l5-1 3 1-5 2c-2 0-3-1-3-2m15 0l5-1 3 1-5 2c-2 0-3-1-3-2m29 0l5-1 3 1-5 2c-2 0-3-1-3-2m29 0l5-1 3 1-5 2c-2 0-3-1-3-2m58 0l4-1 3 1-4 2c-2 0-3-1-3-2m44 0l4-1 3 1-4 2c-2 0-3-1-3-2m14 0l4-1 3 1-4 2c-2 0-3-1-3-2m14 0l4-1 3 1-4 2c-2 0-3-1-3-2m15 0l4-1 3 1-4 2c-2 0-3-1-3-2m14 0l4-1 3 1-4 2c-2 0-3-1-3-2m15 0l4-1 3 1-4 2c-2 0-3-1-3-2m15 0l4-1 3 1-4 2c-2 0-3-1-3-2m14 0l4-1 3 1-4 2c-2 0-3-1-3-2m15 0l4-1 3 1-4 2c-2 0-3-1-3-2m14 0l4-1 3 1-4 2c-2 0-3-1-3-2m14 0l4-1 3 1-4 2c-2 0-3-1-3-2m15 0l4-1 3 1-4 2c-2 0-3-1-3-2m14 0l4-1 3 1-4 2c-2 0-3-1-3-2m15 0l4-1 3 1-4 2c-2 0-3-1-3-2m14 0l4-1 3 1-4 2c-2 0-3-1-3-2m116 0l3-1 4 1-3 2-4-2m15 0l3-1 4 1c0 1-1 2-3 2l-4-2m173 0l3-1 4 1c0 1-1 2-3 2l-4-2m15 0l3-1 4 1c0 1-1 2-3 2l-4-2m86 0l3-1 4 1c0 1-1 2-3 2l-4-2m15 0l3-1 4 1c0 1-1 2-3 2l-4-2m14 0l3-1 4 1c0 1-1 2-3 2l-4-2m15 0l3-1 4 1c0 1-1 2-3 2l-4-2m15 0l3-1 4 1c0 1-1 2-3 2l-4-2m14 0l3-1 4 1c0 1-1 2-3 2l-4-2m14 0l3-1 5 1c0 1-1 2-3 2l-5-2m15 0l3-1 5 1c0 1-1 2-3 2l-5-2m14 0l3-1 5 1c0 1-1 2-3 2l-5-2m14 0l3-1 5 1c0 1-1 2-3 2l-5-2m15 0l3-1 5 1c0 1-1 2-3 2l-5-2m14 0l3-1 5 1c0 1-1 2-3 2l-5-2m87 0l3-1 5 1c0 1-1 2-3 2l-5-2M360 25l5-1 3 1-5 2c-2 0-3-1-3-2m15 0l5-1 3 1-5 2c-2 0-3-1-3-2m15 0l5-1 3 1-5 2c-2 0-3-1-3-2m29 0l5-1 3 1-5 2c-2 0-3-1-3-2m88 0l5-1 3 1-5 2c-2 0-3-1-3-2m14 0l5-1 3 1-5 2c-2 0-3-1-3-2m15 0l5-1 3 1-5 2c-2 0-3-1-3-2m15 0l5-1 3 1-5 2c-2 0-3-1-3-2m14 0l5-1 3 1-5 2c-2 0-3-1-3-2m88 0l4-1 3 1-4 2c-2 0-3-1-3-2m14 0l4-1 3 1-4 2c-2 0-3-1-3-2m15 0l4-1 3 1-4 2c-2 0-3-1-3-2m15 0l4-1 3 1-4 2c-2 0-3-1-3-2m14 0l4-1 3 1-4 2c-2 0-3-1-3-2m15 0l4-1 3 1-4 2c-2 0-3-1-3-2m15 0l4-1 3 1-4 2c-2 0-3-1-3-2m15 0l4-1 3 1-4 2c-2 0-3-1-3-2m13 0l4-1 3 1-4 2c-2 0-3-1-3-2m15 0l4-1 3 1-4 2c-2 0-3-1-3-2m15 0l4-1 3 1-4 2c-2 0-3-1-3-2m306 0l3-1 4 1c0 1-1 2-3 2l-4-2m15 0l3-1 4 1c0 1-1 2-3 2l-4-2m87 0l3-1 4 1c0 1-1 2-3 2l-4-2m15 0l3-1 4 1c0 1-1 2-3 2l-4-2m14 0l3-1 5 1c0 1-1 2-3 2l-5-2m15 0l3-1 5 1c0 1-1 2-3 2l-5-2m15 0l3-1 5 1c0 1-1 2-3 2l-5-2m14 0l3-1 5 1c0 1-1 2-3 2l-5-2m14 0l3-1 5 1c0 1-1 2-3 2l-5-2m15 0l3-1 5 1c0 1-1 2-3 2l-5-2m15 0l3-1 5 1c0 1-1 2-3 2l-5-2m15 0l3-1 5 1c0 1-1 2-3 2l-5-2m14 0l3-1 5 1c0 1-1 2-3 2l-5-2m15 0l3-1 5 1c0 1-1 2-3 2l-5-2m14 0l3-1 5 1c0 1-1 2-3 2l-5-2m15 0l3-1 5 1c0 1-1 2-3 2l-5-2m14 0l3-1 5 1c0 1-1 2-3 2l-5-2m59 0l3-1 5 1c0 1-1 2-3 2l-5-2m14 0l3-1 5 1c0 1-1 2-3 2l-5-2m15 0l3-1 5 1c0 1-1 2-3 2l-5-2M341 30l5-1 3 1-5 2c-2 0-3-1-3-2m15 0l5-1 3 1-5 2c-2 0-3-1-3-2m15 0l5-1 3 1-5 2c-2 0-3-1-3-2m15 0l5-1 3 1-5 2c-2 0-3-1-3-2m15 0l5-1 3 1-5 2c-2 0-3-1-3-2m28 0l5-1 3 1-5 2c-2 0-3-1-3-2m15 0l5-1 3 1-5 2c-2 0-3-1-3-2m15 0l5-1 3 1-5 2c-2 0-3-1-3-2m15 0l5-1 3 1-5 2c-2 0-3-1-3-2m15 0l5-1 3 1-5 2c-2 0-3-1-3-2m14 0l5-1 3 1-5 2c-2 0-3-1-3-2m15 0l5-1 3 1-5 2c-2 0-3-1-3-2m15 0l5-1 3 1-5 2c-2 0-3-1-3-2m14 0l5-1 3 1-5 2c-2 0-3-1-3-2m15 0l5-1 3 1-5 2c-2 0-3-1-3-2m103 0l5-1 3 1c0 1-2 2-5 2-2 0-3-1-3-2m15 0l5-1 3 1c0 1-2 2-5 2-2 0-3-1-3-2m15 0l4-1 3 1-4 2c-2 0-3-1-3-2m15 0l4-1 3 1-4 2c-2 0-3-1-3-2m14 0l4-1 3 1-4 2c-2 0-3-1-3-2m15 0l4-1 3 1-4 2c-2 0-3-1-3-2m15 0l4-1 3 1-4 2c-2 0-3-1-3-2m15 0l4-1 3 1-4 2c-2 0-3-1-3-2m14 0l4-1 3 1-4 2c-2 0-3-1-3-2m15 0l4-1 3 1-4 2c-2 0-3-1-3-2m294 0l3-1 4 1c0 1-1 2-3 2l-4-2m58 0l3-1 5 1c0 1-1 2-3 2-3 0-5-1-5-2m15 0l3-1 5 1c0 1-1 2-3 2l-5-2m15 0l3-1 5 1c0 1-1 2-3 2-3 0-5-1-5-2m15 0l3-1 5 1c0 1-1 2-3 2-3 0-5-1-5-2m15 0l3-1 5 1c0 1-1 2-3 2-3 0-5-1-5-2m15 0l3-1 5 1c0 1-1 2-3 2l-5-2m14 0l3-1 5 1c0 1-1 2-3 2l-5-2m14 0l3-1 5 1c0 1-1 2-3 2l-5-2m15 0l3-1 5 1c0 1-1 2-3 2l-5-2m15 0l3-1 5 1c0 1-1 2-3 2l-5-2m15 0l3-1 5 1c0 1-1 2-3 2l-5-2m15 0l3-1 5 1c0 1-1 2-3 2l-5-2m15 0l3-1 5 1c0 1-1 2-3 2l-5-2m14 0l3-1 5 1c0 1-1 2-3 2l-5-2m15 0l3-1 5 1c0 1-1 2-3 2l-5-2m14 0l3-1 5 1c0 1-1 2-3 2l-5-2m15 0l3-1 5 1c0 1-1 2-3 2l-5-2m15 0l3-1 5 1c0 1-1 2-3 2l-5-2m44 0l3-1 5 1c0 1-1 2-3 2l-5-2m15 0l3-1 5 1c0 1-1 2-3 2l-5-2m15 0l3-1 5 1c0 1-1 2-3 2l-5-2m14 0l3-1 5 1c0 1-1 2-3 2l-5-2m15 0l3-1 5 1c0 1-1 2-3 2l-5-2m14 0l3-1 5 1c1 1-1 2-3 2l-5-2m15 0l3-1 5 1c1 1-1 2-3 2l-5-2m15 0l3-1 5 1c1 1-1 2-3 2l-5-2m15 0l3-1 5 1c1 1-1 2-3 2l-5-2m15 0l3-1 5 1c1 1-1 2-3 2l-5-2M143 37l6-2c2 0 3 1 2 2l-6 1-2-1m16 0l6-2c2 0 3 1 2 2l-6 1-2-1m15 0l6-2c2 0 3 1 2 2l-6 1c-3 0-3-1-2-1m178 0l5-2c2 0 3 1 3 2l-5 1-3-1m29 0l5-2c2 0 3 1 3 2l-5 1-3-1m15 0l5-2c2 0 3 1 3 2l-5 1-3-1m15 0l5-2c2 0 3 1 3 2l-5 1-3-1m15 0l5-2c2 0 3 1 3 2l-5 1-3-1m44 0l5-2c2 0 3 1 3 2l-5 1-3-1m15 0l5-2c2 0 3 1 3 2l-5 1-3-1m15 0l5-2c2 0 3 1 3 2l-5 1-3-1m15 0l5-2c2 0 3 1 3 2l-5 1-3-1m15 0l5-2c2 0 3 1 3 2l-5 1-3-1m14 0l5-2c2 0 3 1 3 2l-5 1-3-1m15 0l5-2c2 0 3 1 3 2l-5 1-3-1m104 0c0-1 2-2 5-2 2 0 3 1 3 2l-5 1-3-1m15 0c0-1 2-2 5-2 2 0 3 1 3 2l-5 1-3-1m15 0l4-2c3 0 4 1 4 2l-4 1-4-1m15 0l4-2 4 2-4 1-4-1m14 0l4-2 4 2-4 1-4-1m15 0l4-2c3 0 4 1 4 2l-4 1-4-1m15 0l4-2c3 0 4 1 4 2l-4 1-4-1m15 0l4-2c3 0 4 1 4 2l-4 1-4-1m15 0l4-2 4 2-4 1-4-1m14 0l4-2 4 2-4 1-4-1m298 0c0-1 1-2 4-2l4 2-4 1-4-1m59 0c0-1 1-2 3-2l5 2-3 1-5-1m15 0c0-1 1-2 3-2l5 2-3 1-5-1m15 0c0-1 1-2 3-2 3 0 5 1 5 2l-3 1-5-1m15 0c0-1 1-2 3-2 3 0 5 1 5 2l-3 1-5-1m14 0c0-1 1-2 3-2l5 2-3 1-5-1m15 0c0-1 1-2 3-2l5 2-3 1-5-1m15 0c0-1 1-2 3-2l5 2-3 1-5-1m15 0c0-1 1-2 3-2l5 2-3 1-5-1m15 0c0-1 1-2 3-2l5 2-3 1-5-1m15 0c0-1 1-2 3-2l5 2-3 1-5-1m14 0c0-1 1-2 3-2l5 2-3 1-5-1m15 0c0-1 1-2 3-2l5 2-3 1-5-1m15 0c0-1 1-2 3-2l5 2-3 1-5-1m15 0c0-1 1-2 3-2l5 2-3 1-5-1m15 0c0-1 1-2 3-2l5 2-3 1-5-1m14 0c0-1 1-2 3-2l5 2-3 1-5-1m15 0c0-1 1-2 3-2l5 2-3 1-5-1m15 0c0-1 1-2 3-2l5 2-3 1-5-1m15 0c0-1 1-2 3-2l5 2-3 1-5-1m15 0c0-1 1-2 3-2l5 2-3 1-5-1m15 0c0-1 1-2 3-2l5 2-3 1-5-1m14 0c0-1 1-2 3-2l5 2-3 1-5-1m15 0c0-1 1-2 3-2l5 2-3 1-5-1m15 0c0-1 1-2 3-2l5 2-3 1-5-1m15 0c0-1 1-2 3-2l5 2-3 1-5-1m15 0c-1-1 1-2 3-2l5 2-3 1-5-1m15 0c-1-1 1-2 3-2l5 2-3 1-5-1m14 0c-1-1 1-2 3-2l5 2-3 1-5-1m15 0c-1-1 1-2 3-2l5 2-3 1-5-1m15 0c-1-1 1-2 3-2l5 2-3 1-5-1m15 0c-1-1 0-2 3-2l5 2-3 1-5-1m15 0c-1-1 0-2 3-2l5 2-3 1-5-1m29 0c-1-1 0-2 2-2l6 2-2 1-6-1m15 0c-1-1 0-2 2-2l6 2-2 1-6-1m15 0c-1-1 0-2 2-2l6 2-2 1-6-1m15 0c-1-1 0-2 2-2l6 2-2 1-6-1M108 42l6-1 2 1-6 2c-2 0-3-1-2-2m14 0l6-1 2 1-6 2c-2 0-3-1-2-2m15 0l6-1 2 1-6 2c-2 0-3-1-2-2m15 0l6-1 2 1-6 2c-2 0-3-1-2-2m15 0l6-1 2 1-6 2c-2 0-3-1-2-2m16 0l6-1 2 1-6 2c-2 0-3-1-2-2m14 0l5-1 3 1-5 2c-3 0-4-1-3-2m15 0l5-1 3 1-5 2c-3 0-4-1-3-2m15 0l5-1 3 1-5 2c-2 0-4-1-3-2m15 0l5-1 3 1-5 2c-2 0-4-1-3-2m30 0l5-1 3 1-5 2c-2 0-4-1-3-2m15 0l5-1 3 1-5 2c-2 0-4-1-3-2m15 0l5-1 3 1-5 2c-2 0-4-1-3-2m15 0l5-1 3 1-5 2c-2 0-3-1-3-2m15 0l5-1 3 1-5 2c-2 0-3-1-3-2m14 0l5-1 3 1-5 2c-2 0-3-1-3-2m31 0l5-1 3 1-5 2c-2 0-3-1-3-2m15 0l5-1 3 1-5 2c-2 0-3-1-3-2m15 0l5-1 3 1-5 2c-2 0-3-1-3-2m14 0l5-1 3 1-5 2c-2 0-3-1-3-2m15 0l5-1 3 1-5 2c-2 0-3-1-3-2m31 0l5-1 3 1-5 2c-2 0-3-1-3-2m15 0l5-1 3 1-5 2c-2 0-3-1-3-2m14 0l5-1 3 1-5 2c-2 0-3-1-3-2m15 0l5-1 3 1-5 2c-2 0-3-1-3-2m15 0l5-1 3 1-5 2c-2 0-3-1-3-2m15 0l5-1 3 1-5 2c-2 0-3-1-3-2m16 0l5-1 3 1-5 2c-2 0-3-1-3-2m14 0l5-1 3 1-5 2c-2 0-3-1-3-2m15 0l5-1 3 1-5 2c-2 0-3-1-3-2m15 0l5-1 3 1-5 2c-2 0-3-1-3-2m60 0l5-1 3 1c0 1-2 2-5 2s-3-1-3-2m15 0l5-1 3 1c0 1-2 2-5 2-2 0-3-1-3-2m15 0l4-1 4 1-4 2c-3 0-4-1-4-2m15 0l4-1 4 1-4 2c-3 0-4-1-4-2m15 0l4-1 4 1-4 2c-3 0-4-1-4-2m15 0l4-1 4 1-4 2c-3 0-4-1-4-2m15 0l4-1 4 1-4 2c-3 0-4-1-4-2m15 0l4-1 4 1-4 2c-3 0-4-1-4-2m15 0l4-1 4 1-4 2-4-2m179 0l4-1 4 1-4 2-4-2m15 0l4-1 4 1-4 2-4-2m15 0l4-1 4 1-4 2-4-2m120 0l4-1 4 1c0 1-1 2-4 2l-4-2m45 0l3-1 5 1c0 1-1 2-3 2-3 0-5-1-5-2m15 0l3-1 5 1c0 1-1 2-3 2-3 0-5-1-5-2m14 0l3-1 5 1c0 1-1 2-3 2-3 0-5-1-5-2m15 0l3-1 5 1c0 1-1 2-3 2-3 0-5-1-5-2m16 0l3-1 5 1c0 1-1 2-3 2l-5-2m15 0l3-1 5 1c0 1-1 2-3 2l-5-2m15 0l3-1 5 1c0 1-1 2-3 2l-5-2m14 0l3-1 5 1c0 1-1 2-3 2l-5-2m15 0l3-1 5 1c0 1-1 2-3 2l-5-2m15 0l3-1 5 1c0 1-1 2-3 2l-5-2m16 0l3-1 5 1c0 1-1 2-3 2l-5-2m15 0l3-1 5 1c0 1-1 2-3 2l-5-2m14 0l3-1 5 1c0 1-1 2-3 2l-5-2m15 0l3-1 5 1c0 1-1 2-3 2l-5-2m15 0l3-1 5 1c0 1-1 2-3 2l-5-2m15 0l3-1 5 1c0 1-1 2-3 2l-5-2m16 0l3-1 5 1c0 1-1 2-3 2l-5-2m14 0l3-1 5 1c0 1-1 2-3 2l-5-2m15 0l3-1 5 1c0 1-1 2-3 2l-5-2m15 0l3-1 5 1c0 1-1 2-3 2l-5-2m15 0l3-1 5 1c0 1-1 2-3 2l-5-2m15 0l3-1 5 1c0 1-1 2-3 2l-5-2m15 0l3-1 5 1c0 1-1 2-3 2l-5-2m15 0l3-1 5 1c0 1-1 2-3 2l-5-2m15 0l3-1 5 1c0 1-1 2-3 2l-5-2m15 0l3-1 5 1c1 1-1 2-3 2l-5-2m15 0l3-1 5 1c1 1-1 2-3 2l-5-2m15 0l3-1 5 1c1 1-1 2-3 2l-5-2m15 0l3-1 5 1c1 1-1 2-3 2l-5-2m15 0l3-1 5 1c1 1 0 2-3 2l-5-2m15 0l3-1 5 1c1 1 0 2-3 2l-5-2m15 0l3-1 5 1c1 1 0 2-3 2l-5-2m15 0l2-1 6 1c1 1 0 2-2 2l-6-2m14 0l2-1 6 1c1 1 0 2-2 2l-6-2m15 0l2-1 6 1c1 1 0 2-2 2l-6-2m16 0l2-1 6 1c1 1 0 2-2 2l-6-2m15 0l2-1 6 1c1 1 0 2-2 2l-6-2m15 0l2-1 6 1c1 1 0 2-2 2l-6-2M70 47l6-1 3 1-6 2c-3 0-4-1-3-2m15 0l6-1 3 1-6 2c-3 0-4-1-3-2m15 0l6-1 3 1-6 2c-2 0-4-1-3-2m15 0l6-1 2 1-6 2c-2 0-3-1-2-2m16 0l6-1 2 1-6 2c-2 0-3-1-2-2m15 0l6-1 2 1-6 2c-2 0-3-1-2-2m15 0l6-1 2 1-6 2c-2 0-3-1-2-2m15 0l6-1 2 1-6 2c-2 0-3-1-2-2m15 0l5-1 3 1-5 2c-3 0-4-1-3-2m15 0l5-1 3 1-5 2c-3 0-4-1-3-2m15 0l5-1 3 1-5 2c-2 0-4-1-3-2m16 0l5-1 3 1-5 2c-2 0-4-1-3-2m14 0l5-1 3 1-5 2c-2 0-4-1-3-2m15 0l5-1 3 1-5 2c-2 0-4-1-3-2m16 0l5-1 3 1-5 2c-2 0-4-1-3-2m15 0l5-1 3 1-5 2c-2 0-4-1-3-2m15 0l5-1 3 1-5 2c-2 0-3-1-3-2m15 0l5-1 3 1-5 2c-2 0-3-1-3-2m15 0l5-1 3 1-5 2c-2 0-3-1-3-2m15 0l5-1 3 1-5 2c-2 0-3-1-3-2m45 0l5-1 3 1-5 2c-2 0-3-1-3-2m15 0l5-1 3 1-5 2c-2 0-3-1-3-2m45 0l5-1 3 1-5 2c-2 0-3-1-3-2m16 0l5-1 3 1-5 2c-2 0-3-1-3-2m15 0l5-1 3 1-5 2c-2 0-3-1-3-2m15 0l5-1 3 1-5 2c-2 0-3-1-3-2m16 0l5-1 3 1-5 2c-2 0-3-1-3-2m44 0l5-1 3 1-5 2c-2 0-3-1-3-2m16 0l5-1 3 1-5 2c-2 0-3-1-3-2m75 0l5-1 3 1c0 1-2 2-5 2-2 0-3-1-3-2m15 0l5-1 3 1c0 1-2 2-5 2-2 0-3-1-3-2m15 0l4-1 4 1-4 2c-3 0-4-1-4-2m15 0l4-1 4 1-4 2c-3 0-4-1-4-2m16 0l4-1 4 1-4 2c-3 0-4-1-4-2m15 0l4-1 4 1-4 2c-3 0-4-1-4-2m14 0l4-1 4 1-4 2c-3 0-4-1-4-2m15 0l4-1 4 1-4 2c-3 0-4-1-4-2m16 0l4-1 4 1-4 2-4-2m166 0l4-1 4 1-4 2-4-2m14 0l4-1 4 1-4 2-4-2m16 0l4-1 4 1-4 2-4-2m15 0l4-1 4 1-4 2-4-2m15 0l4-1 4 1-4 2-4-2m15 0l4-1 4 1-4 2-4-2m30 0l4-1 4 1c0 1-1 2-4 2l-4-2m16 0l4-1 4 1c0 1-1 2-4 2l-4-2m15 0l4-1 4 1c0 1-1 2-4 2l-4-2m14 0l4-1 4 1c0 1-1 2-4 2l-4-2m16 0l4-1 4 1c0 1-1 2-4 2l-4-2m15 0l4-1 4 1c0 1-1 2-4 2l-4-2m15 0l3-1 5 1c0 1-1 2-3 2-3 0-5-1-5-2m15 0l3-1 5 1c0 1-1 2-3 2-3 0-5-1-5-2m15 0l3-1 5 1c0 1-1 2-3 2-3 0-5-1-5-2m15 0l3-1 5 1c0 1-1 2-3 2-3 0-5-1-5-2m15 0l3-1 5 1c0 1-1 2-3 2-3 0-5-1-5-2m16 0l3-1 5 1c0 1-1 2-3 2l-5-2m14 0l3-1 5 1c0 1-1 2-3 2l-5-2m15 0l3-1 5 1c0 1-1 2-3 2l-5-2m16 0l3-1 5 1c0 1-1 2-3 2l-5-2m15 0l3-1 5 1c0 1-1 2-3 2l-5-2m15 0l3-1 5 1c0 1-1 2-3 2l-5-2m14 0l3-1 5 1c0 1-1 2-3 2l-5-2m16 0l3-1 5 1c0 1-1 2-3 2l-5-2m15 0l3-1 5 1c0 1-1 2-3 2l-5-2m15 0l3-1 5 1c0 1-1 2-3 2l-5-2m15 0l3-1 5 1c0 1-1 2-3 2l-5-2m15 0l3-1 5 1c0 1-1 2-3 2l-5-2m15 0l3-1 5 1c0 1-1 2-3 2l-5-2m16 0l3-1 5 1c0 1-1 2-3 2l-5-2m15 0l3-1 5 1c0 1-1 2-3 2l-5-2m14 0l3-1 5 1c0 1-1 2-3 2l-5-2m16 0l3-1 5 1c0 1-1 2-3 2l-5-2m15 0l3-1 5 1c0 1-1 2-3 2l-5-2m15 0l3-1 5 1c0 1-1 2-3 2l-5-2m15 0l3-1 5 1c0 1-1 2-3 2l-5-2m15 0l3-1 5 1c0 1-1 2-3 2l-5-2m15 0l3-1 5 1c1 1-1 2-3 2l-5-2m15 0l3-1 5 1c1 1-1 2-3 2l-5-2m16 0l3-1 5 1c1 1-1 2-3 2l-5-2m15 0l3-1 5 1c1 1-1 2-3 2l-5-2m14 0l3-1 5 1c1 1 0 2-3 2l-5-2m16 0l3-1 5 1c1 1 0 2-3 2l-5-2m15 0l3-1 5 1c1 1 0 2-3 2l-5-2m15 0l2-1 6 1c1 1 0 2-2 2l-6-2m15 0l2-1 6 1c1 1 0 2-2 2l-6-2m15 0l2-1 6 1c1 1 0 2-2 2l-6-2m15 0l2-1 6 1c1 1 0 2-2 2l-6-2m15 0l2-1 6 1c1 1 0 2-2 2l-6-2m15 0l3-1 6 1c1 1 0 2-3 2l-6-2m15 0l3-1 6 1c1 1 0 2-3 2l-6-2m15 0l3-1 6 1c1 1 0 2-3 2l-6-2M94 52l6-1 3 1-6 2c-3 0-4-1-3-2m14 0l6-1 3 1-6 2c-3 0-4-1-3-2m15 0l6-1 3 1-6 2c-3 0-4-1-3-2m16 0l6-1 3 1-6 2c-3 0-4-1-3-2m16 0l6-1 2 1-6 2c-2 0-3-1-2-2m14 0l6-1 2 1-6 2c-2 0-3-1-2-2m16 0l6-1 2 1-6 2c-2 0-3-1-2-2m15 0l5-1 3 1-5 2c-3 0-4-1-3-2m16 0l5-1 3 1-5 2c-3 0-4-1-3-2m15 0l5-1 3 1-5 2c-2 0-4-1-3-2m15 0l5-1 3 1-5 2c-2 0-4-1-3-2m15 0l5-1 3 1-5 2c-2 0-4-1-3-2m15 0l5-1 3 1-5 2c-2 0-4-1-3-2m16 0l5-1 3 1-5 2c-2 0-4-1-3-2m14 0l5-1 3 1-5 2c-2 0-3-1-3-2m16 0l5-1 3 1-5 2c-2 0-3-1-3-2m15 0l5-1 3 1-5 2c-2 0-3-1-3-2m16 0l5-1 3 1-5 2c-2 0-3-1-3-2m14 0l5-1 3 1-5 2c-2 0-3-1-3-2m16 0l5-1 3 1-5 2c-2 0-3-1-3-2m15 0l5-1 3 1-5 2c-2 0-3-1-3-2m16 0l5-1 3 1-5 2c-2 0-3-1-3-2m14 0l5-1 3 1-5 2c-2 0-3-1-3-2m15 0l5-1 3 1-5 2c-2 0-3-1-3-2m16 0l5-1 3 1-5 2c-2 0-3-1-3-2m15 0l5-1 3 1-5 2c-2 0-3-1-3-2m15 0l5-1 3 1-5 2c-2 0-3-1-3-2m15 0l5-1 3 1-5 2c-2 0-3-1-3-2m16 0l5-1 3 1-5 2c-2 0-3-1-3-2m31 0l5-1 3 1-5 2c-2 0-3-1-3-2m14 0l5-1 3 1-5 2c-2 0-3-1-3-2m16 0l5-1 3 1-5 2c-2 0-3-1-3-2m15 0l5-1 3 1-5 2c-2 0-3-1-3-2m15 0l5-1 3 1c0 1-2 2-5 2-2 0-3-1-3-2m46 0l5-1 3 1c0 1-2 2-5 2-2 0-3-1-3-2m15 0l5-1 3 1c0 1-2 2-5 2-2 0-3-1-3-2m15 0l4-1 4 1-4 2c-3 0-4-1-4-2m15 0l4-1 4 1-4 2c-3 0-4-1-4-2m16 0l4-1 4 1-4 2-4-2m15 0l4-1 4 1-4 2-4-2m15 0l4-1 4 1-4 2c-3 0-4-1-4-2m183 0l4-1 4 1-4 2-4-2m15 0l4-1 4 1-4 2-4-2m15 0l4-1 4 1-4 2-4-2m15 0l4-1 4 1-4 2-4-2m16 0l4-1 4 1-4 2-4-2m15 0l4-1 4 1-4 2-4-2m15 0l4-1 4 1-4 2-4-2m15 0l4-1 4 1-4 2-4-2m31 0l4-1 4 1c0 1-1 2-4 2l-4-2m15 0l4-1 4 1c0 1-1 2-4 2l-4-2m15 0l4-1 4 1c0 1-1 2-4 2l-4-2m16 0l4-1 4 1c0 1-1 2-4 2l-4-2m15 0l4-1 4 1c0 1-1 2-4 2l-4-2m15 0l3-1 5 1c0 1-1 2-3 2-3 0-5-1-5-2m15 0l3-1 5 1c0 1-1 2-3 2-3 0-5-1-5-2m15 0l3-1 5 1c0 1-1 2-3 2-3 0-5-1-5-2m16 0l3-1 5 1c0 1-1 2-3 2-3 0-5-1-5-2m15 0l3-1 5 1c0 1-1 2-3 2-3 0-5-1-5-2m15 0l3-1 5 1c0 1-1 2-3 2l-5-2m15 0l3-1 5 1c0 1-1 2-3 2l-5-2m16 0l3-1 5 1c0 1-1 2-3 2l-5-2m15 0l3-1 5 1c0 1-1 2-3 2l-5-2m15 0l3-1 5 1c0 1-1 2-3 2l-5-2m15 0l3-1 5 1c0 1-1 2-3 2l-5-2m15 0l3-1 5 1c0 1-1 2-3 2l-5-2m16 0l3-1 5 1c0 1-1 2-3 2l-5-2m14 0l3-1 5 1c0 1-1 2-3 2l-5-2m16 0l3-1 5 1c0 1-1 2-3 2l-5-2m15 0l3-1 5 1c0 1-1 2-3 2l-5-2m16 0l3-1 5 1c0 1-1 2-3 2l-5-2m15 0l3-1 5 1c0 1-1 2-3 2l-5-2m15 0l3-1 5 1c0 1-1 2-3 2l-5-2m15 0l3-1 5 1c0 1-1 2-3 2l-5-2m16 0l3-1 5 1c0 1-1 2-3 2l-5-2m15 0l3-1 5 1c0 1-1 2-3 2l-5-2m14 0l3-1 5 1c0 1-1 2-3 2l-5-2m16 0l3-1 5 1c0 1-1 2-3 2l-5-2m15 0l3-1 5 1c0 1-1 2-3 2l-5-2m16 0l3-1 5 1c1 1-1 2-3 2l-5-2m14 0l3-1 5 1c1 1-1 2-3 2l-5-2m16 0l3-1 5 1c1 1-1 2-3 2l-5-2m15 0l3-1 5 1c1 1-1 2-3 2l-5-2m16 0l3-1 5 1c1 1-1 2-3 2l-5-2m14 0l3-1 5 1c1 1 0 2-3 2l-5-2m16 0l3-1 5 1c1 1 0 2-3 2l-5-2m15 0l2-1 6 1c1 1 0 2-2 2l-6-2m15 0l2-1 6 1c1 1 0 2-2 2l-6-2m15 0l2-1 6 1c1 1 0 2-2 2l-6-2m15 0l3-1 6 1c1 1 0 2-3 2l-6-2m15 0l3-1 6 1c1 1 0 2-3 2l-6-2m16 0l3-1 6 1c1 1 0 2-3 2l-6-2m15 0l3-1 6 1c1 1 0 2-3 2l-6-2m15 0l3-1 6 1c1 1 0 2-3 2l-6-2m15 0l3-1 6 1c1 1 0 2-3 2l-6-2m16 0l3-1 6 1c1 1 0 2-3 2l-6-2m15 0l3-1 6 1c1 1 0 2-3 2l-6-2M55 58l6-1 3 1-6 2c-3 0-4-1-3-2m16 0l6-1 3 1-6 2c-3 0-4-1-3-2m15 0l6-1 3 1-6 2c-3 0-4-1-3-2m15 0l6-1 3 1-6 2c-2 0-4-1-3-2m16 0l6-1 3 1-6 2c-3 0-4-1-3-2m15 0l6-1 3 1-6 2c-2 0-4-1-3-2m16 0l6-1 3 1-6 2c-3 0-4-1-3-2m14 0l6-1 3 1-6 2c-3 0-4-1-3-2m16 0l6-1 3 1-6 2c-2 0-4-1-3-2m16 0l5-1 3 1-5 2c-3 0-4-1-3-2m16 0l5-1 3 1-5 2c-3 0-4-1-3-2m14 0l5-1 3 1-5 2c-3 0-4-1-3-2m16 0l5-1 3 1-5 2c-2 0-4-1-3-2m16 0l5-1 3 1-5 2c-2 0-4-1-3-2m15 0l5-1 3 1-5 2c-2 0-4-1-3-2m15 0l5-1 3 1-5 2c-2 0-4-1-3-2m15 0l5-1 3 1-5 2c-2 0-3-1-3-2m16 0l5-1 3 1-5 2c-2 0-3-1-3-2m16 0l5-1 3 1-5 2c-2 0-3-1-3-2m14 0l5-1 3 1-5 2c-2 0-3-1-3-2m16 0l5-1 3 1-5 2c-2 0-3-1-3-2m15 0l5-1 3 1-5 2c-2 0-3-1-3-2m16 0l5-1 3 1-5 2c-2 0-3-1-3-2m15 0l5-1 3 1-5 2c-2 0-3-1-3-2m15 0l5-1 3 1-5 2c-2 0-3-1-3-2m16 0l5-1 3 1-5 2c-2 0-3-1-3-2m15 0l5-1 3 1-5 2c-2 0-3-1-3-2m15 0l5-1 3 1-5 2c-2 0-3-1-3-2m16 0l5-1 3 1-5 2c-2 0-3-1-3-2m15 0l5-1 3 1-5 2c-2 0-3-1-3-2m62 0l5-1 3 1-5 2c-2 0-3-1-3-2m15 0l5-1 3 1-5 2c-2 0-3-1-3-2m15 0l5-1 3 1-5 2c-2 0-3-1-3-2m16 0l5-1 3 1c0 1-2 2-5 2-2 0-3-1-3-2m45 0l5-1 3 1c0 1-2 2-5 2-2 0-3-1-3-2m16 0l5-1 3 1c0 1-2 2-5 2-2 0-3-1-3-2m16 0l4-1 4 1-4 2c-3 0-4-1-4-2m15 0l4-1 4 1-4 2c-3 0-4-1-4-2m15 0l4-1 4 1-4 2c-3 0-4-1-4-2m15 0l4-1 4 1-4 2c-3 0-4-1-4-2m46 0l4-1 4 1-4 2c-3 0-4-1-4-2m16 0l4-1 4 1-4 2-4-2m15 0l4-1 4 1-4 2-4-2m108 0l4-1 4 1-4 2-4-2m15 0l4-1 4 1-4 2-4-2m15 0l4-1 4 1-4 2-4-2m15 0l4-1 4 1-4 2-4-2m16 0l4-1 4 1-4 2-4-2m16 0l4-1 4 1-4 2-4-2m14 0l4-1 4 1-4 2-4-2m16 0l4-1 4 1-4 2-4-2m16 0l4-1 4 1-4 2-4-2m15 0l4-1 4 1c0 1-1 2-4 2l-4-2m15 0l4-1 4 1c0 1-1 2-4 2l-4-2m15 0l4-1 4 1c0 1-1 2-4 2l-4-2m16 0l4-1 4 1c0 1-1 2-4 2l-4-2m16 0l4-1 4 1c0 1-1 2-4 2l-4-2m14 0l4-1 4 1c0 1-1 2-4 2l-4-2m16 0l3-1 5 1c0 1-1 2-3 2-3 0-5-1-5-2m15 0l3-1 5 1c0 1-1 2-3 2-3 0-5-1-5-2m16 0l3-1 5 1c0 1-1 2-3 2-3 0-5-1-5-2m15 0l3-1 5 1c0 1-1 2-3 2-3 0-5-1-5-2m15 0l3-1 5 1c0 1-1 2-3 2-3 0-5-1-5-2m16 0l3-1 5 1c0 1-1 2-3 2l-5-2m15 0l3-1 5 1c0 1-1 2-3 2l-5-2m15 0l3-1 5 1c0 1-1 2-3 2l-5-2m16 0l3-1 5 1c0 1-1 2-3 2l-5-2m15 0l3-1 5 1c0 1-1 2-3 2l-5-2m16 0l3-1 5 1c0 1-1 2-3 2l-5-2m14 0l3-1 5 1c0 1-1 2-3 2l-5-2m16 0l3-1 5 1c0 1-1 2-3 2l-5-2m16 0l3-1 5 1c0 1-1 2-3 2l-5-2m15 0l3-1 5 1c0 1-1 2-3 2l-5-2m15 0l3-1 5 1c0 1-1 2-3 2l-5-2m15 0l3-1 5 1c0 1-1 2-3 2l-5-2m16 0l3-1 5 1c0 1-1 2-3 2l-5-2m16 0l3-1 5 1c0 1-1 2-3 2l-5-2m14 0l3-1 5 1c0 1-1 2-3 2l-5-2m16 0l3-1 5 1c0 1-1 2-3 2l-5-2m15 0l3-1 5 1c0 1-1 2-3 2l-5-2m16 0l3-1 5 1c0 1-1 2-3 2l-5-2m15 0l3-1 5 1c0 1-1 2-3 2l-5-2m15 0l3-1 5 1c0 1-1 2-3 2l-5-2m16 0l3-1 5 1c1 1-1 2-3 2l-5-2m16 0l3-1 5 1c1 1-1 2-3 2l-5-2m14 0l3-1 5 1c1 1-1 2-3 2l-5-2m16 0l3-1 5 1c1 1-1 2-3 2l-5-2m15 0l3-1 5 1c1 1 0 2-3 2l-5-2m16 0l3-1 5 1c1 1 0 2-3 2l-5-2m15 0l3-1 5 1c1 1 0 2-3 2l-5-2m15 0l3-1 6 1c1 1 0 2-3 2l-6-2m15 0l3-1 6 1c1 1 0 2-3 2l-6-2m16 0l3-1 6 1c1 1 0 2-3 2l-6-2m14 0l3-1 6 1c1 1 0 2-3 2l-6-2m16 0l3-1 6 1c1 1 0 2-3 2l-6-2m16 0l3-1 6 1c1 1 0 2-3 2l-6-2m46 0l3-1 6 1c1 1 0 2-3 2l-6-2m15 0l3-1 6 1c1 1 0 2-3 2l-6-2M79 64l6-1 3 1-6 2c-3 0-4-1-3-2m15 0l6-1 3 1-6 2c-3 0-4-1-3-2m16 0l6-1 3 1-6 2c-3 0-4-1-3-2m16 0l6-1 3 1-6 2c-3 0-4-1-3-2m15 0l6-1 3 1-6 2c-3 0-4-1-3-2m15 0l6-1 3 1-6 2c-3 0-4-1-3-2m16 0l6-1 3 1-6 2c-3 0-4-1-3-2m16 0l6-1 3 1-6 2c-2 0-4-1-3-2m15 0l6-1 3 1-6 2c-2 0-4-1-3-2m15 0l6-1 3 1-6 2c-2 0-4-1-3-2m16 0l5-1 3 1-5 2c-2 0-4-1-3-2m16 0l5-1 3 1-5 2c-2 0-4-1-3-2m15 0l5-1 3 1-5 2c-2 0-4-1-3-2m16 0l5-1 3 1-5 2c-2 0-4-1-3-2m15 0l5-1 3 1-5 2c-2 0-4-1-3-2m16 0l5-1 3 1-5 2c-2 0-3-1-3-2m15 0l5-1 3 1-5 2c-2 0-3-1-3-2m16 0l5-1 3 1-5 2c-2 0-3-1-3-2m15 0l5-1 3 1-5 2c-2 0-3-1-3-2m16 0l5-1 3 1-5 2c-2 0-3-1-3-2m15 0l5-1 3 1-5 2c-2 0-3-1-3-2m16 0l5-1 3 1-5 2c-2 0-3-1-3-2m15 0l5-1 3 1-5 2c-2 0-3-1-3-2m15 0l5-1 3 1-5 2c-2 0-3-1-3-2m16 0l5-1 3 1-5 2c-2 0-3-1-3-2m16 0l5-1 3 1-5 2c-2 0-3-1-3-2m30 0l5-1 3 1-5 2c-2 0-3-1-3-2m16 0l5-1 3 1-5 2c-2 0-3-1-3-2m46 0l5-1 3 1-5 2c-2 0-3-1-3-2m16 0l5-1 3 1-5 2c-2 0-3-1-3-2m78 0l5-1 3 1c0 1-2 2-5 2-2 0-3-1-3-2m15 0l5-1 3 1c0 1-2 2-5 2-2 0-3-1-3-2m15 0l5-1 3 1-4 2c-3 0-4-1-4-2m16 0l4-1 4 1-4 2c-3 0-4-1-4-2m77 0l4-1 4 1-4 2c-3 0-4-1-4-2m16 0l4-1 4 1-4 2-4-2m15 0l4-1 4 1-4 2-4-2m109 0l4-1 4 1-4 2-4-2m15 0l4-1 4 1-4 2-4-2m15 0l4-1 4 1-4 2-4-2m16 0l4-1 4 1-4 2-4-2m16 0l4-1 4 1-4 2-4-2m16 0l4-1 4 1-4 2-4-2m14 0l4-1 4 1-4 2-4-2m16 0l4-1 4 1-4 2-4-2m16 0l4-1 4 1c0 1-1 2-4 2l-4-2m15 0l4-1 4 1c0 1-1 2-4 2l-4-2m15 0l4-1 4 1c0 1-1 2-4 2l-4-2m16 0l4-1 4 1c0 1-1 2-4 2l-4-2m16 0l4-1 4 1c0 1-1 2-4 2l-4-2m15 0l4-1 4 1c0 1-1 2-4 2l-4-2m15 0l4-1 4 1c0 1-1 2-3 2-3 0-5-1-5-2m16 0l3-1 5 1c0 1-1 2-3 2-3 0-5-1-5-2m16 0l3-1 5 1c0 1-1 2-3 2-3 0-5-1-5-2m15 0l3-1 5 1c0 1-1 2-3 2-3 0-5-1-5-2m15 0l3-1 5 1c0 1-1 2-3 2-3 0-5-1-5-2m16 0l3-1 5 1c0 1-1 2-3 2l-5-2m15 0l3-1 5 1c0 1-1 2-3 2l-5-2m16 0l3-1 5 1c0 1-1 2-3 2l-5-2m15 0l3-1 5 1c0 1-1 2-3 2l-5-2m16 0l3-1 5 1c0 1-1 2-3 2l-5-2m15 0l3-1 5 1c0 1-1 2-3 2l-5-2m16 0l3-1 5 1c0 1-1 2-3 2l-5-2m15 0l3-1 5 1c0 1-1 2-3 2l-5-2m16 0l3-1 5 1c0 1-1 2-3 2l-5-2m15 0l3-1 5 1c0 1-1 2-3 2l-5-2m16 0l3-1 5 1c0 1-1 2-3 2l-5-2m16 0l3-1 5 1c0 1-1 2-3 2l-5-2m15 0l3-1 5 1c0 1-1 2-3 2l-5-2m15 0l3-1 5 1c0 1-1 2-3 2l-5-2m16 0l3-1 5 1c0 1-1 2-3 2l-5-2m16 0l3-1 5 1c0 1-1 2-3 2l-5-2m14 0l3-1 5 1c0 1-1 2-3 2l-5-2m16 0l3-1 5 1c0 1-1 2-3 2l-5-2m16 0l3-1 5 1c0 1-1 2-3 2l-5-2m16 0l3-1 5 1c0 1-1 2-3 2l-5-2m14 0l3-1 5 1c1 1-1 2-3 2l-5-2m16 0l3-1 5 1c1 1-1 2-3 2l-5-2m16 0l3-1 5 1c1 1-1 2-3 2l-5-2m15 0l3-1 5 1c1 1-1 2-3 2l-5-2m15 0l3-1 5 1c1 1-1 2-3 2l-5-2m16 0l3-1 6 1c1 1-1 2-3 2l-6-2m15 0l3-1 6 1c1 1-1 2-3 2l-6-2m15 0l3-1 6 1c1 1 0 2-3 2l-6-2m16 0l3-1 6 1c1 1 0 2-3 2l-6-2m16 0l3-1 6 1c1 1 0 2-3 2l-6-2m15 0l3-1 6 1c1 1 0 2-3 2l-6-2m15 0l3-1 6 1c1 1 0 2-3 2l-6-2m16 0l3-1 6 1c1 1 0 2-3 2l-6-2m16 0l3-1 6 1c1 1 0 2-3 2l-6-2m15 0l3-1 6 1c1 1 0 2-3 2l-6-2M9 70l7-1 2 1-7 2c-2 0-3-1-2-2m47 0l6-1 3 1-6 2c-3 0-4-1-3-2m16 0l6-1 3 1-6 2c-3 0-4-1-3-2m15 0l6-1 3 1-6 2c-3 0-4-1-3-2m16 0l6-1 3 1-6 2c-3 0-4-1-3-2m16 0l6-1 3 1-6 2c-3 0-4-1-3-2m16 0l6-1 3 1-6 2c-3 0-4-1-3-2m14 0l6-1 3 1-6 2c-3 0-4-1-3-2m16 0l6-1 3 1-6 2c-3 0-4-1-3-2m16 0l6-1 3 1-6 2c-3 0-4-1-3-2m15 0l6-1 3 1-6 2c-2 0-4-1-3-2m16 0l6-1 3 1-6 2c-2 0-4-1-3-2m16 0l6-1 3 1-6 2c-2 0-4-1-3-2m16 0l6-1 3 1-6 2c-2 0-4-1-3-2m15 0l6-1 3 1-6 2c-2 0-4-1-3-2m16 0l6-1 3 1-6 2c-2 0-4-1-3-2m16 0l5-1 3 1-5 2c-2 0-4-1-3-2m15 0l5-1 3 1-5 2c-2 0-3-1-3-2m16 0l5-1 3 1-5 2c-2 0-3-1-3-2m16 0l5-1 3 1-5 2c-2 0-3-1-3-2m15 0l5-1 3 1-5 2c-2 0-3-1-3-2m16 0l5-1 3 1-5 2c-2 0-3-1-3-2m16 0l5-1 3 1-5 2c-2 0-3-1-3-2m16 0l5-1 3 1-5 2c-2 0-3-1-3-2m15 0l5-1 3 1-5 2c-2 0-3-1-3-2m15 0l5-1 3 1-5 2c-2 0-3-1-3-2m16 0l5-1 3 1-5 2c-2 0-3-1-3-2m78 0l5-1 3 1-5 2c-2 0-3-1-3-2m16 0l5-1 3 1-5 2c-2 0-3-1-3-2m31 0l5-1 3 1-5 2c-2 0-3-1-3-2m78 0l5-1 3 1c0 1-2 2-5 2-2 0-3-1-3-2m16 0l5-1 3 1c0 1-2 2-5 2-2 0-3-1-3-2m15 0l5-1 3 1c0 1-2 2-5 2-2 0-3-1-3-2m109 0l4-1 4 1-4 2-4-2m110 0l4-1 4 1-4 2-4-2m16 0l4-1 4 1-4 2-4-2m16 0l4-1 4 1-4 2-4-2m15 0l4-1 4 1-4 2-4-2m16 0l4-1 4 1-4 2-4-2m15 0l4-1 4 1-4 2-4-2m16 0l4-1 4 1-4 2-4-2m15 0l4-1 4 1-4 2-4-2m16 0l4-1 4 1-4 2-4-2m16 0l4-1 4 1c0 1-1 2-4 2l-4-2m15 0l4-1 4 1c0 1-1 2-4 2l-4-2m16 0l4-1 4 1c0 1-1 2-4 2l-4-2m16 0l4-1 4 1c0 1-1 2-4 2l-4-2m15 0l4-1 4 1c0 1-1 2-4 2l-4-2m16 0l4-1 4 1c0 1-1 2-4 2l-4-2m16 0l3-1 5 1c0 1-1 2-3 2-3 0-5-1-5-2m15 0l3-1 5 1c0 1-1 2-3 2-3 0-5-1-5-2m15 0l3-1 5 1c0 1-1 2-3 2-3 0-5-1-5-2m16 0l3-1 5 1c0 1-1 2-3 2-3 0-5-1-5-2m16 0l3-1 5 1c0 1-1 2-3 2-3 0-5-1-5-2m15 0l3-1 5 1c0 1-1 2-3 2-3 0-5-1-5-2m16 0l3-1 5 1c0 1-1 2-3 2l-5-2m16 0l3-1 5 1c0 1-1 2-3 2l-5-2m15 0l3-1 5 1c0 1-1 2-3 2l-5-2m16 0l3-1 5 1c0 1-1 2-3 2l-5-2m16 0l3-1 5 1c0 1-1 2-3 2l-5-2m16 0l3-1 5 1c0 1-1 2-3 2l-5-2m15 0l3-1 5 1c0 1-1 2-3 2l-5-2m16 0l3-1 5 1c0 1-1 2-3 2l-5-2m15 0l3-1 5 1c0 1-1 2-3 2l-5-2m15 0l3-1 5 1c0 1-1 2-3 2l-5-2m16 0l3-1 5 1c0 1-1 2-3 2l-5-2m16 0l3-1 5 1c0 1-1 2-3 2l-5-2m16 0l3-1 5 1c0 1-1 2-3 2l-5-2m15 0l3-1 5 1c0 1-1 2-3 2l-5-2m16 0l3-1 5 1c0 1-1 2-3 2l-5-2m16 0l3-1 5 1c0 1-1 2-3 2l-5-2m15 0l3-1 5 1c0 1-1 2-3 2l-5-2m16 0l3-1 5 1c0 1-1 2-3 2l-5-2m16 0l3-1 5 1c0 1-1 2-3 2l-5-2m15 0l3-1 5 1c1 1-1 2-3 2l-5-2m15 0l3-1 6 1c1 1-1 2-3 2l-6-2m16 0l3-1 6 1c1 1-1 2-3 2l-6-2m16 0l3-1 6 1c1 1-1 2-3 2l-6-2m15 0l3-1 6 1c1 1-1 2-3 2l-6-2m16 0l3-1 6 1c1 1-1 2-3 2l-6-2m16 0l3-1 6 1c1 1-1 2-3 2l-6-2m15 0l3-1 6 1c1 1 0 2-3 2l-6-2m15 0l3-1 6 1c1 1 0 2-3 2l-6-2m16 0l3-1 6 1c1 1 0 2-3 2l-6-2m16 0l3-1 6 1c1 1 0 2-3 2l-6-2m15 0l3-1 6 1c1 1 0 2-3 2l-6-2m16 0l3-1 6 1c1 1 0 2-3 2l-6-2M32 76l6-1 3 1-6 2c-3 0-4-1-3-2m16 0l6-1 3 1-6 2c-3 0-4-1-3-2m16 0l6-1 3 1-6 2c-3 0-4-1-3-2m16 0l6-1 3 1-6 2c-2 0-4-1-3-2m16 0l6-1 3 1-6 2c-3 0-4-1-3-2m16 0l6-1 3 1-6 2c-3 0-4-1-3-2m16 0l6-1 3 1-6 2c-3 0-4-1-3-2m15 0l6-1 3 1-6 2c-3 0-4-1-3-2m16 0l6-1 3 1-6 2c-3 0-4-1-3-2m16 0l6-1 3 1-6 2c-3 0-4-1-3-2m15 0l6-1 3 1-6 2c-2 0-4-1-3-2m16 0l6-1 3 1-6 2c-2 0-4-1-3-2m16 0l6-1 3 1-6 2c-2 0-4-1-3-2m15 0l6-1 3 1-6 2c-2 0-4-1-3-2m16 0l6-1 3 1-6 2c-2 0-4-1-3-2m16 0l6-1 3 1-6 2c-2 0-4-1-3-2m16 0l6-1 3 1-6 2c-2 0-4-1-3-2m15 0l6-1 3 1-6 2c-2 0-4-1-3-2m17 0l6-1 3 1-6 2c-2 0-4-1-3-2m15 0l6-1 3 1-6 2c-2 0-4-1-3-2m16 0l5-1 3 1-5 2c-2 0-3-1-3-2m16 0l5-1 3 1-5 2c-2 0-3-1-3-2m16 0l5-1 3 1-5 2c-2 0-3-1-3-2m15 0l5-1 3 1-5 2c-2 0-3-1-3-2m17 0l5-1 3 1-5 2c-2 0-3-1-3-2m16 0l5-1 3 1-5 2c-2 0-3-1-3-2m94 0l5-1 3 1-5 2c-2 0-3-1-3-2m15 0l5-1 3 1-5 2c-2 0-3-1-3-2m16 0l5-1 3 1-5 2c-2 0-3-1-3-2m95 0l5-1 3 1c0 1-2 2-5 2-2 0-3-1-3-2m16 0l5-1 3 1c0 1-2 2-5 2-2 0-3-1-3-2m16 0l5-1 3 1c0 1-2 2-5 2-2 0-3-1-3-2m220 0l4-1 4 1-4 2-4-2m16 0l4-1 4 1-4 2-4-2m16 0l4-1 4 1-4 2-4-2m15 0l4-1 4 1-4 2-4-2m16 0l4-1 4 1-4 2-4-2m16 0l4-1 4 1-4 2-4-2m15 0l4-1 4 1-4 2-4-2m16 0l4-1 4 1-4 2-4-2m16 0l4-1 4 1-4 2-4-2m15 0l4-1 4 1c0 1-1 2-4 2l-4-2m17 0l4-1 4 1c0 1-1 2-4 2l-4-2m16 0l4-1 4 1c0 1-1 2-4 2l-4-2m15 0l4-1 4 1c0 1-1 2-4 2l-4-2m16 0l4-1 4 1c0 1-1 2-4 2l-4-2m16 0l4-1 4 1c0 1-1 2-4 2l-4-2m16 0l3-1 5 1c0 1-1 2-3 2-3 0-5-1-5-2m15 0l3-1 5 1c0 1-1 2-3 2-3 0-5-1-5-2m16 0l3-1 5 1c0 1-1 2-3 2l-5-2m16 0l3-1 5 1c0 1-1 2-3 2-3 0-5-1-5-2m15 0l3-1 5 1c0 1-1 2-3 2-3 0-5-1-5-2m16 0l3-1 5 1c0 1-1 2-3 2l-5-2m16 0l3-1 5 1c0 1-1 2-3 2l-5-2m15 0l3-1 5 1c0 1-1 2-3 2l-5-2m17 0l3-1 5 1c0 1-1 2-3 2l-5-2m16 0l3-1 5 1c0 1-1 2-3 2l-5-2m15 0l3-1 5 1c0 1-1 2-3 2l-5-2m16 0l3-1 5 1c0 1-1 2-3 2l-5-2m16 0l3-1 5 1c0 1-1 2-3 2l-5-2m15 0l3-1 5 1c0 1-1 2-3 2l-5-2m16 0l3-1 5 1c0 1-1 2-3 2l-5-2m16 0l3-1 5 1c0 1-1 2-3 2l-5-2m16 0l3-1 5 1c0 1-1 2-3 2l-5-2m15 0l3-1 5 1c0 1-1 2-3 2l-5-2m16 0l3-1 5 1c0 1-1 2-3 2l-5-2m16 0l3-1 5 1c0 1-1 2-3 2l-5-2m15 0l3-1 5 1c0 1-1 2-3 2l-5-2m17 0l3-1 5 1c0 1-1 2-3 2l-5-2m15 0l3-1 6 1c1 1-1 2-3 2l-6-2m15 0l3-1 6 1c1 1-1 2-3 2l-6-2m16 0l3-1 6 1c1 1-1 2-3 2l-6-2m16 0l3-1 6 1c1 1-1 2-3 2l-6-2m15 0l3-1 6 1c1 1-1 2-3 2l-6-2m16 0l3-1 6 1c1 1-1 2-3 2l-6-2m17 0l3-1 6 1c1 1-1 2-3 2l-6-2m15 0l3-1 6 1c1 1-1 2-3 2l-6-2m16 0l3-1 6 1c1 1-1 2-3 2l-6-2m32 0l3-1 6 1c1 1 0 2-3 2l-6-2m15 0l3-1 6 1c1 1 0 2-3 2l-6-2m16 0l3-1 6 1c1 1 0 2-3 2l-6-2m16 0l3-1 6 1c1 1 0 2-3 2l-6-2m15 0l3-1 6 1c1 1 0 2-3 2l-6-2M25 82l7-1 2 1-7 2c-3 0-3-1-2-2m15 0l6-1 3 1-6 2c-3 0-4-1-3-2m17 0l6-1 3 1-6 2c-3 0-4-1-3-2m16 0l6-1 3 1-6 2c-3 0-4-1-3-2m15 0l6-1 3 1-6 2c-3 0-4-1-3-2m16 0l6-1 3 1-6 2c-2 0-4-1-3-2m17 0l6-1 3 1-6 2c-3 0-4-1-3-2m63 0l6-1 3 1-6 2c-3 0-4-1-3-2m16 0l6-1 3 1-6 2c-2 0-4-1-3-2m16 0l6-1 3 1-6 2c-2 0-4-1-3-2m15 0l6-1 3 1-6 2c-2 0-4-1-3-2m17 0l6-1 3 1-6 2c-2 0-4-1-3-2m16 0l6-1 3 1-6 2c-2 0-4-1-3-2m15 0l6-1 3 1-6 2c-2 0-4-1-3-2m16 0l6-1 3 1-6 2c-2 0-4-1-3-2m16 0l6-1 3 1-6 2c-2 0-4-1-3-2m16 0l6-1 3 1-6 2c-2 0-4-1-3-2m16 0l6-1 3 1-6 2c-2 0-4-1-3-2m16 0l6-1 3 1-6 2c-2 0-4-1-3-2m15 0l6-1 3 1-6 2c-2 0-4-1-3-2m17 0l5-1 3 1-5 2c-2 0-3-1-3-2m16 0l5-1 3 1-5 2c-2 0-3-1-3-2m16 0l5-1 3 1-5 2c-2 0-3-1-3-2m95 0l5-1 3 1-5 2c-2 0-3-1-3-2m16 0l5-1 3 1-5 2c-2 0-3-1-3-2m17 0l5-1 3 1-5 2c-2 0-3-1-3-2m15 0l5-1 3 1-5 2c-2 0-3-1-3-2m16 0l5-1 3 1-5 2c-2 0-3-1-3-2m270 0l4-1 4 1-4 2-4-2m48 0l4-1 4 1-4 2-4-2m16 0l4-1 4 1-4 2-4-2m16 0l4-1 4 1-4 2-4-2m15 0l4-1 4 1-4 2-4-2m17 0l4-1 4 1-4 2-4-2m16 0l4-1 4 1-4 2-4-2m15 0l4-1 4 1-4 2-4-2m16 0l4-1 4 1-4 2-4-2m17 0l4-1 4 1-4 2-4-2m15 0l4-1 4 1c0 1-1 2-4 2l-4-2m16 0l4-1 4 1c0 1-1 2-4 2l-4-2m16 0l4-1 4 1c0 1-1 2-4 2l-4-2m16 0l4-1 4 1c0 1-1 2-4 2l-4-2m16 0l4-1 4 1c0 1-1 2-4 2l-4-2m16 0l4-1 4 1c0 1-1 2-4 2l-4-2m15 0l3-1 5 1c0 1-1 2-3 2-3 0-5-1-5-2m17 0l3-1 5 1c0 1-1 2-3 2-3 0-5-1-5-2m16 0l3-1 5 1c0 1-1 2-3 2-3 0-5-1-5-2m15 0l3-1 5 1c0 1-1 2-3 2-3 0-5-1-5-2m16 0l3-1 5 1c0 1-1 2-3 2-3 0-5-1-5-2m16 0l3-1 5 1c0 1-1 2-3 2l-5-2m16 0l3-1 5 1c0 1-1 2-3 2l-5-2m16 0l3-1 5 1c0 1-1 2-3 2l-5-2m16 0l3-1 5 1c0 1-1 2-3 2l-5-2m15 0l3-1 5 1c0 1-1 2-3 2l-5-2m17 0l3-1 5 1c0 1-1 2-3 2l-5-2m16 0l3-1 5 1c0 1-1 2-3 2l-5-2m15 0l3-1 5 1c0 1-1 2-3 2l-5-2m16 0l3-1 5 1c0 1-1 2-3 2l-5-2m17 0l3-1 5 1c0 1-1 2-3 2l-5-2m15 0l3-1 5 1c0 1-1 2-3 2l-5-2m16 0l3-1 5 1c0 1-1 2-3 2l-5-2m16 0l3-1 5 1c0 1-1 2-3 2l-5-2m15 0l3-1 6 1c1 1-1 2-3 2l-6-2m16 0l3-1 6 1c1 1-1 2-3 2l-6-2m17 0l3-1 6 1c1 1-1 2-3 2l-6-2m15 0l3-1 6 1c1 1-1 2-3 2l-6-2m16 0l3-1 6 1c1 1-1 2-3 2l-6-2m16 0l3-1 6 1c1 1-1 2-3 2l-6-2m15 0l3-1 6 1c1 1-1 2-3 2l-6-2m17 0l3-1 6 1c1 1-1 2-3 2l-6-2m111 0l3-1 6 1c1 1 0 2-3 2l-6-2m16 0l3-1 6 1c1 1 0 2-3 2l-6-2M49 88l6-1 3 1-6 2c-3 0-4-1-3-2m16 0l6-1 3 1-6 2c-2 0-4-1-3-2m16 0l6-1 3 1-6 2c-3 0-4-1-3-2m112 0l6-1 3 1-6 2c-2 0-4-1-3-2m17 0l6-1 3 1-6 2c-2 0-4-1-3-2m15 0l6-1 3 1-6 2c-2 0-4-1-3-2m17 0l6-1 3 1-6 2c-2 0-4-1-3-2m15 0l6-1 3 1-6 2c-2 0-4-1-3-2m16 0l6-1 3 1-6 2c-2 0-4-1-3-2m17 0l6-1 3 1-6 2c-2 0-4-1-3-2m15 0l6-1 3 1-6 2c-2 0-4-1-3-2m17 0l6-1 3 1-6 2c-2 0-4-1-3-2m16 0l6-1 3 1-6 2c-2 0-4-1-3-2m16 0l6-1 3 1-6 2c-2 0-4-1-3-2m16 0l6-1 3 1-6 2c-2 0-4-1-3-2m16 0l6-1 3 1-6 2c-2 0-4-1-3-2m16 0l6-1 3 1-6 2c-2 0-4-1-3-2m16 0l6-1 3 1-6 2c-2 0-4-1-3-2m16 0l6-1 3 1-6 2c-2 0-3-1-3-2m16 0l6-1 3 1-6 2c-2 0-3-1-3-2m65 0l5-1 3 1-5 2c-2 0-3-1-3-2m15 0l5-1 3 1-5 2c-2 0-3-1-3-2m17 0l5-1 3 1-5 2c-2 0-3-1-3-2m16 0l5-1 3 1-5 2c-2 0-3-1-3-2m16 0l5-1 3 1-5 2c-2 0-3-1-3-2m257 0l4-1 4 1-4 2-4-2m15 0l4-1 4 1-4 2-4-2m81 0l4-1 4 1-4 2-4-2m16 0l4-1 4 1-4 2-4-2m16 0l4-1 4 1-4 2-4-2m16 0l4-1 4 1-4 2-4-2m16 0l4-1 4 1-4 2-4-2m16 0l4-1 4 1-4 2-4-2m16 0l4-1 4 1-4 2-4-2m16 0l4-1 4 1c0 1-1 2-4 2l-4-2m17 0l4-1 4 1c0 1-1 2-4 2l-4-2m15 0l4-1 4 1c0 1-1 2-4 2l-4-2m16 0l4-1 4 1c0 1-1 2-4 2l-4-2m17 0l4-1 4 1c0 1-1 2-4 2l-4-2m15 0l4-1 4 1c0 1-1 2-4 2l-4-2m17 0l3-1 5 1c0 1-1 2-3 2-3 0-5-1-5-2m16 0l3-1 5 1c0 1-1 2-3 2-3 0-5-1-5-2m15 0l3-1 5 1c0 1-1 2-3 2-3 0-5-1-5-2m17 0l3-1 5 1c0 1-1 2-3 2l-5-2m16 0l3-1 5 1c0 1-1 2-3 2-3 0-5-1-5-2m16 0l3-1 5 1c0 1-1 2-3 2l-5-2m16 0l3-1 5 1c0 1-1 2-3 2l-5-2m16 0l3-1 5 1c0 1-1 2-3 2l-5-2m16 0l3-1 5 1c0 1-1 2-3 2l-5-2m16 0l3-1 5 1c0 1-1 2-3 2l-5-2m16 0l3-1 5 1c0 1-1 2-3 2l-5-2m16 0l3-1 5 1c0 1-1 2-3 2l-5-2m17 0l3-1 5 1c0 1-1 2-3 2l-5-2m15 0l3-1 5 1c0 1-1 2-3 2l-5-2m16 0l3-1 6 1c0 1-1 2-3 2l-6-2m16 0l3-1 6 1c0 1-1 2-3 2l-6-2m16 0l3-1 6 1c1 1-1 2-3 2l-6-2m16 0l3-1 6 1c1 1-1 2-3 2l-6-2m16 0l3-1 6 1c1 1-1 2-3 2l-6-2m16 0l3-1 6 1c1 1-1 2-3 2l-6-2m16 0l3-1 6 1c1 1-1 2-3 2l-6-2m16 0l3-1 6 1c1 1-1 2-3 2l-6-2m16 0l3-1 6 1c1 1-1 2-3 2l-6-2m16 0l3-1 6 1c1 1-1 2-3 2l-6-2m16 0l3-1 6 1c1 1-1 2-3 2l-6-2m16 0l3-1 6 1c1 1-1 2-3 2l-6-2m97 0l3-1 6 1c1 1 0 2-3 2l-6-2m16 0l3-1 6 1c1 1 0 2-3 2l-6-2m15 0l3-1 6 1c1 1 0 2-3 2l-6-2m17 0l3-1 6 1c1 1 0 2-3 2l-6-2M41 95l6-1 3 1-6 2c-3 0-4-1-3-2m16 0l6-1 3 1-6 2c-3 0-4-1-3-2m33 0l6-1 3 1-6 2c-3 0-4-1-3-2m129 0l6-1 3 1-6 2c-2 0-4-1-3-2m17 0l6-1 3 1-6 2c-2 0-4-1-3-2m15 0l6-1 3 1-6 2c-2 0-4-1-3-2m17 0l6-1 3 1-6 2c-2 0-4-1-3-2m16 0l6-1 3 1-6 2c-2 0-4-1-3-2m16 0l6-1 3 1-6 2c-2 0-4-1-3-2m17 0l6-1 3 1-6 2c-2 0-4-1-3-2m15 0l6-1 3 1-6 2c-2 0-4-1-3-2m17 0l6-1 3 1-6 2c-2 0-4-1-3-2m16 0l6-1 3 1-6 2c-2 0-4-1-3-2m16 0l6-1 3 1-6 2c-3 0-4-1-3-2m16 0l6-1 3 1-6 2c-2 0-4-1-3-2m17 0l6-1 3 1-6 2c-2 0-4-1-3-2m16 0l6-1 3 1-6 2c-3 0-3-1-3-2m16 0l6-1 3 1-6 2c-2 0-3-1-3-2m16 0l6-1 3 1-6 2c-3 0-3-1-3-2m33 0l6-1 3 1-6 2c-3 0-3-1-3-2m15 0l5-1 4 1-5 2-4-2m17 0l5-1 3 1-5 2c-2 0-3-1-3-2m17 0l5-1 3 1-5 2c-2 0-3-1-3-2m16 0l5-1 3 1-5 2c-2 0-3-1-3-2m16 0l5-1 3 1-5 2c-2 0-3-1-3-2m16 0l5-1 3 1-5 2c-2 0-3-1-3-2m243 0l4-1 4 1-4 2-4-2m16 0l4-1 4 1-4 2-4-2m16 0l4-1 4 1-4 2-4-2m49 0l4-1 4 1-4 2-4-2m16 0l4-1 4 1-4 2-4-2m16 0l4-1 4 1-4 2-4-2m17 0l4-1 4 1-4 2-4-2m15 0l4-1 4 1-4 2-4-2m17 0l4-1 4 1-4 2-4-2m17 0l4-1 4 1-4 2-4-2m15 0l4-1 4 1-4 2-4-2m17 0l4-1 4 1c0 1-1 2-4 2l-4-2m16 0l4-1 4 1c0 1-1 2-4 2l-4-2m16 0l4-1 4 1c0 1-1 2-4 2l-4-2m16 0l4-1 4 1c0 1-1 2-4 2l-4-2m16 0l4-1 4 1c0 1-1 2-4 2l-4-2m17 0l4-1 4 1c0 1-1 2-4 2l-4-2m16 0l3-1 5 1c0 1-1 2-3 2-3 0-5-1-5-2m16 0l3-1 5 1c0 1-1 2-3 2-3 0-5-1-5-2m16 0l3-1 5 1c0 1-1 2-3 2-3 0-5-1-5-2m16 0l3-1 5 1c0 1-1 2-3 2-3 0-5-1-5-2m16 0l3-1 5 1c0 1-1 2-3 2-3 0-5-1-5-2m17 0l3-1 5 1c0 1-1 2-3 2l-5-2m16 0l3-1 5 1c0 1-1 2-3 2l-5-2m16 0l3-1 5 1c0 1-1 2-3 2l-5-2m17 0l3-1 5 1c0 1-1 2-3 2l-5-2m15 0l3-1 5 1c0 1-1 2-3 2l-5-2m16 0l4-1 5 1c0 1-1 2-4 2l-5-2m16 0l3-1 6 1c0 1-1 2-3 2l-6-2m16 0l3-1 6 1c0 1-1 2-3 2l-6-2m17 0l3-1 6 1c0 1-1 2-3 2l-6-2m16 0l3-1 6 1c0 1-1 2-3 2l-6-2m16 0l3-1 6 1c0 1-1 2-3 2l-6-2m17 0l3-1 6 1c1 1-1 2-3 2l-6-2m15 0l3-1 6 1c1 1-1 2-3 2l-6-2m17 0l3-1 6 1c1 1-1 2-3 2l-6-2m16 0l3-1 6 1c1 1-1 2-3 2l-6-2m16 0l3-1 6 1c1 1-1 2-3 2l-6-2m17 0l3-1 6 1c1 1-1 2-3 2l-6-2m15 0l3-1 6 1c1 1-1 2-3 2l-6-2m17 0l3-1 6 1c1 1-1 2-3 2l-6-2m16 0l3-1 6 1c1 1-1 2-3 2l-6-2m16 0l3-1 6 1c1 1-1 2-3 2l-6-2m16 0l3-1 6 1c1 1-1 2-3 2l-6-2m16 0l3-1 6 1c1 1-1 2-3 2l-6-2m82 0l3-1 6 1c1 1 0 2-3 2l-6-2m15 0l3-1 6 1c1 1 0 2-3 2l-6-2M1 101l6-1c3 0 4 1 2 1l-6 2c-3 0-4-1-2-2m16 0l7-1 2 1-7 2c-2 0-3-1-2-2m179 0l6-1 3 1-6 2c-2 0-4-1-3-2m17 0l6-1 3 1-6 2c-2 0-4-1-3-2m17 0l6-1 3 1-6 2c-2 0-4-1-3-2m15 0l6-1 3 1-6 2c-2 0-4-1-3-2m17 0l6-1 3 1-6 2c-2 0-4-1-3-2m16 0l6-1 3 1-6 2c-2 0-4-1-3-2m17 0l6-1 3 1-6 2c-2 0-4-1-3-2m16 0l6-1 3 1-6 2c-2 0-4-1-3-2m16 0l6-1 3 1-6 2c-2 0-4-1-3-2m17 0l6-1 3 1-6 2c-2 0-4-1-3-2m16 0l6-1 3 1-6 2c-2 0-4-1-3-2m16 0l6-1 3 1-6 2c-2 0-4-1-3-2m17 0l6-1 3 1-6 2c-2 0-4-1-3-2m16 0l6-1 3 1-6 2c-2 0-4-1-3-2m17 0l6-1 3 1-6 2c-2 0-3-1-3-2m15 0l6-1 3 1-6 2c-2 0-3-1-3-2m17 0l6-1 3 1-6 2c-2 0-3-1-3-2m32 0l6-1 3 1-6 2c-3 0-3-1-3-2m17 0l5-1 4 1-5 2c-3 0-4-1-4-2m16 0l5-1 4 1-5 2c-3 0-4-1-4-2m17 0l5-1 4 1-5 2c-3 0-4-1-4-2m16 0l5-1 4 1-5 2c-3 0-4-1-4-2m16 0l5-1 4 1-5 2c-3 0-4-1-4-2m17 0l5-1 4 1-5 2c-3 0-4-1-4-2m16 0l5-1 4 1-5 2-4-2m213 0l4-1 4 1-4 2-4-2m17 0l4-1 4 1-4 2-4-2m16 0l4-1 4 1-4 2-4-2m16 0l4-1 4 1-4 2-4-2m32 0l4-1 4 1-4 2-4-2m17 0l4-1 4 1-4 2-4-2m16 0l4-1 4 1-4 2-4-2m17 0l4-1 4 1-4 2-4-2m16 0l4-1 4 1-4 2-4-2m16 0l4-1 4 1-4 2-4-2m17 0l4-1 4 1-4 2-4-2m16 0l4-1 4 1-4 2-4-2m16 0l4-1 4 1-4 2-4-2m17 0l4-1 4 1c0 1-1 2-4 2l-4-2m16 0l4-1 4 1c0 1-1 2-4 2l-4-2m17 0l4-1 4 1c0 1-1 2-4 2l-4-2m16 0l4-1 4 1c0 1-1 2-4 2l-4-2m16 0l4-1 4 1c0 1-1 2-4 2l-4-2m17 0l4-1 4 1c0 1-1 2-4 2l-4-2m16 0l3-1 5 1c0 1-1 2-3 2-3 0-5-1-5-2m16 0l3-1 5 1c0 1-1 2-3 2-3 0-5-1-5-2m17 0l3-1 5 1c0 1-1 2-3 2-3 0-5-1-5-2m16 0l3-1 5 1c0 1-1 2-3 2-3 0-5-1-5-2m16 0l4-1 5 1c0 1-1 2-4 2l-5-2m16 0l4-1 5 1c0 1-1 2-4 2l-5-2m17 0l4-1 5 1c0 1-1 2-4 2l-5-2m16 0l4-1 5 1c0 1-1 2-4 2l-5-2m16 0l4-1 5 1c0 1-1 2-4 2l-5-2m17 0l4-1 5 1c0 1-1 2-4 2l-5-2m16 0l4-1 5 1c0 1-1 2-4 2l-5-2m16 0l3-1 6 1c0 1-1 2-3 2l-6-2m17 0l3-1 6 1c0 1-1 2-3 2l-6-2m16 0l3-1 6 1c0 1-1 2-3 2l-6-2m16 0l3-1 6 1c0 1-1 2-3 2l-6-2m16 0l3-1 6 1c0 1-1 2-3 2l-6-2m17 0l3-1 6 1c1 1-1 2-3 2l-6-2m16 0l3-1 6 1c1 1-1 2-3 2l-6-2m16 0l3-1 6 1c1 1-1 2-3 2l-6-2m17 0l3-1 6 1c1 1-1 2-3 2l-6-2m16 0l3-1 6 1c1 1-1 2-3 2l-6-2m17 0l3-1 6 1c1 1-1 2-3 2l-6-2m16 0l3-1 6 1c1 1-1 2-3 2l-6-2m16 0l3-1 6 1c1 1-1 2-3 2l-6-2m17 0l3-1 6 1c1 1-1 2-3 2l-6-2m16 0l3-1 6 1c1 1-1 2-3 2l-6-2m16 0l3-1 6 1c1 1-1 2-3 2l-6-2m17 0l3-1 6 1c1 1-1 2-3 2l-6-2m16 0l3-1 6 1c1 1-1 2-3 2l-6-2m66 0l3-1 6 1c1 1 0 2-3 2l-6-2m-1445 7l6-1 3 1-6 2c-2 0-4-1-3-2m16 0l6-1 3 1-6 2c-2 0-4-1-3-2m17 0l6-1 3 1-6 2c-2 0-4-1-3-2m16 0l6-1 3 1-6 2c-2 0-4-1-3-2m17 0l6-1 3 1-6 2c-2 0-4-1-3-2m16 0l6-1 3 1-6 2c-2 0-4-1-3-2m17 0l6-1 3 1-6 2c-2 0-4-1-3-2m17 0l6-1 3 1-6 2c-2 0-4-1-3-2m16 0l6-1 3 1-6 2c-2 0-4-1-3-2m17 0l6-1 3 1-6 2c-2 0-4-1-3-2m16 0l6-1 3 1-6 2c-2 0-4-1-3-2m16 0l6-1 3 1-6 2c-2 0-4-1-3-2m17 0l6-1 3 1-6 2c-2 0-3-1-3-2m16 0l6-1 3 1-6 2c-2 0-3-1-3-2m17 0l6-1 3 1-6 2c-2 0-3-1-3-2m16 0l6-1 3 1-6 2c-2 0-3-1-3-2m17 0l6-1 3 1-6 2c-2 0-3-1-3-2m16 0l5-1 4 1-6 2c-2 0-3-1-3-2m17 0l5-1 4 1-5 2-4-2m17 0l5-1 4 1-5 2c-3 0-4-1-4-2m16 0l5-1 4 1-5 2-4-2m17 0l5-1 4 1-5 2c-3 0-4-1-4-2m16 0l5-1 4 1-5 2-4-2m265 0l4-1 4 1-4 2-4-2m32 0l4-1 4 1-4 2-4-2m16 0l4-1 4 1-4 2-4-2m17 0l4-1 4 1-4 2-4-2m16 0l4-1 4 1-4 2-4-2m17 0l4-1 4 1-4 2-4-2m17 0l4-1 4 1-4 2-4-2m16 0l4-1 4 1-4 2-4-2m17 0l4-1 4 1-4 2-4-2m16 0l4-1 4 1-4 2-4-2m17 0l4-1 4 1-4 2-4-2m16 0l4-1 4 1c0 1-1 2-4 2l-4-2m17 0l4-1 4 1c0 1-1 2-4 2l-4-2m16 0l4-1 5 1-4 2c-3 0-5-1-5-2m16 0l4-1 5 1-4 2-5-2m17 0l4-1 5 1-4 2-5-2m16 0l4-1 5 1c0 1-1 2-4 2l-5-2m17 0l4-1 5 1c0 1-1 2-4 2l-5-2m17 0l4-1 5 1c0 1-1 2-4 2l-5-2m15 0l4-1 5 1c0 1-1 2-4 2l-5-2m17 0l4-1 5 1c0 1-1 2-4 2l-5-2m16 0l4-1 5 1c0 1-1 2-4 2l-5-2m17 0l4-1 5 1c0 1-1 2-4 2l-5-2m16 0l4-1 5 1c0 1-1 2-4 2l-5-2m17 0l4-1 5 1c0 1-1 2-4 2l-5-2m17 0l4-1 5 1c0 1-1 2-4 2l-5-2m16 0l4-1 5 1c0 1-1 2-4 2l-5-2m17 0l4-1 5 1c0 1-1 2-3 2l-6-2m16 0l3-1 6 1c0 1-1 2-3 2l-6-2m17 0l3-1 6 1c0 1-1 2-3 2l-6-2m16 0l3-1 6 1c0 1-1 2-3 2l-6-2m16 0l3-1 6 1c0 1-1 2-3 2l-6-2m17 0l3-1 6 1c0 1-1 2-3 2l-6-2m16 0l3-1 6 1c1 1-1 2-3 2l-6-2m17 0l3-1 6 1c1 1-1 2-3 2l-6-2m16 0l3-1 6 1c1 1-1 2-3 2l-6-2m17 0l3-1 6 1c1 1-1 2-3 2l-6-2m17 0l3-1 6 1c1 1-1 2-3 2l-6-2m16 0l3-1 6 1c1 1-1 2-3 2l-6-2m17 0l3-1 6 1c1 1-1 2-3 2l-6-2m16 0l3-1 6 1c1 1-1 2-3 2l-6-2m17 0l3-1 6 1c1 1-1 2-3 2l-6-2m16 0l3-1 6 1c1 1-1 2-3 2l-6-2m16 0l3-1 6 1c1 1-1 2-3 2l-6-2m17 0l3-1 6 1c1 1-1 2-3 2l-6-2m16 0l3-1 6 1c1 1-1 2-3 2l-6-2m-1408 6l6-1 3 1-6 2c-2 0-4-1-3-2m16 0l6-1 3 1-6 2c-2 0-4-1-3-2m17 0l6-1 3 1-6 2c-2 0-4-1-3-2m17 0l6-1 3 1-6 2c-2 0-4-1-3-2m16 0l6-1 3 1-6 2c-2 0-4-1-3-2m17 0l6-1 3 1-6 2c-2 0-4-1-3-2m16 0l6-1 3 1-6 2c-2 0-4-1-3-2m18 0l6-1 3 1-6 2c-2 0-4-1-3-2m16 0l6-1 3 1-6 2c-2 0-4-1-3-2m17 0l6-1 3 1-6 2c-2 0-4-1-3-2m16 0l6-1 3 1-6 2c-2 0-4-1-3-2m17 0l6-1 3 1-6 2c-2 0-4-1-3-2m17 0l6-1 3 1-6 2c-2 0-4-1-3-2m16 0l6-1 3 1-6 2c-2 0-4-1-3-2m17 0l6-1 3 1-6 2c-2 0-3-1-3-2m16 0l6-1 3 1-6 2c-2 0-3-1-3-2m17 0l6-1 3 1-6 2c-2 0-3-1-3-2m17 0l6-1 3 1-6 2c-2 0-3-1-3-2m17 0l6-1 3 1-6 2c-2 0-3-1-3-2m16 0l5-1 4 1-5 2c-3 0-4-1-4-2m17 0l5-1 4 1-5 2c-3 0-4-1-4-2m50 0l5-1 4 1-5 2c-3 0-4-1-4-2m16 0l5-1 4 1-5 2c-3 0-4-1-4-2m267 0l5-1 4 1c0 1-2 2-5 2l-4-2m17 0l5-1 4 1c0 1-2 2-5 2l-4-2m16 0l5-1 4 1c0 1-2 2-5 2l-4-2m17 0l4-1 5 1-4 2c-3 0-5-1-5-2m16 0l4-1 5 1-4 2c-3 0-5-1-5-2m17 0l4-1 5 1-4 2c-3 0-5-1-5-2m17 0l4-1 5 1-4 2c-3 0-5-1-5-2m16 0l4-1 5 1-4 2-5-2m17 0l4-1 5 1-4 2c-3 0-5-1-5-2m16 0l4-1 5 1-4 2-5-2m18 0l4-1 5 1-4 2c-3 0-5-1-5-2m16 0l4-1 5 1-4 2c-3 0-5-1-5-2m17 0l4-1 5 1-4 2c-3 0-5-1-5-2m16 0l4-1 5 1-4 2c-3 0-5-1-5-2m17 0l4-1 5 1-4 2-5-2m17 0l4-1 5 1c0 1-1 2-4 2l-5-2m16 0l4-1 5 1c0 1-1 2-4 2l-5-2m17 0l4-1 5 1c0 1-1 2-4 2l-5-2m16 0l4-1 5 1c0 1-1 2-4 2l-5-2m17 0l4-1 5 1c0 1-1 2-4 2l-5-2m16 0l4-1 5 1c0 1-1 2-4 2l-5-2m18 0l4-1 5 1c0 1-1 2-4 2l-5-2m16 0l4-1 5 1c0 1-1 2-4 2l-5-2m17 0l4-1 5 1c0 1-1 2-4 2l-5-2m17 0l4-1 5 1c0 1-1 2-4 2l-5-2m16 0l4-1 5 1c0 1-1 2-4 2l-5-2m17 0l4-1 5 1c0 1-1 2-4 2l-5-2m16 0l3-1 6 1c0 1-1 2-3 2l-6-2m17 0l3-1 6 1c0 1-1 2-3 2l-6-2m16 0l3-1 6 1c0 1-1 2-3 2l-6-2m17 0l3-1 6 1c0 1-1 2-3 2l-6-2m17 0l3-1 6 1c0 1-1 2-3 2l-6-2m17 0l3-1 6 1c1 1-1 2-3 2l-6-2m17 0l3-1 6 1c1 1-1 2-3 2l-6-2m16 0l3-1 6 1c1 1-1 2-3 2l-6-2m17 0l3-1 6 1c1 1-1 2-3 2l-6-2m16 0l3-1 6 1c1 1-1 2-3 2l-6-2m17 0l3-1 6 1c1 1-1 2-3 2l-6-2m16 0l3-1 6 1c1 1-1 2-3 2l-6-2m17 0l3-1 6 1c1 1-1 2-3 2l-6-2m17 0l3-1 6 1c1 1-1 2-3 2l-6-2m16 0l3-1 6 1c1 1-1 2-3 2l-6-2m18 0l3-1 6 1c1 1-1 2-3 2l-6-2m16 0l3-1 6 1c1 1-1 2-3 2l-6-2m17 0l3-1 6 1c1 1-1 2-3 2l-6-2m16 0l3-1 6 1c1 1-1 2-3 2l-6-2m-1405 7l6-1 3 1-6 2c-2 0-4-1-3-2m17 0l6-1 3 1-6 2c-2 0-4-1-3-2m17 0l6-1 3 1-6 2c-2 0-4-1-3-2m16 0l6-1 3 1-6 2c-2 0-4-1-3-2m18 0l6-1 3 1-6 2c-2 0-4-1-3-2m16 0l6-1 3 1-6 2c-2 0-4-1-3-2m17 0l6-1 3 1-6 2c-2 0-4-1-3-2m16 0l6-1 3 1-6 2c-2 0-4-1-3-2m18 0l6-1 3 1-6 2c-2 0-4-1-3-2m16 0l6-1 3 1-6 2c-2 0-4-1-3-2m17 0l6-1 3 1-6 2c-3 0-4-1-3-2m17 0l6-1 3 1-6 2c-2 0-4-1-3-2m17 0l6-1 3 1-6 2c-2 0-4-1-3-2m16 0l6-1 3 1-6 2c-2 0-3-1-3-2m17 0l6-1 3 1-6 2c-3 0-3-1-3-2m17 0l6-1 3 1-6 2c-2 0-3-1-3-2m17 0l6-1 3 1-6 2c-2 0-3-1-3-2m17 0l6-1 3 1-6 2c-2 0-3-1-3-2m16 0l5-1 4 1-5 2c-3 0-4-1-4-2m18 0l5-1 4 1-5 2c-3 0-4-1-4-2m67 0l5-1 4 1-5 2-4-2m268 0l5-1 4 1c0 1-2 2-5 2l-4-2m17 0l5-1 4 1c0 1-2 2-5 2l-4-2m17 0l5-1 4 1c0 1-2 2-5 2l-4-2m17 0l4-1 5 1-4 2c-3 0-5-1-5-2m16 0l4-1 5 1-4 2c-3 0-5-1-5-2m18 0l4-1 5 1-4 2c-3 0-5-1-5-2m16 0l4-1 5 1-4 2c-3 0-5-1-5-2m17 0l4-1 5 1-4 2c-3 0-5-1-5-2m17 0l4-1 5 1-4 2c-3 0-5-1-5-2m17 0l4-1 5 1-4 2c-3 0-5-1-5-2m17 0l4-1 5 1-4 2c-3 0-5-1-5-2m16 0l4-1 5 1-4 2c-3 0-5-1-5-2m17 0l4-1 5 1-4 2c-3 0-5-1-5-2m17 0l4-1 5 1-4 2c-3 0-5-1-5-2m17 0l4-1 5 1-4 2-5-2m16 0l4-1 5 1c0 1-1 2-4 2l-5-2m18 0l4-1 5 1c0 1-1 2-4 2l-5-2m16 0l4-1 5 1c0 1-1 2-4 2l-5-2m17 0l4-1 5 1c0 1-1 2-4 2l-5-2m16 0l4-1 5 1c0 1-1 2-4 2l-5-2m18 0l4-1 5 1c0 1-1 2-4 2l-5-2m16 0l4-1 5 1c0 1-1 2-4 2l-5-2m17 0l4-1 5 1c0 1-1 2-4 2l-5-2m17 0l4-1 5 1c0 1-1 2-4 2l-5-2m17 0l4-1 5 1c0 1-1 2-4 2l-5-2m17 0l4-1 5 1c0 1-1 2-4 2l-5-2m16 0l4-1 5 1c0 1-1 2-4 2l-5-2m18 0l3-1 6 1c0 1-1 2-3 2l-6-2m16 0l3-1 6 1c0 1-1 2-3 2l-6-2m17 0l3-1 6 1c0 1-1 2-3 2l-6-2m16 0l3-1 6 1c0 1-1 2-3 2l-6-2m18 0l3-1 6 1c0 1-1 2-3 2l-6-2m16 0l3-1 6 1c1 1-1 2-3 2l-6-2m17 0l3-1 6 1c1 1-1 2-3 2l-6-2m16 0l3-1 6 1c1 1-1 2-3 2l-6-2m18 0l3-1 6 1c1 1-1 2-3 2l-6-2m16 0l3-1 6 1c1 1-1 2-3 2l-6-2m17 0l3-1 6 1c1 1-1 2-3 2l-6-2m17 0l3-1 6 1c1 1-1 2-3 2l-6-2m17 0l3-1 6 1c1 1-1 2-3 2l-6-2m17 0l3-1 6 1c1 1-1 2-3 2l-6-2m16 0l3-1 6 1c1 1-1 2-3 2l-6-2m18 0l3-1 6 1c1 1-1 2-3 2l-6-2m16 0l3-1 6 1c1 1-1 2-3 2l-6-2m33 0l3-1 6 1c1 1-1 2-3 2l-6-2m-1401 7l6-1 3 1-6 2c-2 0-4-1-3-2m17 0l6-1 3 1-6 2c-2 0-4-1-3-2m17 0l6-1 3 1-6 2c-2 0-4-1-3-2m17 0l6-1 3 1-6 2c-2 0-4-1-3-2m17 0l6-1 3 1-6 2c-2 0-4-1-3-2m17 0l6-1 3 1-6 2c-2 0-4-1-3-2m17 0l6-1 3 1-6 2c-2 0-4-1-3-2m17 0l6-1 3 1-6 2c-2 0-4-1-3-2m17 0l6-1 3 1-6 2c-2 0-4-1-3-2m17 0l6-1 3 1-6 2c-2 0-4-1-3-2m17 0l6-1 3 1-6 2c-2 0-4-1-3-2m17 0l6-1 3 1-6 2c-2 0-4-1-3-2m17 0l6-1 3 1-6 2c-2 0-3-1-3-2m17 0l6-1 3 1-6 2c-2 0-3-1-3-2m17 0l6-1 3 1-6 2c-3 0-3-1-3-2m17 0l6-1 3 1-6 2c-2 0-3-1-3-2m17 0l6-1 3 1-6 2c-2 0-3-1-3-2m17 0l5-1 4 1-5 2c-3 0-4-1-4-2m17 0l5-1 4 1-5 2c-3 0-4-1-4-2m17 0l5-1 4 1-5 2c-3 0-4-1-4-2m322 0l5-1 4 1c0 1-2 2-5 2l-4-2m17 0l5-1 4 1c0 1-2 2-5 2l-4-2m17 0l5-1 4 1c0 1-2 2-5 2l-4-2m17 0l4-1 5 1-4 2c-3 0-5-1-5-2m17 0l4-1 5 1-4 2c-3 0-5-1-5-2m17 0l4-1 5 1-4 2c-3 0-5-1-5-2m16 0l4-1 5 1-4 2c-3 0-5-1-5-2m18 0l4-1 5 1-4 2c-3 0-5-1-5-2m16 0l4-1 5 1-4 2c-3 0-5-1-5-2m18 0l4-1 5 1-4 2c-3 0-5-1-5-2m68 0l4-1 5 1-4 2c-3 0-5-1-5-2m16 0l4-1 5 1-4 2-5-2m18 0l4-1 5 1c0 1-1 2-4 2l-5-2m16 0l4-1 5 1c0 1-1 2-4 2l-5-2m17 0l4-1 5 1c0 1-1 2-4 2l-5-2m17 0l4-1 5 1c0 1-1 2-4 2l-5-2m17 0l4-1 5 1c0 1-1 2-4 2l-5-2m17 0l4-1 5 1c0 1-1 2-4 2l-5-2m17 0l4-1 5 1c0 1-1 2-4 2l-5-2m18 0l4-1 5 1c0 1-1 2-4 2l-5-2m16 0l4-1 5 1c0 1-1 2-4 2l-5-2m18 0l4-1 5 1c0 1-1 2-4 2l-5-2m16 0l4-1 5 1c0 1-1 2-4 2l-5-2m18 0l4-1 5 1c0 1-1 2-4 2l-5-2m16 0l3-1 6 1c0 1-1 2-3 2l-6-2m18 0l3-1 6 1c0 1-1 2-3 2l-6-2m16 0l3-1 6 1c0 1-1 2-3 2l-6-2m17 0l3-1 6 1c0 1-1 2-3 2l-6-2m17 0l3-1 6 1c1 1-1 2-3 2l-6-2m17 0l3-1 6 1c1 1-1 2-3 2l-6-2m17 0l3-1 6 1c1 1-1 2-3 2l-6-2m17 0l3-1 6 1c1 1-1 2-3 2l-6-2m17 0l3-1 6 1c1 1-1 2-3 2l-6-2m17 0l3-1 6 1c1 1-1 2-3 2l-6-2m17 0l3-1 6 1c1 1-1 2-3 2l-6-2m17 0l3-1 6 1c1 1-1 2-3 2l-6-2m17 0l3-1 6 1c1 1-1 2-3 2l-6-2m17 0l3-1 6 1c1 1-1 2-3 2l-6-2m16 0l3-1 6 1c1 1-1 2-3 2l-6-2m18 0l3-1 6 1c1 1-1 2-3 2l-6-2m16 0l3-1 6 1c1 1-1 2-3 2l-6-2m34 0l3-1 7 1c1 1-1 2-3 2l-7-2m17 0l3-1 7 1c1 1-1 2-3 2l-7-2m-1449 7l7-1 3 1-7 2c-2 0-4-1-3-2m17 0l7-1 3 1-7 2c-3 0-4-1-3-2m17 0l7-1 3 1-7 2c-2 0-4-1-3-2m18 0l6-1 3 1-6 2c-2 0-4-1-3-2m17 0l6-1 3 1-6 2c-2 0-4-1-3-2m17 0l6-1 3 1-6 2c-2 0-4-1-3-2m17 0l6-1 3 1-6 2c-2 0-4-1-3-2m18 0l6-1 3 1-6 2c-2 0-4-1-3-2m16 0l6-1 3 1-6 2c-2 0-4-1-3-2m18 0l6-1 3 1-6 2c-2 0-4-1-3-2m17 0l6-1 3 1-6 2c-2 0-4-1-3-2m17 0l6-1 3 1-6 2c-2 0-4-1-3-2m17 0l6-1 3 1-6 2c-2 0-4-1-3-2m17 0l6-1 3 1-6 2c-2 0-4-1-3-2m17 0l6-1 3 1-6 2c-2 0-3-1-3-2m18 0l6-1 3 1-6 2c-3 0-3-1-3-2m16 0l6-1 3 1-6 2c-2 0-3-1-3-2m18 0l6-1 3 1-6 2c-2 0-3-1-3-2m34 0l5-1 4 1-5 2-4-2m291 0l5-1 4 1c0 1-2 2-5 2s-4-1-4-2m17 0l5-1 4 1c0 1-2 2-5 2l-4-2m18 0l5-1 4 1c0 1-2 2-5 2l-4-2m16 0l5-1 4 1c0 1-2 2-5 2l-4-2m18 0l5-1 4 1c0 1-2 2-5 2l-4-2m51 0l4-1 5 1-4 2c-3 0-5-1-5-2m34 0l4-1 5 1-4 2c-3 0-5-1-5-2m18 0l4-1 5 1-4 2c-3 0-5-1-5-2m16 0l4-1 5 1-4 2c-3 0-5-1-5-2m18 0l4-1 5 1-4 2c-3 0-5-1-5-2m17 0l4-1 5 1-4 2c-3 0-5-1-5-2m17 0l4-1 5 1-4 2c-3 0-5-1-5-2m17 0l4-1 5 1-4 2c-3 0-5-1-5-2m18 0l4-1 5 1-4 2c-3 0-5-1-5-2m16 0l4-1 5 1-4 2-5-2m18 0l4-1 5 1c0 1-1 2-4 2l-5-2m17 0l4-1 5 1c0 1-1 2-4 2l-5-2m17 0l4-1 5 1c0 1-1 2-4 2l-5-2m17 0l4-1 5 1c0 1-1 2-4 2l-5-2m18 0l4-1 5 1c0 1-1 2-4 2l-5-2m16 0l4-1 5 1c0 1-1 2-4 2l-5-2m18 0l4-1 5 1c0 1-1 2-4 2l-5-2m16 0l4-1 5 1c0 1-1 2-4 2l-5-2m18 0l4-1 5 1c0 1-1 2-4 2l-5-2m17 0l4-1 5 1c0 1-1 2-4 2l-5-2m17 0l4-1 5 1c0 1-1 2-4 2l-5-2m17 0l4-1 5 1c0 1-1 2-4 2l-5-2m17 0l3-1 6 1c0 1-1 2-3 2l-6-2m17 0l3-1 6 1c0 1-1 2-3 2l-6-2m17 0l3-1 6 1c0 1-1 2-3 2l-6-2m18 0l3-1 6 1c0 1-1 2-3 2l-6-2m16 0l3-1 6 1c1 1-1 2-3 2l-6-2m18 0l3-1 6 1c1 1-1 2-3 2l-6-2m17 0l3-1 6 1c1 1-1 2-3 2l-6-2m17 0l3-1 6 1c1 1-1 2-3 2l-6-2m17 0l3-1 6 1c1 1-1 2-3 2l-6-2m17 0l3-1 6 1c1 1-1 2-3 2l-6-2m17 0l3-1 6 1c1 1-1 2-3 2l-6-2m18 0l3-1 6 1c1 1-1 2-3 2l-6-2m16 0l3-1 6 1c1 1-1 2-3 2l-6-2m18 0l3-1 6 1c1 1-1 2-3 2l-6-2m17 0l3-1 6 1c1 1-1 2-3 2l-6-2m-1378 8l7-1 3 1-7 2c-2 0-4-1-3-2m17 0l7-1 3 1-7 2c-2 0-4-1-3-2m17 0l7-1 3 1-7 2c-2 0-4-1-3-2m18 0l7-1 3 1-7 2c-2 0-4-1-3-2m17 0l7-1 3 1-7 2c-2 0-4-1-3-2m18 0l7-1 3 1-7 2c-2 0-4-1-3-2m17 0l6-1 3 1-6 2c-2 0-4-1-3-2m18 0l6-1 3 1-6 2c-2 0-4-1-3-2m17 0l6-1 3 1-6 2c-2 0-4-1-3-2m18 0l6-1 3 1-6 2c-3 0-4-1-3-2m17 0l6-1 3 1-6 2c-2 0-4-1-3-2m17 0l6-1 3 1-6 2c-2 0-4-1-3-2m17 0l6-1 3 1-6 2c-2 0-4-1-3-2m17 0l6-1 3 1-6 2c-3 0-4-1-3-2m18 0l6-1 3 1-6 2c-2 0-3-1-3-2m17 0l6-1 3 1-6 2c-2 0-3-1-3-2m18 0l6-1 3 1-6 2c-2 0-3-1-3-2m16 0l6-1 3 1-6 2c-2 0-3-1-3-2m329 0l5-1 4 1c0 1-2 2-5 2l-4-2m18 0l5-1 4 1c0 1-2 2-5 2l-4-2m17 0l5-1 4 1c0 1-2 2-5 2l-4-2m17 0l5-1 4 1c0 1-2 2-5 2l-4-2m52 0l4-1 5 1-4 2c-3 0-5-1-5-2m35 0l4-1 5 1-4 2c-3 0-5-1-5-2m35 0l4-1 5 1-4 2c-3 0-5-1-5-2m34 0l4-1 5 1-4 2c-3 0-5-1-5-2m17 0l4-1 5 1-4 2c-3 0-5-1-5-2m18 0l4-1 5 1-4 2c-3 0-5-1-5-2m17 0l4-1 5 1-4 2c-3 0-5-1-5-2m17 0l4-1 5 1-4 2c-3 0-5-1-5-2m17 0l4-1 5 1-4 2-5-2m17 0l4-1 5 1c0 1-1 2-4 2l-5-2m18 0l4-1 5 1c0 1-1 2-4 2l-5-2m17 0l4-1 5 1c0 1-1 2-4 2l-5-2m18 0l4-1 5 1c0 1-1 2-4 2l-5-2m17 0l4-1 5 1c0 1-1 2-4 2l-5-2m18 0l4-1 5 1c0 1-1 2-4 2l-5-2m16 0l4-1 5 1c0 1-1 2-4 2l-5-2m18 0l4-1 5 1c0 1-1 2-4 2l-5-2m17 0l4-1 5 1c0 1-1 2-4 2l-5-2m17 0l4-1 5 1c0 1-1 2-4 2l-5-2m18 0l4-1 5 1c0 1-1 2-4 2l-5-2m17 0l4-1 5 1c0 1-1 2-3 2l-6-2m17 0l3-1 6 1c0 1-1 2-3 2l-6-2m17 0l3-1 6 1c0 1-1 2-3 2l-6-2m18 0l3-1 6 1c0 1-1 2-3 2l-6-2m17 0l3-1 6 1c0 1-1 2-3 2l-6-2m18 0l3-1 6 1c1 1-1 2-3 2l-6-2m17 0l3-1 6 1c1 1-1 2-3 2l-6-2m17 0l3-1 6 1c1 1-1 2-3 2l-6-2m17 0l3-1 6 1c1 1-1 2-3 2l-6-2m18 0l3-1 6 1c1 1-1 2-3 2l-6-2m17 0l3-1 6 1c1 1-1 2-3 2l-6-2m17 0l3-1 6 1c1 1-1 2-3 2l-6-2m18 0l3-1 6 1c1 1-1 2-3 2l-6-2m51 0l3-1 7 1c1 1-1 2-3 2l-7-2m69 0l3-1 7 1c1 1-1 2-3 2l-7-2m-1460 6l7-1 3 1-7 2c-2 0-4-1-3-2m18 0l7-1 3 1-7 2c-3 0-4-1-3-2m17 0l7-1 3 1-7 2c-2 0-4-1-3-2m18 0l7-1 3 1-7 2c-2 0-4-1-3-2m17 0l7-1 3 1-7 2c-2 0-4-1-3-2m18 0l7-1 3 1-7 2c-2 0-4-1-3-2m17 0l7-1 3 1-7 2c-3 0-4-1-3-2m17 0l7-1 3 1-7 2c-3 0-4-1-3-2m18 0l7-1 3 1-7 2c-2 0-4-1-3-2m17 0l7-1 3 1-7 2c-2 0-4-1-3-2m18 0l6-1 3 1-6 2c-2 0-4-1-3-2m17 0l6-1 3 1-6 2c-2 0-4-1-3-2m18 0l6-1 3 1-6 2c-2 0-4-1-3-2m17 0l6-1 3 1-6 2c-2 0-4-1-3-2m18 0l6-1 3 1-6 2c-2 0-3-1-3-2m18 0l6-1 3 1-6 2c-2 0-3-1-3-2m17 0l6-1 3 1-6 2c-2 0-3-1-3-2m367 0l5-1 4 1c0 1-2 2-5 2l-4-2m17 0l5-1 4 1c0 1-2 2-5 2l-4-2m105 0l4-1 5 1-4 2c-3 0-5-1-5-2m35 0l4-1 5 1-4 2c-3 0-5-1-5-2m35 0l4-1 5 1-4 2c-3 0-5-1-5-2m18 0l4-1 5 1-4 2c-3 0-5-1-5-2m17 0l4-1 5 1-4 2c-3 0-5-1-5-2m18 0l4-1 5 1-4 2c-3 0-5-1-5-2m17 0l4-1 5 1-4 2c-3 0-5-1-5-2m18 0l4-1 5 1-4 2-5-2m17 0l4-1 5 1c0 1-1 2-4 2l-5-2m17 0l4-1 5 1c0 1-1 2-4 2l-5-2m18 0l4-1 5 1c0 1-1 2-4 2l-5-2m17 0l4-1 5 1c0 1-1 2-4 2l-5-2m18 0l4-1 5 1c0 1-1 2-4 2l-5-2m17 0l4-1 5 1c0 1-1 2-4 2l-5-2m18 0l4-1 5 1c0 1-1 2-4 2l-5-2m17 0l4-1 5 1c0 1-1 2-4 2l-5-2m18 0l4-1 5 1c0 1-1 2-4 2l-5-2m17 0l4-1 5 1c0 1-1 2-4 2l-5-2m17 0l4-1 5 1c0 1-1 2-4 2l-5-2m18 0l3-1 6 1c0 1-1 2-3 2l-6-2m17 0l3-1 6 1c0 1-1 2-3 2l-6-2m18 0l3-1 6 1c0 1-1 2-3 2l-6-2m17 0l3-1 6 1c0 1-1 2-3 2l-6-2m18 0l3-1 6 1c0 1-1 2-3 2l-6-2m17 0l3-1 6 1c1 1-1 2-3 2l-6-2m17 0l3-1 6 1c1 1-1 2-3 2l-6-2m18 0l3-1 6 1c1 1-1 2-3 2l-6-2m17 0l3-1 6 1c1 1-1 2-3 2l-6-2m18 0l3-1 7 1c1 1-1 2-3 2l-7-2m17 0l3-1 7 1c1 1-1 2-3 2l-7-2m18 0l3-1 7 1c1 1-1 2-3 2l-7-2m17 0l3-1 7 1c1 1-1 2-3 2l-7-2m18 0l3-1 7 1c1 1-1 2-3 2l-7-2m34 0l3-1 7 1c1 1-1 2-3 2l-7-2m18 0l3-1 7 1c1 1-1 2-3 2l-7-2m35 0l3-1 7 1c1 1-1 2-3 2l-7-2m17 0l3-1 7 1c1 1-1 2-3 2l-7-2m-1474 8l7-1 3 1-7 2c-3 0-4-1-3-2m18 0l7-1 3 1-7 2c-2 0-4-1-3-2m17 0l7-1 3 1-7 2c-2 0-4-1-3-2m18 0l7-1 3 1-7 2c-2 0-4-1-3-2m17 0l7-1 3 1-7 2c-2 0-4-1-3-2m18 0l7-1 3 1-7 2c-2 0-4-1-3-2m18 0l7-1 3 1-7 2c-2 0-4-1-3-2m17 0l7-1 3 1-7 2c-3 0-4-1-3-2m18 0l7-1 3 1-7 2c-2 0-4-1-3-2m17 0l7-1 3 1-7 2c-2 0-4-1-3-2m19 0l6-1 4 1-6 2c-3 0-5-1-4-2m17 0l6-1 4 1-6 2c-3 0-5-1-4-2m17 0l6-1 4 1-6 2c-3 0-5-1-4-2m18 0l6-1 4 1-6 2c-3 0-5-1-4-2m18 0l6-1 3 1-6 2c-2 0-3-1-3-2m18 0l6-1 3 1-6 2c-2 0-3-1-3-2m406 0l5-1 4 1c0 1-2 2-5 2l-4-2m18 0l5-1 4 1c0 1-2 2-5 2l-4-2m17 0l5-1 4 1c0 1-2 2-5 2l-4-2m17 0l5-1 4 1c0 1-2 2-5 2l-4-2m18 0l4-1 5 1-4 2c-3 0-5-1-5-2m18 0l4-1 5 1-4 2c-3 0-5-1-5-2m123 0l4-1 5 1-4 2-5-2m18 0l4-1 5 1-4 2c-3 0-5-1-5-2m18 0l4-1 5 1-4 2-5-2m17 0l4-1 5 1-4 2-5-2m18 0l4-1 5 1c0 1-1 2-4 2l-5-2m17 0l4-1 5 1c0 1-1 2-4 2l-5-2m19 0l4-1 5 1c0 1-1 2-4 2l-5-2m17 0l4-1 5 1c0 1-1 2-4 2l-5-2m17 0l4-1 5 1c0 1-1 2-4 2l-5-2m18 0l4-1 5 1c0 1-1 2-4 2l-5-2m18 0l4-1 5 1c0 1-1 2-4 2l-5-2m18 0l4-1 5 1c0 1-1 2-4 2l-5-2m17 0l4-1 5 1c0 1-1 2-4 2l-5-2m17 0l4-1 5 1c0 1-1 2-4 2l-5-2m19 0l4-1 5 1c0 1-1 2-4 2l-5-2m17 0l3-1 6 1c0 1-1 2-3 2l-6-2m18 0l3-1 6 1c0 1-1 2-3 2l-6-2m17 0l3-1 6 1c0 1-1 2-3 2l-6-2m18 0l3-1 6 1c0 1-1 2-3 2l-6-2m18 0l3-1 6 1c0 1-1 2-3 2l-6-2m16 0l4-1 6 1c1 1-1 2-4 2l-6-2m19 0l4-1 6 1c1 1-1 2-4 2l-6-2m17 0l4-1 6 1c1 1-1 2-4 2l-6-2m18 0l4-1 6 1c1 1-1 2-4 2l-6-2m17 0l3-1 7 1c1 1-1 2-3 2l-7-2m18 0l3-1 7 1c1 1-1 2-3 2l-7-2m18 0l3-1 7 1c1 1-1 2-3 2l-7-2m17 0l3-1 7 1c1 1-1 2-3 2l-7-2m18 0l3-1 7 1c1 1-1 2-3 2l-7-2m70 0l3-1 7 1c1 1-1 2-3 2l-7-2m18 0l3-1 7 1c1 1-1 2-3 2l-7-2m-1471 7l7-1 3 1-7 2c-2 0-4-1-3-2m17 0l7-1 3 1-7 2c-3 0-4-1-3-2m18 0l7-1 3 1-7 2c-2 0-4-1-3-2m18 0l7-1 3 1-7 2c-2 0-4-1-3-2m18 0l7-1 3 1-7 2c-2 0-4-1-3-2m18 0l7-1 3 1-7 2c-2 0-4-1-3-2m17 0l7-1 3 1-7 2c-2 0-4-1-3-2m18 0l7-1 3 1-7 2c-2 0-4-1-3-2m18 0l7-1 3 1-7 2c-2 0-4-1-3-2m18 0l7-1 3 1-7 2c-2 0-4-1-3-2m17 0l7-1 3 1-7 2c-2 0-4-1-3-2m19 0l6-1 4 1-6 2c-3 0-5-1-4-2m17 0l6-1 4 1-6 2c-3 0-5-1-4-2m18 0l6-1 4 1-6 2c-3 0-5-1-4-2m18 0l6-1 4 1-6 2c-3 0-5-1-4-2m17 0l6-1 4 1-6 2c-3 0-5-1-4-2m393 0l5-1 4 1c0 1-2 2-5 2l-4-2m18 0l5-1 4 1c0 1-2 2-5 2l-4-2m18 0l5-1 4 1c0 1-2 2-5 2l-4-2m18 0l5-1 4 1c0 1-2 2-5 2l-4-2m17 0l5-1 4 1c0 1-2 2-5 2l-4-2m19 0l4-1 5 1-4 2c-3 0-5-1-5-2m17 0l4-1 5 1-4 2c-3 0-5-1-5-2m18 0l4-1 5 1-4 2-5-2m35 0l4-1 5 1-4 2c-3 0-5-1-5-2m19 0l4-1 5 1-4 2c-3 0-5-1-5-2m35 0l4-1 5 1-4 2c-3 0-5-1-5-2m18 0l4-1 5 1-4 2c-3 0-5-1-5-2m17 0l4-1 5 1-4 2c-3 0-5-1-5-2m19 0l4-1 5 1-4 2c-3 0-5-1-5-2m17 0l4-1 5 1-4 2-5-2m18 0l4-1 5 1c0 1-1 2-4 2l-5-2m18 0l4-1 5 1c0 1-1 2-4 2l-5-2m18 0l4-1 5 1c0 1-1 2-4 2l-5-2m18 0l4-1 5 1c0 1-1 2-4 2l-5-2m18 0l4-1 5 1c0 1-1 2-4 2l-5-2m17 0l4-1 5 1c0 1-1 2-4 2l-5-2m18 0l4-1 5 1c0 1-1 2-4 2l-5-2m18 0l4-1 5 1c0 1-1 2-4 2l-5-2m18 0l4-1 5 1c0 1-1 2-4 2l-5-2m18 0l4-1 5 1c0 1-1 2-4 2l-5-2m17 0l4-1 5 1c0 1-1 2-4 2l-5-2m19 0l3-1 6 1c0 1-1 2-3 2l-6-2m17 0l4-1 6 1c1 1-1 2-4 2l-6-2m17 0l4-1 6 1c1 1-1 2-4 2l-6-2m18 0l4-1 6 1c1 1-1 2-4 2l-6-2m18 0l4-1 6 1c1 1-1 2-4 2l-6-2m18 0l4-1 6 1c1 1-1 2-4 2l-6-2m18 0l4-1 6 1c1 1-1 2-4 2l-6-2m17 0l4-1 6 1c1 1-1 2-4 2l-6-2m19 0l3-1 7 1c1 1-1 2-3 2l-7-2m17 0l3-1 7 1c1 1-1 2-3 2l-7-2m18 0l3-1 7 1c1 1-1 2-3 2l-7-2m18 0l3-1 7 1c1 1-1 2-3 2l-7-2m17 0l3-1 7 1c1 1-1 2-3 2l-7-2m19 0l3-1 7 1c1 1-1 2-3 2l-7-2m17 0l3-1 7 1c1 1-1 2-3 2l-7-2m-1397 9l7-2c2 0 4 1 3 2l-7 2c-2 0-4-1-3-2m18 0l7-2c3 0 4 1 3 2l-7 2c-2 0-4-1-3-2m18 0l7-2c2 0 4 1 3 2l-7 2c-2 0-4-1-3-2m18 0l7-2c2 0 4 1 3 2l-7 2c-2 0-4-1-3-2m18 0l7-2c2 0 4 1 3 2l-7 2c-2 0-4-1-3-2m18 0l7-2c2 0 4 1 3 2l-7 2c-2 0-4-1-3-2m18 0l7-2c2 0 4 1 3 2l-7 2c-2 0-4-1-3-2m18 0l7-2c3 0 4 1 3 2l-7 2c-2 0-4-1-3-2m18 0l7-2c2 0 4 1 3 2l-7 2c-2 0-4-1-3-2m18 0l7-2c2 0 4 1 3 2l-7 2c-2 0-4-1-3-2m18 0l6-2c3 0 5 1 4 2l-6 2c-3 0-5-1-4-2m18 0l6-2c2 0 5 1 4 2l-6 2c-2 0-5-1-4-2m18 0l6-2c2 0 5 1 4 2l-6 2c-3 0-5-1-4-2m415 0c0-1 2-2 5-2l4 2c0 1-2 2-5 2l-4-2m17 0c0-1 2-2 5-2l4 2c0 1-2 2-5 2l-4-2m18 0c0-1 2-2 5-2l4 2c0 1-2 2-5 2l-4-2m19 0c0-1 2-2 5-2l4 2c0 1-2 2-5 2l-4-2m17 0c0-1 2-2 5-2l4 2c0 1-2 2-5 2s-4-1-4-2m18 0c0-1 2-2 5-2l4 2c0 1-2 2-5 2l-4-2m19 0l4-2c3 0 5 1 5 2l-4 2c-3 0-5-1-5-2m17 0l4-2c3 0 5 1 5 2l-4 2c-3 0-5-1-5-2m18 0l4-2c3 0 5 1 5 2l-4 2c-3 0-5-1-5-2m19 0l4-2c3 0 5 1 5 2l-4 2c-3 0-5-1-5-2m17 0l4-2c3 0 5 1 5 2l-4 2c-3 0-5-1-5-2m19 0l4-2c3 0 5 1 5 2l-4 2c-3 0-5-1-5-2m18 0l4-2c3 0 5 1 5 2l-4 2-5-2m17 0l4-2c3 0 5 1 5 2l-4 2c-3 0-5-1-5-2m19 0l4-2c3 0 5 1 5 2l-4 2c-3 0-5-1-5-2m17 0l4-2c3 0 5 1 5 2l-4 2c-3 0-5-1-5-2m18 0l4-2 5 2-4 2c-3 0-5-1-5-2m19 0l4-2 5 2c0 1-1 2-4 2l-5-2m17 0c0-1 1-2 4-2l5 2c0 1-1 2-4 2l-5-2m18 0c0-1 1-2 4-2l5 2c0 1-1 2-4 2l-5-2m19 0c0-1 1-2 4-2l5 2c0 1-1 2-4 2l-5-2m17 0c0-1 1-2 4-2l5 2c0 1-1 2-4 2s-5-1-5-2m18 0c0-1 1-2 4-2l5 2c0 1-1 2-4 2l-5-2m19 0c0-1 1-2 4-2l5 2c0 1-1 2-4 2l-5-2m17 0c0-1 1-2 4-2l5 2c0 1-1 2-4 2l-5-2m18 0c0-1 1-2 4-2l6 2c0 1-1 2-4 2l-6-2m18 0c0-1 1-2 4-2l6 2c0 1-1 2-4 2l-6-2m18 0c0-1 1-2 4-2l6 2c0 1-1 2-4 2l-6-2m18 0c0-1 1-2 4-2l6 2c0 1-1 2-4 2l-6-2m18 0c-1-1 1-2 4-2l6 2c1 1-1 2-4 2l-6-2m18 0c-1-1 1-2 4-2l6 2c1 1-1 2-4 2l-6-2m18 0c-1-1 1-2 4-2l6 2c1 1-1 2-4 2l-6-2m18 0c-1-1 1-2 4-2l6 2c1 1-1 2-4 2l-6-2m18 0c-1-1 1-2 4-2l6 2c1 1-1 2-4 2l-6-2m18 0c-1-1 1-2 4-2l6 2c1 1-1 2-4 2l-6-2m18 0c-1-1 1-2 4-2l6 2c1 1-1 2-4 2l-6-2m18 0c-1-1 1-2 4-2l6 2c1 1-1 2-4 2l-6-2m18 0c-1-1 1-2 3-2l7 2c1 1-1 2-3 2l-7-2m18 0c-1-1 1-2 3-2l7 2c1 1-1 2-3 2l-7-2m18 0c-1-1 1-2 3-2l7 2c1 1-1 2-3 2l-7-2m18 0c-1-1 1-2 3-2l7 2c1 1-1 2-3 2l-7-2m18 0c-1-1 1-2 3-2l7 2c1 1-1 2-3 2l-7-2m18 0c-1-1 1-2 3-2l7 2c1 1-1 2-3 2l-7-2m18 0c-1-1 1-2 3-2l7 2c1 1-1 2-3 2l-7-2m-1393 8l7-2c3 0 4 1 3 2l-7 2c-2 0-4-1-3-2m18 0l7-2c2 0 4 1 3 2l-7 2c-2 0-4-1-3-2m18 0l7-2c2 0 4 1 3 2l-7 2c-2 0-4-1-3-2m18 0l7-2c2 0 4 1 3 2l-7 2c-2 0-4-1-3-2m19 0l7-2c2 0 4 1 3 2l-7 2c-2 0-4-1-3-2m17 0l7-2c2 0 4 1 3 2l-7 2c-2 0-4-1-3-2m19 0l7-2c2 0 4 1 3 2l-7 2c-2 0-4-1-3-2m18 0l7-2c2 0 4 1 3 2l-7 2c-2 0-4-1-3-2m18 0l7-2c2 0 4 1 3 2l-7 2c-2 0-4-1-3-2m18 0l6-2c3 0 5 1 4 2l-6 2c-3 0-5-1-4-2m19 0l6-2c2 0 5 1 4 2l-6 2c-2 0-5-1-4-2m18 0l6-2c3 0 5 1 4 2l-6 2c-3 0-5-1-4-2m400 0c0-1 2-2 5-2l4 2c0 1-2 2-5 2l-4-2m19 0c0-1 2-2 5-2s4 1 4 2-2 2-5 2l-4-2m18 0c0-1 2-2 5-2l4 2c0 1-2 2-5 2s-4-1-4-2m17 0c0-1 2-2 5-2s4 1 4 2-2 2-5 2l-4-2m19 0c0-1 2-2 5-2l4 2c0 1-2 2-5 2l-4-2m18 0c0-1 2-2 5-2s4 1 4 2-2 2-5 2l-4-2m18 0c0-1 2-2 5-2l4 2c0 1-2 2-5 2l-4-2m19 0l4-2c3 0 5 1 5 2l-4 2c-3 0-5-1-5-2m18 0l4-2c3 0 5 1 5 2l-4 2c-3 0-5-1-5-2m17 0l4-2c3 0 5 1 5 2l-4 2c-3 0-5-1-5-2m19 0l4-2c3 0 5 1 5 2l-4 2c-3 0-5-1-5-2m18 0l4-2 5 2-4 2c-3 0-5-1-5-2m18 0l4-2c3 0 5 1 5 2l-4 2c-3 0-5-1-5-2m19 0l4-2 5 2-4 2c-3 0-5-1-5-2m18 0l4-2c3 0 5 1 5 2l-4 2c-3 0-5-1-5-2m18 0l4-2c3 0 5 1 5 2l-4 2c-3 0-5-1-5-2m18 0l4-2c3 0 5 1 5 2l-4 2c-3 0-5-1-5-2m18 0l4-2 5 2-4 2-5-2m18 0l4-2 5 2c0 1-1 2-4 2l-5-2m19 0l4-2 6 2-4 2-6-2m17 0l4-2 6 2-4 2-6-2m55 0c0-1 1-2 4-2l6 2c0 1-1 2-4 2l-6-2m18 0c0-1 1-2 4-2l6 2c0 1-1 2-4 2l-6-2m19 0c0-1 1-2 4-2l6 2c0 1-1 2-4 2l-6-2m17 0c0-1 1-2 4-2l6 2c0 1-1 2-4 2l-6-2m18 0c0-1 1-2 4-2l6 2c0 1-1 2-4 2l-6-2m19 0c0-1 1-2 4-2l6 2c0 1-1 2-4 2l-6-2m18 0c0-1 1-2 4-2l6 2c0 1-1 2-4 2l-6-2m18 0c-1-1 1-2 4-2l6 2c1 1-1 2-4 2l-6-2m19 0c-1-1 1-2 4-2l6 2c1 1-1 2-4 2l-6-2m18 0c-1-1 1-2 4-2l6 2c1 1-1 2-4 2l-6-2m17 0c-1-1 1-2 4-2l6 2c1 1-1 2-4 2l-6-2m19 0c-1-1 1-2 4-2l6 2c1 1-1 2-4 2l-6-2m18 0c-1-1 1-2 4-2l6 2c1 1-1 2-4 2l-6-2m18 0c-1-1 1-2 4-2l6 2c1 1-1 2-4 2l-6-2m19 0c-1-1 1-2 4-2l6 2c1 1-1 2-4 2l-6-2m18 0c-1-1 1-2 3-2l7 2c1 1-1 2-3 2l-7-2m18 0c-1-1 1-2 3-2l7 2c1 1-1 2-3 2l-7-2m18 0c-1-1 1-2 3-2l7 2c1 1-1 2-3 2l-7-2m18 0c-1-1 1-2 3-2l7 2c1 1-1 2-3 2l-7-2m18 0c-1-1 1-2 3-2l7 2c1 1-1 2-3 2l-7-2m19 0c-1-1 1-2 3-2l7 2c1 1-1 2-3 2l-7-2m-1389 8l7-2c2 0 4 1 3 2l-7 2c-2 0-4-1-3-2m18 0l7-2c2 0 4 1 3 2l-7 2c-3 0-4-1-3-2m18 0l7-2c2 0 4 1 3 2l-7 2c-2 0-4-1-3-2m18 0l7-2c2 0 4 1 3 2l-7 2c-2 0-4-1-3-2m19 0l7-2c2 0 4 1 3 2l-7 2c-3 0-4-1-3-2m18 0l7-2c2 0 4 1 3 2l-7 2c-2 0-4-1-3-2m18 0l7-2c2 0 4 1 3 2l-7 2c-2 0-4-1-3-2m92 0l6-2c3 0 5 1 4 2l-6 2c-3 0-5-1-4-2m405 0l5-2c3 0 5 1 5 2l-5 2c-3 0-5-1-5-2m18 0l5-2c3 0 5 1 5 2l-5 2-5-2m18 0c0-1 2-2 5-2s5 1 5 2-2 2-5 2-5-1-5-2m19 0c0-1 2-2 5-2s5 1 5 2-2 2-5 2-5-1-5-2m18 0c0-1 2-2 5-2s5 1 5 2-2 2-5 2-5-1-5-2m18 0c0-1 2-2 5-2s5 1 5 2-2 2-5 2-5-1-5-2m18 0c0-1 2-2 5-2s5 1 5 2-2 2-5 2-5-1-5-2m19 0c0-1 2-2 5-2s5 1 5 2-2 2-5 2-5-1-5-2m18 0c0-1 2-2 5-2s5 1 5 2-2 2-5 2-5-1-5-2m19 0c0-1 2-2 5-2s5 1 5 2-2 2-5 2-5-1-5-2m19 0c0-1 2-2 5-2s5 1 5 2-2 2-5 2-5-1-5-2m18 0c0-1 2-2 5-2s5 1 5 2-2 2-5 2-5-1-5-2m18 0c0-1 2-2 5-2l5 2c0 1-2 2-5 2l-5-2m19 0c0-1 2-2 5-2l5 2c0 1-2 2-5 2l-5-2m18 0c0-1 2-2 5-2l5 2c0 1-2 2-5 2l-5-2m18 0c0-1 2-2 5-2l5 2c0 1-2 2-5 2l-5-2m18 0c0-1 2-2 5-2l5 2c0 1-2 2-5 2l-5-2m19 0l4-2 6 2-4 2-6-2m18 0l4-2 6 2-4 2-6-2m18 0l4-2 6 2-4 2-6-2m19 0l4-2 6 2-4 2-6-2m18 0l4-2 6 2-4 2-6-2m18 0c0-1 1-2 4-2l6 2c0 1-1 2-4 2l-6-2m19 0c0-1 1-2 4-2l6 2c0 1-1 2-4 2l-6-2m74 0c0-1 1-2 4-2l6 2c0 1-1 2-4 2l-6-2m18 0c0-1 1-2 4-2l6 2c0 1-1 2-4 2l-6-2m18 0c0-1 1-2 4-2l6 2c0 1-1 2-4 2l-6-2m19 0c-1-1 1-2 4-2l6 2c1 1-1 2-4 2l-6-2m18 0c-1-1 1-2 4-2l6 2c1 1-1 2-4 2l-6-2m18 0c-1-1 1-2 4-2l6 2c1 1-1 2-4 2l-6-2m19 0c-1-1 1-2 4-2l6 2c1 1-1 2-4 2l-6-2m18 0c-1-1 1-2 4-2l6 2c1 1-1 2-4 2l-6-2m18 0c-1-1 1-2 4-2l6 2c1 1-1 2-4 2l-6-2m19 0c-1-1 1-2 4-2l6 2c1 1-1 2-4 2l-6-2m18 0c-1-1 1-2 4-2l6 2c1 1-1 2-3 2l-7-2m19 0c-1-1 1-2 3-2l7 2c1 1-1 2-3 2l-7-2m18 0c-1-1 1-2 3-2l7 2c1 1-1 2-3 2l-7-2m19 0c-1-1 1-2 3-2l7 2c1 1-1 2-3 2l-7-2m18 0c-1-1 1-2 3-2l7 2c1 1-1 2-3 2l-7-2m18 0c-1-1 1-2 3-2l7 2c1 1-1 2-3 2l-7-2m-1386 9l7-2c3 0 4 1 3 2l-7 2c-2 0-4-1-3-2m38 0l7-2c2 0 4 1 3 2l-7 2c-2 0-4-1-3-2m19 0l7-2c2 0 4 1 3 2l-7 2c-2 0-4-1-3-2m18 0l7-2c2 0 4 1 3 2l-7 2c-2 0-4-1-3-2m18 0l7-2c2 0 4 1 3 2l-7 2c-2 0-4-1-3-2m502 0l5-2c3 0 5 1 5 2l-5 2c-3 0-5-1-5-2m18 0l5-2c3 0 5 1 5 2l-5 2c-3 0-5-1-5-2m19 0l5-2c3 0 5 1 5 2l-5 2c-3 0-5-1-5-2m18 0c0-1 2-2 5-2s5 1 5 2-2 2-5 2-5-1-5-2m19 0c0-1 2-2 5-2s5 1 5 2-2 2-5 2-5-1-5-2m19 0c0-1 2-2 5-2s5 1 5 2-2 2-5 2-5-1-5-2m18 0c0-1 2-2 5-2s5 1 5 2-2 2-5 2-5-1-5-2m18 0c0-1 2-2 5-2s5 1 5 2-2 2-5 2-5-1-5-2m19 0c0-1 2-2 5-2s5 1 5 2-2 2-5 2-5-1-5-2m19 0c0-1 2-2 5-2s5 1 5 2-2 2-5 2-5-1-5-2m18 0c0-1 2-2 5-2s5 1 5 2-2 2-5 2-5-1-5-2m19 0c0-1 2-2 5-2s5 1 5 2-2 2-5 2-5-1-5-2m19 0c0-1 2-2 5-2s5 1 5 2-2 2-5 2-5-1-5-2m18 0c0-1 2-2 5-2l5 2c0 1-2 2-5 2l-5-2m18 0c0-1 2-2 5-2l5 2c0 1-2 2-5 2l-5-2m20 0c0-1 2-2 5-2l5 2c0 1-2 2-5 2l-5-2m18 0c0-1 2-2 5-2l5 2c0 1-2 2-5 2l-5-2m18 0c0-1 2-2 5-2l5 2c0 1-2 2-5 2l-5-2m19 0l4-2 6 2-4 2-6-2m19 0l4-2 6 2-4 2-6-2m18 0l4-2 6 2-4 2-6-2m18 0l4-2 6 2-4 2-6-2m20 0l4-2 6 2-4 2-6-2m18 0c0-1 1-2 4-2l6 2c0 1-1 2-4 2l-6-2m18 0c0-1 1-2 4-2l6 2c0 1-1 2-4 2l-6-2m18 0c0-1 1-2 4-2l6 2c0 1-1 2-4 2l-6-2m75 0c0-1 1-2 4-2l6 2c0 1-1 2-4 2l-6-2m19 0c0-1 1-2 4-2l6 2c1 1-1 2-4 2l-6-2m18 0c-1-1 1-2 4-2l6 2c1 1-1 2-4 2l-6-2m18 0c-1-1 1-2 4-2l6 2c1 1-1 2-4 2l-6-2m20 0c-1-1 1-2 4-2l6 2c1 1-1 2-4 2l-6-2m18 0c-1-1 1-2 4-2l6 2c1 1-1 2-4 2l-6-2m37 0c-1-1 1-2 4-2l6 2c1 1-1 2-4 2l-6-2m19 0c-1-1 1-2 4-2l6 2c1 1-1 2-4 2l-6-2m18 0c-1-1 1-2 3-2l7 2c1 1-1 2-3 2l-7-2m18 0c-1-1 1-2 3-2l7 2c1 1-1 2-3 2l-7-2m20 0c-1-1 1-2 3-2l7 2c1 1-1 2-3 2l-7-2m36 0c-1-1 1-2 3-2l7 2c1 1-1 2-3 2l-7-2m-1362 7l7-2c2 0 4 1 3 2l-7 2c-2 0-4-1-3-2m37 0l7-2c2 0 4 1 3 2l-7 2c-2 0-4-1-3-2m19 0l7-2c2 0 4 1 3 2l-7 2c-2 0-4-1-3-2m19 0l7-2c2 0 4 1 3 2l-7 2c-2 0-4-1-3-2m113 0l6-2c3 0 5 1 4 2l-6 2c-3 0-5-1-4-2m18 0l6-2c3 0 5 1 4 2l-6 2c-3 0-5-1-4-2m375 0l5-2c3 0 5 1 5 2l-5 2c-3 0-5-1-5-2m19 0l5-2c3 0 5 1 5 2l-5 2c-3 0-5-1-5-2m19 0l5-2c3 0 5 1 5 2l-5 2c-3 0-5-1-5-2m18 0c0-1 2-2 5-2s5 1 5 2-2 2-5 2-5-1-5-2m20 0c0-1 2-2 5-2s5 1 5 2-2 2-5 2-5-1-5-2m18 0c0-1 2-2 5-2s5 1 5 2-2 2-5 2-5-1-5-2m19 0c0-1 2-2 5-2s5 1 5 2-2 2-5 2-5-1-5-2m18 0c0-1 2-2 5-2s5 1 5 2-2 2-5 2-5-1-5-2m20 0c0-1 2-2 5-2s5 1 5 2-2 2-5 2-5-1-5-2m18 0c0-1 2-2 5-2s5 1 5 2-2 2-5 2-5-1-5-2m19 0c0-1 2-2 5-2s5 1 5 2-2 2-5 2-5-1-5-2m18 0c0-1 2-2 5-2s5 1 5 2-2 2-5 2-5-1-5-2m20 0c0-1 2-2 5-2s5 1 5 2-2 2-5 2-5-1-5-2m18 0c0-1 2-2 5-2l5 2c0 1-2 2-5 2l-5-2m19 0c0-1 2-2 5-2l5 2c0 1-2 2-5 2l-5-2m18 0c0-1 2-2 5-2l5 2c0 1-2 2-5 2l-5-2m20 0c0-1 2-2 5-2l5 2c0 1-2 2-5 2l-5-2m18 0c0-1 2-2 5-2l5 2c0 1-2 2-5 2l-5-2m19 0l4-2 6 2-4 2-6-2m18 0l4-2 6 2-4 2-6-2m20 0l4-2 6 2-4 2-6-2m18 0l4-2 6 2-4 2-6-2m19 0l4-2 6 2-4 2-6-2m18 0c0-1 1-2 4-2l6 2c0 1-1 2-4 2l-6-2m20 0c0-1 1-2 4-2l6 2c0 1-1 2-4 2l-6-2m112 0c0-1 1-2 4-2l6 2c1 1-1 2-4 2l-6-2m18 0c-1-1 1-2 4-2l6 2c1 1-1 2-4 2l-6-2m20 0c-1-1 1-2 4-2l6 2c1 1-1 2-4 2l-6-2m18 0c-1-1 1-2 4-2l6 2c1 1-1 2-4 2l-6-2m76 0c-1-1 1-2 4-2l6 2c1 1-1 2-4 2l-6-2m18 0c-1-1 1-2 3-2l7 2c1 1-1 2-3 2l-7-2m19 0c-1-1 1-2 3-2l7 2c1 1-1 2-3 2l-7-2m19 0c-1-1 1-2 3-2l7 2c1 1-1 2-3 2l-7-2m113 0c-1-1 1-2 3-2l7 2c1 1-1 2-3 2l-7-2m-1415 9l7-2c3 0 4 1 3 2l-7 2c-2 0-4-1-3-2m18 0l7-2c2 0 4 1 3 2l-7 2c-2 0-4-1-3-2m20 0l7-2c2 0 4 1 3 2l-7 2c-2 0-4-1-3-2m57 0l7-2c2 0 4 1 3 2l-7 2c-2 0-4-1-3-2m19 0l7-2c3 0 4 1 3 2l-7 2c-2 0-4-1-3-2m57 0l6-2c3 0 5 1 4 2l-6 2c-3 0-5-1-4-2m37 0l6-2c2 0 5 1 4 2l-6 2c-3 0-5-1-4-2m342 0l5-2c3 0 5 1 5 2l-5 2c-3 0-5-1-5-2m19 0l5-2c3 0 5 1 5 2l-5 2c-3 0-5-1-5-2m18 0l5-2c3 0 5 1 5 2l-5 2c-3 0-5-1-5-2m20 0c0-1 2-2 5-2s5 1 5 2-2 2-5 2-5-1-5-2m19 0c0-1 2-2 5-2s5 1 5 2-2 2-5 2-5-1-5-2m18 0c0-1 2-2 5-2s5 1 5 2-2 2-5 2-5-1-5-2m19 0c0-1 2-2 5-2s5 1 5 2-2 2-5 2-5-1-5-2m19 0c0-1 2-2 5-2s5 1 5 2-2 2-5 2-5-1-5-2m20 0c0-1 2-2 5-2s5 1 5 2-2 2-5 2-5-1-5-2m18 0c0-1 2-2 5-2s5 1 5 2-2 2-5 2-5-1-5-2m19 0c0-1 2-2 5-2s5 1 5 2-2 2-5 2-5-1-5-2m19 0c0-1 2-2 5-2s5 1 5 2-2 2-5 2-5-1-5-2m20 0c0-1 2-2 5-2s5 1 5 2-2 2-5 2-5-1-5-2m18 0c0-1 2-2 5-2l5 2c0 1-2 2-5 2l-5-2m19 0c0-1 2-2 5-2l5 2c0 1-2 2-5 2l-5-2m19 0c0-1 2-2 5-2l5 2c0 1-2 2-5 2l-5-2m19 0c0-1 2-2 5-2l5 2c0 1-2 2-5 2l-5-2m19 0l4-2 6 2-4 2-6-2m19 0l4-2 6 2-4 2-6-2m19 0l4-2 6 2-4 2-6-2m19 0l4-2 6 2-4 2-6-2m19 0l4-2 6 2-4 2-6-2m19 0l4-2 6 2-4 2-6-2m19 0c0-1 1-2 4-2l6 2c0 1-1 2-4 2l-6-2m132 0c-1-1 1-2 4-2l6 2c1 1-1 2-4 2l-6-2m20 0c-1-1 1-2 4-2l6 2c1 1-1 2-4 2l-6-2m19 0c-1-1 1-2 4-2l6 2c1 1-1 2-4 2l-6-2m94 0c-1-1 1-2 3-2l7 2c1 1-1 2-3 2l-7-2m19 0c-1-1 1-2 3-2l7 2c1 1-1 2-3 2l-7-2m19 0c-1-1 1-2 3-2l7 2c1 1-1 2-3 2l-7-2m19 0c-1-1 1-2 3-2l7 2c1 1-1 2-3 2l-7-2m19 0c-1-1 1-2 3-2l7 2c1 1-1 2-3 2l-7-2m20 0c-1-1 1-2 3-2l7 2c1 1-1 2-3 2l-7-2m75 0c-1-1 1-2 3-2l7 2c1 1-1 2-3 2l-7-2m-1430 9l7-2c2 0 4 1 3 2l-7 2c-3 0-4-1-3-2m19 0l7-2c2 0 4 1 3 2l-7 2c-3 0-4-1-3-2m20 0l7-2c3 0 4 1 3 2l-7 2c-2 0-4-1-3-2m19 0l7-2c2 0 4 1 3 2l-7 2c-2 0-4-1-3-2m38 0l7-2c2 0 4 1 3 2l-7 2c-2 0-4-1-3-2m76 0l6-2c2 0 5 1 4 2l-6 2c-3 0-5-1-4-2m39 0l6-2c3 0 5 1 4 2l-6 2c-3 0-5-1-4-2m19 0l6-2c3 0 5 1 4 2l-6 2c-3 0-5-1-4-2m326 0l5-2 5 2-5 2c-3 0-5-1-5-2m19 0l5-2c3 0 5 1 5 2l-5 2c-3 0-5-1-5-2m20 0l5-2 5 2-5 2c-3 0-5-1-5-2m19 0c0-1 2-2 5-2s5 1 5 2-2 2-5 2-5-1-5-2m19 0c0-1 2-2 5-2s5 1 5 2-2 2-5 2-5-1-5-2m19 0c0-1 2-2 5-2s5 1 5 2-2 2-5 2-5-1-5-2m19 0c0-1 2-2 5-2s5 1 5 2-2 2-5 2-5-1-5-2m19 0c0-1 2-2 5-2s5 1 5 2-2 2-5 2-5-1-5-2m20 0c0-1 2-2 5-2s5 1 5 2-2 2-5 2-5-1-5-2m19 0c0-1 2-2 5-2s5 1 5 2-2 2-5 2-5-1-5-2m19 0c0-1 2-2 5-2s5 1 5 2-2 2-5 2-5-1-5-2m19 0c0-1 2-2 5-2s5 1 5 2-2 2-5 2-5-1-5-2m19 0c0-1 2-2 5-2s5 1 5 2-2 2-5 2-5-1-5-2m20 0c0-1 2-2 5-2l5 2c0 1-2 2-5 2l-5-2m19 0c0-1 2-2 5-2l5 2c0 1-2 2-5 2l-5-2m19 0c0-1 2-2 5-2s5 1 5 2-2 2-5 2l-5-2m19 0c0-1 2-2 5-2l5 2c0 1-2 2-5 2l-5-2m19 0l4-2 6 2-4 2-6-2m20 0l4-2 6 2-4 2-6-2m19 0l4-2 6 2-4 2-6-2m19 0l4-2 6 2-4 2-6-2m19 0l4-2 6 2-4 2-6-2m191 0c-1-1 1-2 4-2l6 2c1 1-1 2-4 2l-6-2m19 0c-1-1 1-2 4-2l6 2c1 1-1 2-4 2l-6-2m135 0c-1-1 1-2 3-2l7 2c1 1-1 2-3 2l-7-2m19 0c-1-1 1-2 3-2l7 2c1 1-1 2-3 2l-7-2m19 0c-1-1 1-2 3-2l7 2c1 1-1 2-3 2l-7-2m19 0c-1-1 1-2 3-2l7 2c1 1-1 2-3 2l-7-2m96 0c-1-1 1-2 3-2l7 2c1 1 0 2-3 2l-7-2m-1445 9l7-2c2 0 4 1 3 2l-7 2c-2 0-4-1-3-2m20 0l7-2c3 0 4 1 3 2l-7 2c-2 0-4-1-3-2m19 0l7-2c3 0 4 1 3 2l-7 2c-2 0-4-1-3-2m19 0l7-2c2 0 4 1 3 2l-7 2c-3 0-4-1-3-2m19 0l7-2c2 0 4 1 3 2l-7 2c-2 0-4-1-3-2m465 0l5-2c3 0 5 1 5 2l-5 2c-3 0-5-1-5-2m20 0l5-2c3 0 5 1 5 2l-5 2c-3 0-5-1-5-2m20 0l5-2c3 0 5 1 5 2l-5 2c-3 0-5-1-5-2m19 0l5-2c3 0 5 1 5 2s-2 2-5 2-5-1-5-2m19 0c0-1 2-2 5-2s5 1 5 2-2 2-5 2-5-1-5-2m19 0c0-1 2-2 5-2s5 1 5 2-2 2-5 2-5-1-5-2m20 0c0-1 2-2 5-2s5 1 5 2-2 2-5 2-5-1-5-2m19 0c0-1 2-2 5-2s5 1 5 2-2 2-5 2-5-1-5-2m20 0c0-1 2-2 5-2s5 1 5 2-2 2-5 2-5-1-5-2m19 0c0-1 2-2 5-2s5 1 5 2-2 2-5 2-5-1-5-2m19 0c0-1 2-2 5-2s5 1 5 2-2 2-5 2-5-1-5-2m20 0c0-1 2-2 5-2s5 1 5 2-2 2-5 2-5-1-5-2m19 0c0-1 2-2 5-2s5 1 5 2-2 2-5 2-5-1-5-2m19 0c0-1 2-2 5-2l5 2c0 1-2 2-5 2l-5-2m20 0c0-1 2-2 5-2l5 2c0 1-2 2-5 2l-5-2m19 0c0-1 2-2 5-2l5 2c0 1-2 2-5 2l-5-2m20 0c0-1 2-2 5-2l5 2c0 1-2 2-5 2l-5-2m19 0l4-2 6 2-4 2-6-2m19 0l4-2 6 2-4 2-6-2m19 0l4-2 6 2-4 2-6-2m20 0l4-2 6 2-4 2-6-2m20 0l4-2 6 2-4 2-6-2m19 0c0-1 1-2 4-2l6 2c0 1-1 2-4 2l-6-2m174 0c-1-1 1-2 4-2l6 2c1 1-1 2-4 2l-6-2m20 0c-1-1 1-2 4-2l6 2c1 1-1 2-4 2l-6-2m19 0c-1-1 1-2 4-2l6 2c1 1-1 2-4 2l-6-2m116 0c-1-1 1-2 3-2l7 2c1 1-1 2-3 2l-7-2m39 0c-1-1 1-2 3-2l7 2c1 1-1 2-3 2l-7-2m116 0c-1-1 0-2 3-2l7 2c1 1 0 2-3 2l-7-2m19 0c-1-1 0-2 3-2l7 2c1 1 0 2-3 2l-7-2m-1421 9l7-2c2 0 4 1 3 2l-7 2c-2 0-4-1-3-2m20 0l7-2c3 0 4 1 3 2l-7 2c-2 0-4-1-3-2m19 0l7-2c2 0 4 1 3 2l-7 2c-2 0-4-1-3-2m20 0l7-2c2 0 4 1 3 2l-7 2c-2 0-4-1-3-2m79 0l6-2c3 0 5 1 4 2l-6 2c-3 0-5-1-4-2m372 0l5-2c3 0 5 1 5 2l-5 2-5-2m19 0l5-2c3 0 5 1 5 2l-5 2c-3 0-5-1-5-2m20 0c0-1 2-2 5-2s5 1 5 2-2 2-5 2-5-1-5-2m19 0c0-1 2-2 5-2s5 1 5 2-2 2-5 2-5-1-5-2m20 0c0-1 2-2 5-2s5 1 5 2-2 2-5 2-5-1-5-2m19 0c0-1 2-2 5-2s5 1 5 2-2 2-5 2-5-1-5-2m20 0c0-1 2-2 5-2s5 1 5 2-2 2-5 2-5-1-5-2m20 0c0-1 2-2 5-2s5 1 5 2-2 2-5 2-5-1-5-2m20 0c0-1 2-2 5-2s5 1 5 2-2 2-5 2-5-1-5-2m19 0c0-1 2-2 5-2s5 1 5 2-2 2-5 2-5-1-5-2m19 0c0-1 2-2 5-2s5 1 5 2-2 2-5 2-5-1-5-2m20 0c0-1 2-2 5-2s5 1 5 2-2 2-5 2-5-1-5-2m19 0c0-1 2-2 5-2l5 2c0 1-2 2-5 2l-5-2m20 0c0-1 2-2 5-2l5 2c0 1-2 2-5 2l-5-2m20 0c0-1 2-2 5-2l5 2c0 1-2 2-5 2l-5-2m20 0c0-1 2-2 5-2l5 2c0 1-2 2-5 2l-5-2m19 0l4-2 6 2-4 2-6-2m20 0l4-2 6 2-4 2-6-2m19 0l4-2 6 2-4 2-6-2m20 0l4-2 6 2-4 2-6-2m19 0l4-2 6 2-4 2-6-2m20 0c0-1 1-2 4-2l6 2c0 1-1 2-4 2l-6-2m215 0c-1-1 1-2 4-2l6 2c1 1-1 2-4 2l-6-2m99 0c-1-1 1-2 3-2l7 2c1 1-1 2-3 2l-7-2m38 0c-1-1 1-2 3-2l7 2c1 1-1 2-3 2l-7-2m79 0c-1-1 1-2 3-2l7 2c1 1-1 2-3 2l-7-2m20 0c-1-1 1-2 3-2l7 2c1 1-1 2-3 2l-7-2m19 0c-1-1 1-2 3-2l7 2c1 1 0 2-3 2l-7-2m39 0c-1-1 0-2 3-2l7 2c1 1 0 2-3 2l-7-2M303 251l7-2c2 0 4 1 3 2l-7 2c-2 0-4-1-3-2m79 0l6-2c3 0 5 1 4 2l-6 2c-2 0-5-1-4-2m40 0l6-2c3 0 5 1 4 2l-6 2c-3 0-5-1-4-2m20 0l6-2c2 0 5 1 4 2l-6 2c-3 0-5-1-4-2m19 0l6-2c3 0 5 1 4 2l-6 2c-3 0-5-1-4-2m317 0l5-2 5 2-5 2c-3 0-5-1-5-2m20 0l5-2c3 0 5 1 5 2l-5 2c-3 0-5-1-5-2m20 0c0-1 2-2 5-2s5 1 5 2-2 2-5 2-5-1-5-2m19 0c0-1 2-2 5-2s5 1 5 2-2 2-5 2-5-1-5-2m20 0c0-1 2-2 5-2s5 1 5 2-2 2-5 2-5-1-5-2m20 0c0-1 2-2 5-2s5 1 5 2-2 2-5 2-5-1-5-2m20 0c0-1 2-2 5-2s5 1 5 2-2 2-5 2-5-1-5-2m20 0c0-1 2-2 5-2s5 1 5 2-2 2-5 2-5-1-5-2m20 0c0-1 2-2 5-2s5 1 5 2-2 2-5 2-5-1-5-2m20 0c0-1 2-2 5-2s5 1 5 2-2 2-5 2-5-1-5-2m19 0c0-1 2-2 5-2s5 1 5 2-2 2-5 2-5-1-5-2m20 0c0-1 2-2 5-2l5 2c0 1-2 2-5 2s-5-1-5-2m20 0c0-1 2-2 5-2l5 2c0 1-2 2-5 2l-5-2m20 0c0-1 2-2 5-2l5 2c0 1-2 2-5 2l-5-2m19 0c0-1 2-2 5-2l5 2c0 1-2 2-5 2l-5-2m20 0c0-1 2-2 5-2l5 2c0 1-2 2-5 2l-5-2m20 0l4-2 6 2-4 2-6-2m20 0l4-2 6 2-4 2-6-2m20 0l4-2 6 2-4 2-6-2m20 0l4-2 6 2-4 2-6-2m20 0l4-2 6 2-4 2-6-2m19 0c0-1 1-2 4-2l6 2c0 1-1 2-4 2l-6-2m317 0c-1-1 1-2 3-2l7 2c1 1-1 2-3 2l-7-2m20 0c-1-1 1-2 3-2l7 2c1 1-1 2-3 2l-7-2m39 0c-1-1 1-2 3-2l7 2c1 1-1 2-3 2l-7-2m40 0c-1-1 1-2 3-2l7 2c1 1-1 2-3 2l-7-2m20 0c-1-1 1-2 3-2l7 2c1 1-1 2-3 2l-7-2m20 0c-1-1 1-2 3-2l7 2c1 1-1 2-3 2l-7-2m-1334 9l7-2c2 0 4 1 3 2-1 2-4 3-7 3-2 0-4-1-3-3m20 0l7-2c2 0 4 1 3 2-1 2-4 3-7 3-2 0-4-1-3-3m20 0l6-2c2 0 5 1 4 2-1 2-4 3-6 3s-5-1-4-3m20 0l6-2c3 0 5 1 4 2-1 2-4 3-6 3-3 0-5-1-4-3m20 0l6-2c3 0 5 1 4 2-1 2-4 3-6 3-3 0-5-1-4-3m21 0l6-2c3 0 5 1 4 2-1 2-4 3-6 3-3 0-5-1-4-3m20 0l6-2c2 0 5 1 4 2-1 2-4 3-6 3s-5-1-4-3m20 0l6-2c3 0 5 1 4 2-1 2-4 3-6 3-3 0-5-1-4-3m19 0l6-2c3 0 5 1 4 2-1 2-3 3-6 3s-5-1-4-3m340 0l5-2c3 0 5 1 5 2 0 2-2 3-5 3s-5-1-5-3m20 0c0-1 2-2 5-2s5 1 5 2c0 2-2 3-5 3s-5-1-5-3m20 0c0-1 2-2 5-2s5 1 5 2c0 2-2 3-5 3s-5-1-5-3m61 0c0-1 2-2 5-2s5 1 5 2c0 2-2 3-5 3s-5-1-5-3m20 0c0-1 2-2 5-2s5 1 5 2c0 2-2 3-5 3s-5-1-5-3m20 0c0-1 2-2 5-2s5 1 5 2c0 2-2 3-5 3s-5-1-5-3m20 0c0-1 2-2 5-2s5 1 5 2c0 2-2 3-5 3s-5-1-5-3m20 0c0-1 2-2 5-2s5 1 5 2c0 2-2 3-5 3s-5-1-5-3m20 0c0-1 2-2 5-2l5 2c0 2-2 3-5 3-2 0-5-1-5-3m20 0c0-1 2-2 5-2l5 2c0 2-2 3-5 3-2 0-5-1-5-3m20 0c0-1 2-2 5-2l5 2c0 2-2 3-5 3-2 0-5-1-5-3m21 0c0-1 2-2 5-2l5 2c0 2-2 3-5 3-2 0-5-1-5-3m20 0l4-2 6 2c0 2-2 3-4 3-3 0-6-1-6-3m20 0l4-2 6 2c0 2-2 3-4 3-3 0-6-1-6-3m20 0l4-2 6 2c0 2-2 3-4 3-3 0-6-1-6-3m20 0l4-2 6 2c0 2-2 3-4 3-3 0-6-1-6-3m19 0l4-2 6 2c0 2-2 3-4 3-3 0-6-1-6-3m361 0c-1-1 1-2 3-2l7 2c1 2-1 3-3 3-3 0-6-1-7-3m20 0c-1-1 1-2 3-2l7 2c1 2-1 3-3 3-3 0-6-1-7-3m20 0c-1-1 1-2 3-2l7 2c1 2-1 3-3 3-3 0-6-1-7-3m40 0c-1-1 1-2 3-2l7 2c1 2-1 3-3 3-3 0-6-1-7-3m20 0c-1-1 1-2 3-2l7 2c1 2-1 3-3 3-3 0-6-1-7-3m20 0c-1-1 1-2 3-2l7 2c1 2-1 3-3 3-3 0-6-1-7-3m39 0c-1-1 0-2 3-2l8 2c1 2 0 3-3 3s-6-1-8-3m21 0c-1-1 0-2 3-2l7 2c2 2 1 3-2 3s-6-1-8-3m21 0c-2-1-1-2 2-2l7 2c2 2 1 3-2 3s-6-1-7-3m40 0c-2-1-1-2 2-2l7 2c2 2 1 3-2 3s-6-1-7-3m40 0c-2-1-1-2 2-2l7 2c2 2 1 3-2 3s-6-1-7-3M349 270l6-2c3 0 5 1 4 2-1 2-4 3-6 3-3 0-5-1-4-3m21 0l6-2c3 0 5 1 4 2-1 2-4 3-6 3-3 0-5-1-4-3m20 0l6-2c3 0 5 1 4 2-1 2-4 3-6 3s-5-1-4-3m20 0l6-2c3 0 5 1 4 2-1 2-4 3-6 3-3 0-5-1-4-3m21 0l6-2c3 0 5 1 4 2-1 2-4 3-6 3-3 0-5-1-4-3m20 0l6-2c3 0 5 1 4 2-1 2-4 3-6 3-3 0-5-1-4-3m20 0l6-2c3 0 5 1 4 2-1 2-4 3-6 3-3 0-5-1-4-3m21 0l6-2c3 0 4 1 4 2-1 2-3 3-6 3s-5-1-4-3m20 0l6-2c3 0 4 1 4 2-1 2-3 3-6 3s-4-1-4-3m425 0c0-1 2-2 5-2s5 1 5 2c0 2-2 3-5 3s-5-1-5-3m20 0c0-1 2-2 5-2s5 1 5 2c0 2-2 3-5 3s-5-1-5-3m21 0c0-1 2-2 5-2s5 1 5 2c0 2-2 3-5 3s-5-1-5-3m20 0c0-1 2-2 5-2l5 2c0 2-2 3-5 3s-5-1-5-3m20 0c0-1 2-2 5-2l5 2c0 2-2 3-5 3-2 0-5-1-5-3m20 0c0-1 2-2 5-2l5 2c0 2-2 3-5 3-2 0-5-1-5-3m21 0c0-1 2-2 5-2s5 1 5 2c0 2-2 3-5 3-2 0-5-1-5-3m20 0c0-1 2-2 5-2l5 2c0 2-2 3-5 3-2 0-5-1-5-3m20 0l4-2 6 2c0 2-2 3-4 3-3 0-6-1-6-3m20 0l4-2 6 2c0 2-2 3-4 3-3 0-6-1-6-3m21 0l4-2 6 2c0 2-2 3-4 3-3 0-6-1-6-3m20 0l4-2 6 2c0 2-2 3-4 3-3 0-6-1-6-3m405 0c-1-1 1-2 3-2l7 2c1 2-1 3-3 3-3 0-6-1-7-3m21 0c-1-1 1-2 3-2l7 2c1 2-1 3-3 3-3 0-6-1-7-3m60 0c-1-1 1-2 3-2l8 2c1 2-1 3-3 3-3 0-6-1-8-3m20 0c-1-1 1-2 3-2l8 2c1 2-1 3-3 3-3 0-6-1-8-3m41 0c-1-1 0-2 3-2l8 2c1 2 0 3-3 3s-6-1-8-3m61 0c-2-1-1-2 2-2l7 2c2 2 1 3-2 3s-6-1-7-3m41 0c-2-1-1-2 2-2l7 2c2 2 1 3-2 3s-6-1-7-3m20 0c-2-1-1-2 2-2l7 2c2 2 1 3-2 3s-6-1-7-3m20 0c-2-1-1-2 2-2l7 2c2 2 1 3-2 3s-6-1-7-3m20 0c-2-1-1-2 2-2l7 2c2 2 1 3-2 3s-6-1-7-3m21 0c-2-1-1-2 2-2l7 2c2 2 1 3-2 3-2 0-6-1-7-3m40 0c-2-1-1-2 2-2l7 2c2 2 1 3-2 3l-7-3M343 280l7-2c2 0 4 1 3 2-1 2-4 3-7 3-2 0-4-1-3-3m21 0l6-2c3 0 5 1 4 2-1 2-4 3-6 3-3 0-5-1-4-3m20 0l6-2c3 0 5 1 4 2-1 2-4 3-6 3-3 0-5-1-4-3m21 0l6-2c3 0 5 1 4 2-1 2-4 3-6 3-3 0-5-1-4-3m20 0l6-2c3 0 5 1 4 2-1 2-4 3-6 3-3 0-5-1-4-3m21 0l6-2c3 0 5 1 4 2-1 2-4 3-6 3-3 0-5-1-4-3m20 0l6-2c3 0 5 1 4 2-1 2-4 3-6 3-3 0-5-1-4-3m21 0l6-2c3 0 4 1 4 2-1 2-3 3-6 3s-5-1-4-3m20 0l6-2c3 0 4 1 4 2-1 2-3 3-6 3s-4-1-4-3m431 0c0-1 2-2 5-2s5 1 5 2c0 2-2 3-5 3s-5-1-5-3m20 0c0-1 2-2 5-2s5 1 5 2c0 2-2 3-5 3s-5-1-5-3m21 0c0-1 2-2 5-2s5 1 5 2c0 2-2 3-5 3s-5-1-5-3m20 0c0-1 2-2 5-2l5 2c0 2-2 3-5 3s-5-1-5-3m21 0c0-1 2-2 5-2l5 2c0 2-2 3-5 3-2 0-5-1-5-3m20 0c0-1 2-2 5-2l5 2c0 2-2 3-5 3-2 0-5-1-5-3m21 0c0-1 2-2 5-2l5 2c0 2-2 3-5 3-2 0-5-1-5-3m20 0c0-1 2-2 5-2l5 2c0 2-2 3-5 3-2 0-5-1-5-3m21 0l4-2 6 2c0 2-2 3-4 3-3 0-6-1-6-3m20 0l4-2 6 2c0 2-2 3-4 3-3 0-6-1-6-3m21 0l4-2 6 2c0 2-2 3-4 3-3 0-6-1-6-3m450 0c-1-1 1-2 4-2l7 2c1 2-1 3-4 3l-7-3m123 0c-1-1 0-2 3-2l7 2c2 2 1 3-2 3s-6-1-8-3m22 0c-2-1-1-2 2-2l7 2c2 2 1 3-2 3s-6-1-7-3m123 0c-2-1-1-2 2-2l7 2c2 2 1 3-2 3s-6-1-7-3m20 0c-2-1-1-2 2-2l7 2c2 2 1 3-2 3s-6-1-7-3m21 0c-2-1-1-2 2-2l7 2c2 2 1 3-2 3-2 0-6-1-7-3M315 290l7-2c3 0 5 1 4 2-1 2-4 3-7 3s-5-1-4-3m22 0l7-2c2 0 4 1 3 2-1 2-4 3-7 3-2 0-4-1-3-3m20 0l6-2c3 0 5 1 4 2-1 2-4 3-6 3-3 0-5-1-4-3m21 0l6-2c3 0 5 1 4 2-1 2-4 3-6 3-3 0-5-1-4-3m21 0l6-2c3 0 5 1 4 2-1 2-4 3-6 3-3 0-5-1-4-3m21 0l6-2c3 0 5 1 4 2-1 2-4 3-6 3-3 0-5-1-4-3m20 0l6-2c3 0 5 1 4 2-1 2-4 3-6 3-3 0-5-1-4-3m21 0l6-2c3 0 5 1 4 2-1 2-4 3-6 3-3 0-5-1-4-3m21 0l6-2c3 0 4 1 4 2-1 2-3 3-6 3s-5-1-4-3m21 0l6-2c3 0 4 1 4 2-1 2-3 3-6 3s-4-1-4-3m20 0l6-2c3 0 4 1 4 2-1 2-3 3-6 3s-4-1-4-3m21 0l6-2c3 0 4 1 4 2-1 2-3 3-6 3s-4-1-4-3m415 0c0-1 2-2 5-2s5 1 5 2c0 2-2 3-5 3s-5-1-5-3m21 0c0-1 2-2 5-2s5 1 5 2c0 2-2 3-5 3s-5-1-5-3m20 0c0-1 2-2 5-2s5 1 5 2c0 2-2 3-5 3s-5-1-5-3m21 0c0-1 2-2 5-2l5 2c0 2-2 3-5 3-2 0-5-1-5-3m21 0c0-1 2-2 5-2l5 2c0 2-2 3-5 3-2 0-5-1-5-3m21 0c0-1 2-2 5-2l5 2c0 2-2 3-5 3-2 0-5-1-5-3m20 0c0-1 2-2 5-2l5 2c0 2-2 3-5 3-2 0-5-1-5-3m21 0l4-2 6 2c0 2-2 3-4 3-3 0-6-1-6-3m21 0l4-2 6 2c0 2-2 3-4 3-3 0-6-1-6-3m21 0l4-2 6 2c0 2-2 3-4 3-3 0-6-1-6-3m476 0c-1-1 1-2 3-2l8 2c1 2-1 3-3 3-3 0-6-1-8-3m21 0c-1-1 1-2 3-2l8 2c1 2-1 3-3 3-3 0-6-1-8-3m20 0c-1-1 1-2 3-2l8 2c1 2-1 3-3 3-3 0-6-1-8-3m21 0c-1-1 1-2 3-2l8 2c1 2-1 3-3 3-3 0-6-1-8-3m167 0c-2-1-1-2 2-2l7 2c2 2 1 3-2 3s-6-1-7-3m41 0c-2-1-1-2 2-2l8 2c2 2 1 3-2 3s-7-1-8-3m41 0c-2-1-1-2 2-2l8 2c2 2 1 3-2 3s-7-1-8-3m21 0c-2-1-1-2 2-2l8 2c2 2 1 3-2 3s-7-1-8-3M308 301l7-2c3 0 5 1 4 2-1 2-4 3-7 3s-5-1-4-3m21 0l7-2c3 0 5 1 4 2-1 2-4 3-7 3s-5-1-4-3m21 0l7-2c3 0 5 1 4 2-1 2-4 3-7 3s-5-1-4-3m21 0l7-2c3 0 5 1 4 2-1 2-4 3-7 3s-5-1-4-3m21 0l7-2c3 0 5 1 4 2-1 2-4 3-7 3s-5-1-4-3m22 0l6-2c3 0 5 1 4 2-1 2-4 3-6 3-3 0-5-1-4-3m21 0l6-2c3 0 5 1 4 2-1 2-4 3-6 3-3 0-5-1-4-3m21 0l6-2c3 0 5 1 4 2-1 2-4 3-6 3-3 0-5-1-4-3m21 0l6-2c3 0 5 1 4 2-1 2-3 3-6 3s-5-1-4-3m21 0l6-2c3 0 4 1 4 2-1 2-3 3-6 3s-4-1-4-3m21 0l6-2c3 0 4 1 4 2-1 2-3 3-6 3s-4-1-4-3m21 0l6-2c3 0 4 1 4 2-1 2-3 3-6 3s-4-1-4-3m20 0l6-2c3 0 4 1 4 2-1 2-3 3-6 3s-4-1-4-3m21 0l6-2c3 0 4 1 4 2-1 2-3 3-6 3s-4-1-4-3m22 0l6-2c3 0 4 1 4 2-1 2-3 3-6 3s-4-1-4-3m356 0c0-1 2-2 5-2s5 1 5 2c0 2-2 3-5 3s-5-1-5-3m22 0c0-1 2-2 5-2s5 1 5 2c0 2-2 3-5 3s-5-1-5-3m21 0c0-1 2-2 5-2l5 2c0 2-2 3-5 3-2 0-5-1-5-3m21 0c0-1 2-2 5-2l5 2c0 2-2 3-5 3-2 0-5-1-5-3m21 0c0-1 2-2 5-2s5 1 5 2c0 2-2 3-5 3-2 0-5-1-5-3m20 0c0-1 2-2 5-2s5 1 5 2c0 2-2 3-5 3-2 0-5-1-5-3m21 0c0-1 2-2 5-2l5 2c0 2-2 3-4 3-3 0-6-1-6-3m21 0l4-2 6 2c0 2-2 3-4 3-3 0-6-1-6-3m21 0l4-2 6 2c0 2-2 3-4 3s-6-1-6-3m21 0l4-2 6 2c0 2-2 3-4 3-3 0-6-1-6-3m672 0c-2-1-1-2 2-2l8 2c2 2 1 3-2 3s-7-1-8-3m21 0c-2-1-1-2 2-2l8 2c2 2 1 3-2 3s-7-1-8-3m20 0c-2-1-1-2 2-2l8 2c2 2 1 3-2 3s-7-1-8-3m42 0c-2-1-1-2 2-2l8 2c2 2 1 3-2 3s-7-1-8-3M280 312l7-2c3 0 5 1 4 2-1 2-4 3-7 3s-5-1-4-3m21 0l7-2c3 0 5 1 4 2-1 2-4 3-7 3s-5-1-4-3m21 0l7-2c3 0 5 1 4 2-1 2-4 3-7 3s-5-1-4-3m22 0l7-2c3 0 5 1 4 2-1 2-4 3-7 3s-5-1-4-3m21 0l7-2c3 0 5 1 4 2-1 2-4 3-7 3s-5-1-4-3m21 0l7-2c3 0 5 1 4 2-1 2-4 3-7 3s-5-1-4-3m22 0l7-2c3 0 5 1 4 2-1 2-4 3-7 3s-5-1-4-3m21 0l7-2c3 0 5 1 4 2-1 2-4 3-7 3s-5-1-4-3m21 0l7-2c3 0 5 1 4 2-1 2-4 3-7 3s-5-1-4-3m21 0l7-2c3 0 5 1 4 2-1 2-4 3-7 3s-5-1-4-3m21 0l7-2c3 0 5 1 4 2-1 2-4 3-7 3s-5-1-4-3m22 0l6-2c3 0 4 1 4 2-1 2-3 3-6 3s-4-1-4-3m21 0l6-2c3 0 4 1 4 2-1 2-3 3-6 3s-4-1-4-3m22 0l6-2c3 0 4 1 4 2-1 2-3 3-6 3s-4-1-4-3m21 0l6-2c3 0 4 1 4 2-1 2-3 3-6 3s-4-1-4-3m21 0l6-2c3 0 4 1 4 2-1 2-3 3-6 3s-4-1-4-3m22 0l6-2c3 0 4 1 4 2 0 2-3 3-6 3s-4-1-4-3m339 0c0-1 2-2 5-2s5 1 5 2c0 2-2 3-5 3s-5-1-5-3m22 0c0-1 2-2 5-2s5 1 5 2c0 2-2 3-5 3s-5-1-5-3m21 0c0-1 2-2 5-2l5 2c0 2-2 3-5 3-2 0-5-1-5-3m20 0c0-1 2-2 5-2l5 2c0 2-2 3-5 3-2 0-5-1-5-3m22 0c0-1 2-2 5-2l5 2c0 2-2 3-5 3-2 0-5-1-5-3m21 0c0-1 2-2 5-2s5 1 5 2c0 2-2 3-5 3-2 0-5-1-5-3m21 0l4-2 6 2c0 2-2 3-4 3-3 0-6-1-6-3m22 0l4-2 6 2c0 2-2 3-4 3-3 0-6-1-6-3m21 0l4-2 6 2c0 2-2 3-4 3-3 0-6-1-6-3m21 0l4-2 6 2c0 2-2 3-4 3-3 0-6-1-6-3m637 0c-2-1-1-2 2-2l8 2c2 2 1 3-2 3s-7-1-8-3m21 0c-2-1-1-2 2-2l8 2c2 2 1 3-2 3s-7-1-8-3m21 0c-2-1-1-2 2-2l8 2c2 2 1 3-2 3s-7-1-8-3m22 0c-2-1-1-2 2-2l8 2c2 2 1 3-2 3s-7-1-8-3m21 0c-2-1-1-2 2-2l8 2c2 2 1 3-2 3l-8-3m43 0c-2-1-1-2 2-2l8 2c2 2 1 3-2 3s-7-1-8-3m20 0c-2-1-1-2 2-2l8 2c2 2 1 3-2 3s-7-1-8-3M294 323l7-2c3 0 5 1 4 2-1 2-4 3-7 3s-5-1-4-3m21 0l7-2c3 0 5 1 4 2-1 2-4 3-7 3s-5-1-4-3m22 0l7-2c3 0 5 1 4 2-1 2-4 3-7 3s-5-1-4-3m22 0l7-2c3 0 5 1 4 2-1 2-4 3-7 3s-5-1-4-3m21 0l7-2c3 0 5 1 4 2-1 2-4 3-7 3s-5-1-4-3m22 0l7-2c3 0 5 1 4 2-1 2-4 3-7 3s-5-1-4-3m21 0l7-2c3 0 5 1 4 2-1 2-4 3-7 3s-5-1-4-3m21 0l7-2c3 0 5 1 4 2-1 2-4 3-7 3s-5-1-4-3m22 0l7-2c3 0 5 1 4 2-1 2-4 3-7 3s-5-1-4-3m21 0l7-2c3 0 5 1 4 2-1 2-4 3-7 3s-5-1-4-3m22 0l7-2c3 0 5 1 4 2-1 2-4 3-7 3s-5-1-4-3m22 0l7-2c3 0 5 1 4 2-1 2-4 3-7 3s-5-1-4-3m21 0l7-2c3 0 4 1 4 2-1 2-4 3-7 3s-4-1-4-3m21 0l7-2 4 2c-1 2-4 3-7 3s-4-1-4-3m22 0l6-2c3 0 5 1 5 2-1 2-3 3-6 3s-5-1-5-3m366 0c0-1 2-2 5-2s5 1 5 2c0 2-2 3-5 3s-5-1-5-3m21 0c0-1 2-2 5-2s5 1 5 2c0 2-2 3-5 3s-5-1-5-3m21 0c0-1 2-2 5-2l5 2c0 2-2 3-5 3-2 0-5-1-5-3m22 0c0-1 2-2 5-2l5 2c0 2-2 3-5 3-2 0-5-1-5-3m22 0c0-1 2-2 5-2s5 1 5 2c0 2-2 3-5 3s-5-1-5-3m21 0c0-1 2-2 5-2s5 1 5 2c0 2-2 3-5 3-2 0-5-1-5-3m22 0l4-2 6 2c0 2-2 3-4 3-3 0-6-1-6-3m21 0l4-2 6 2c0 2-2 3-4 3-3 0-6-1-6-3m21 0l4-2 6 2c0 2-2 3-4 3-3 0-6-1-6-3m22 0l4-2 6 2c0 2-2 3-4 3-3 0-6-1-6-3m21 0l4-2 6 2c0 2-2 3-4 3-3 0-6-1-6-3m43 0c0-1 2-2 5-2l6 2c0 2-2 3-5 3s-5-1-6-3m559 0c-2-1-1-2 2-2l8 2c2 2 1 3-2 3s-7-1-8-3m22 0c-2-1-1-2 2-2l8 2c2 2 1 3-2 3s-7-1-8-3m22 0c-2-1-1-2 2-2l8 2c2 2 1 3-2 3l-8-3m20 0c-2-1-1-2 2-2l8 2c2 2 1 3-2 3s-7-1-8-3m22 0c-2-1-1-2 2-2l8 2c2 2 1 3-2 3s-7-1-8-3m21 0c-2-1-1-2 2-2l8 2c2 2 1 3-2 3s-7-1-8-3m22 0c-2-1-1-2 2-2l8 2c2 2 1 3-2 3s-7-1-8-3m22 0c-2-1-1-2 2-2l8 2c2 2 1 3-2 3s-7-1-8-3m21 0c-2-1-1-2 2-2l8 2c2 2 1 3-2 3s-7-1-8-3M287 334c1-2 4-3 7-3s5 1 4 3-4 3-7 3-5-1-4-3m21 0c1-2 4-3 7-3s5 1 4 3-4 3-7 3-5-1-4-3m22 0c1-2 4-3 7-3s5 1 4 3-4 3-7 3-5-1-4-3m22 0c1-2 4-3 7-3s5 1 4 3-4 3-7 3-5-1-4-3m22 0c1-2 4-3 7-3s5 1 4 3-4 3-7 3-5-1-4-3m22 0c1-2 4-3 7-3s5 1 4 3-4 3-7 3-5-1-4-3m21 0c1-2 4-3 7-3s5 1 4 3-4 3-7 3-5-1-4-3m22 0c1-2 4-3 7-3s5 1 4 3-4 3-7 3-5-1-4-3m22 0c1-2 4-3 7-3s5 1 4 3-4 3-7 3-5-1-4-3m21 0c1-2 4-3 7-3s5 1 4 3-4 3-7 3-5-1-4-3m22 0c1-2 4-3 7-3s5 1 4 3-4 3-7 3-5-1-4-3m21 0c1-2 4-3 7-3s5 1 4 3-4 3-7 3-5-1-4-3m22 0c1-2 4-3 7-3s4 1 4 3c-1 2-4 3-7 3s-4-1-4-3m22 0c1-2 4-3 7-3 2 0 4 1 4 3-1 2-4 3-7 3s-4-1-4-3m393 0c0-2 2-3 5-3s5 1 5 3-2 3-5 3-5-1-5-3m21 0c0-2 2-3 5-3s5 1 5 3-2 3-5 3-5-1-5-3m22 0c0-2 2-3 5-3 2 0 5 1 5 3s-2 3-5 3c-2 0-5-1-5-3m22 0c0-2 2-3 5-3 2 0 5 1 5 3s-2 3-5 3c-2 0-5-1-5-3m21 0c0-2 2-3 5-3s6 1 6 3-2 3-5 3-6-1-6-3m22 0c0-2 2-3 5-3s6 1 6 3-2 3-5 3-6-1-6-3m21 0c0-2 2-3 5-3s6 1 6 3-2 3-5 3-6-1-6-3m22 0c0-2 2-3 5-3s6 1 6 3-2 3-5 3-6-1-6-3m22 0c0-2 2-3 5-3s6 1 6 3-2 3-5 3-6-1-6-3m22 0c0-2 2-3 5-3s6 1 6 3-2 3-5 3-6-1-6-3m43 0c0-2 2-3 5-3s5 1 6 3c0 2-2 3-5 3s-5-1-6-3m22 0c0-2 2-3 5-3s5 1 6 3c0 2-2 3-5 3s-5-1-6-3m21 0c0-2 1-3 4-3s6 1 7 3c0 2-1 3-4 3s-6-1-7-3m523 0c-2-2-1-3 2-3s7 1 8 3c2 2 1 3-2 3s-7-1-8-3m22 0c-2-2-1-3 2-3s7 1 8 3c2 2 1 3-2 3s-7-1-8-3m21 0c-2-2-1-3 2-3s7 1 8 3c2 2 1 3-2 3s-7-1-8-3m22 0c-2-2-1-3 2-3s7 1 8 3c2 2 1 3-2 3s-7-1-8-3m22 0c-2-2-1-3 2-3s7 1 8 3c2 2 1 3-2 3s-7-1-8-3m22 0c-2-2-1-3 2-3s7 1 8 3c2 2 1 3-2 3s-7-1-8-3m21 0c-2-2-1-3 2-3s7 1 8 3c2 2 1 3-2 3s-7-1-8-3m22 0c-2-2-1-3 2-3s7 1 8 3c2 2 1 3-2 3s-7-1-8-3m22 0c-2-2-1-3 2-3s7 1 8 3c2 2 1 3-2 3s-7-1-8-3m22 0c-2-2-1-3 2-3s7 1 9 3 1 3-2 3-7-1-9-3m21 0c-2-2-1-3 2-3s7 1 9 3 1 3-2 3-7-1-9-3M301 347c1-2 4-3 7-3s5 1 4 3-4 3-7 3-5-1-4-3m22 0c1-2 4-3 7-3s5 1 4 3-4 3-7 3-5-1-4-3m22 0c1-2 4-3 7-3s5 1 4 3-4 3-7 3-5-1-4-3m22 0c1-2 4-3 7-3s5 1 4 3-4 3-7 3-5-1-4-3m22 0c1-2 4-3 7-3s5 1 4 3-4 3-7 3-5-1-4-3m22 0c1-2 4-3 7-3s5 1 4 3-4 3-7 3-5-1-4-3m22 0c1-2 4-3 7-3s5 1 4 3-4 3-7 3-5-1-4-3m22 0c1-2 4-3 7-3s5 1 4 3-4 3-7 3-5-1-4-3m22 0c1-2 4-3 7-3s5 1 4 3-4 3-7 3-5-1-4-3m22 0c1-2 4-3 7-3s5 1 4 3-4 3-7 3-5-1-4-3m22 0c1-2 4-3 7-3s5 1 4 3-4 3-7 3-5-1-4-3m22 0c1-2 4-3 7-3s4 1 4 3c-1 2-4 3-7 3s-5-1-4-3m22 0c1-2 4-3 7-3s4 1 4 3c-1 2-4 3-7 3s-4-1-4-3m397 0c0-2 2-3 5-3s6 1 6 3-2 3-5 3-6-1-6-3m21 0c0-2 2-3 5-3s6 1 6 3-2 3-5 3-6-1-6-3m22 0c0-2 2-3 5-3s6 1 6 3-2 3-5 3-6-1-6-3m23 0c0-2 2-3 5-3s6 1 6 3-2 3-5 3-6-1-6-3m22 0c0-2 2-3 5-3s6 1 6 3-2 3-5 3-6-1-6-3m21 0c0-2 2-3 5-3s6 1 6 3-2 3-5 3-6-1-6-3m22 0c0-2 2-3 5-3s6 1 6 3-2 3-5 3-6-1-6-3m23 0c0-2 2-3 5-3s6 1 6 3-2 3-5 3-6-1-6-3m22 0c0-2 2-3 5-3s6 1 6 3-2 3-5 3-6-1-6-3m66 0c0-2 2-3 5-3s5 1 6 3c0 2-2 3-5 3s-5-1-6-3m22 0c0-2 2-3 5-3s5 1 6 3c0 2-2 3-5 3s-5-1-6-3m506 0c-2-2-1-3 2-3s7 1 8 3c2 2 1 3-2 3s-7-1-8-3m23 0c-2-2-1-3 2-3s7 1 8 3c2 2 1 3-2 3s-7-1-8-3m22 0c-2-2-1-3 2-3s7 1 8 3c2 2 1 3-2 3s-7-1-8-3m22 0c-2-2-1-3 2-3s7 1 8 3c2 2 1 3-2 3s-7-1-8-3m22 0c-2-2-1-3 2-3s7 1 8 3c2 2 1 3-2 3s-7-1-8-3m22 0c-2-2-1-3 2-3s7 1 8 3c2 2 1 3-2 3s-7-1-8-3m22 0c-2-2-1-3 2-3s7 1 8 3c2 2 1 3-2 3s-7-1-8-3m22 0c-2-2-1-3 2-3s7 1 8 3c2 2 1 3-2 3s-7-1-8-3m22 0c-2-2-1-3 2-3s7 1 8 3c2 2 1 3-2 3s-7-1-8-3m21 0c-2-2-1-3 2-3s7 1 9 3 1 3-2 3-7-1-9-3m22 0c-2-2-1-3 2-3s7 1 9 3 1 3-2 3-7-1-9-3m23 0c-2-2-1-3 2-3l9 3c2 2 1 3-2 3s-7-1-9-3m22 0c-2-2-1-3 2-3s7 1 9 3 1 3-2 3-7-1-9-3m21 0c-2-2-1-3 2-3s7 1 9 3 1 3-2 3-7-1-9-3M293 358c1-2 5-3 8-3s5 1 4 3-5 3-8 3-5-1-4-3m22 0c1-2 4-3 7-3s5 1 4 3-4 3-7 3-5-1-4-3m23 0c1-2 4-3 7-3s5 1 4 3-4 3-7 3-5-1-4-3m22 0c1-2 4-3 7-3s5 1 4 3-4 3-7 3-5-1-4-3m22 0c1-2 4-3 7-3s5 1 4 3-4 3-7 3-5-1-4-3m23 0c1-2 4-3 7-3s5 1 4 3-4 3-7 3-5-1-4-3m22 0c1-2 4-3 7-3s5 1 4 3-4 3-7 3-5-1-4-3m23 0c1-2 4-3 7-3s5 1 4 3-4 3-7 3-5-1-4-3m21 0c1-2 4-3 7-3s5 1 4 3-4 3-7 3-5-1-4-3m23 0c1-2 4-3 7-3s5 1 4 3-4 3-7 3-5-1-4-3m22 0c1-2 4-3 7-3s5 1 4 3-4 3-7 3-5-1-4-3m23 0c1-2 4-3 7-3s4 1 4 3c-1 2-4 3-7 3s-5-1-4-3m22 0c1-2 4-3 7-3s4 1 4 3c-1 2-4 3-7 3s-4-1-4-3m423 0c0-2 2-3 5-3s6 1 6 3-2 3-5 3-6-1-6-3m23 0c0-2 2-3 5-3s6 1 6 3-2 3-5 3-6-1-6-3m22 0c0-2 2-3 5-3s6 1 6 3-2 3-5 3-6-1-6-3m22 0c0-2 2-3 5-3s6 1 6 3-2 3-5 3-6-1-6-3m23 0c0-2 2-3 5-3s6 1 6 3-2 3-5 3-6-1-6-3m22 0c0-2 2-3 5-3s6 1 6 3-2 3-5 3-6-1-6-3m22 0c0-2 2-3 5-3s6 1 6 3-2 3-5 3-6-1-6-3m22 0c0-2 2-3 5-3s6 1 6 3-2 3-5 3-6-1-6-3m67 0c0-2 2-3 5-3s5 1 6 3c0 2-2 3-5 3s-5-1-6-3m23 0c0-2 2-3 5-3 2 0 5 1 6 3 0 2-2 3-5 3s-5-1-6-3m513 0c-2-2-1-3 2-3s7 1 8 3c2 2 1 3-2 3s-7-1-8-3m23 0c-2-2-1-3 2-3s7 1 8 3c2 2 1 3-2 3s-7-1-8-3m21 0c-2-2-1-3 2-3s7 1 8 3c2 2 1 3-2 3s-7-1-8-3m23 0c-2-2-1-3 2-3s7 1 8 3c2 2 1 3-2 3s-7-1-8-3m22 0c-2-2-1-3 2-3s7 1 8 3c2 2 1 3-2 3s-7-1-8-3m23 0c-2-2-1-3 2-3s7 1 8 3c2 2 1 3-2 3s-7-1-8-3m21 0c-2-2-1-3 2-3 4 0 7 1 9 3s1 3-2 3c-4 0-7-1-9-3m23 0c-2-2-1-3 2-3l9 3c2 2 1 3-2 3s-7-1-9-3m22 0c-2-2-1-3 2-3s7 1 9 3 1 3-2 3-7-1-9-3m22 0c-2-2-1-3 2-3l9 3c2 2 1 3-2 3s-7-1-9-3m22 0c-2-2-1-3 2-3s7 1 9 3 1 3-2 3-7-1-9-3m23 0c-2-2-1-3 2-3s7 1 9 3 1 3-2 3l-9-3m23 0c-2-2-1-3 2-3s7 1 9 3 1 3-2 3-7-1-9-3m21 0c-2-2-1-3 2-3l9 3c2 2 1 3-2 3s-7-1-9-3m23 0c-2-2-1-3 2-3l9 3c2 2 1 3-2 3l-9-3M330 370c1-2 5-3 8-3s5 1 4 3-5 3-8 3-5-1-4-3m23 0c1-2 5-3 8-3s5 1 4 3-5 3-8 3-5-1-4-3m22 0c1-2 5-3 8-3s5 1 4 3-5 3-8 3-5-1-4-3m23 0c1-2 4-3 7-3s5 1 4 3-4 3-7 3-5-1-4-3m23 0c1-2 4-3 7-3s5 1 4 3-4 3-7 3-5-1-4-3m23 0c1-2 4-3 7-3s5 1 4 3-4 3-7 3-5-1-4-3m22 0c1-2 4-3 7-3s5 1 4 3-4 3-7 3-5-1-4-3m23 0c1-2 4-3 7-3s5 1 4 3-4 3-7 3-5-1-4-3m23 0c1-2 4-3 7-3s5 1 4 3-4 3-7 3-5-1-4-3m22 0c1-2 4-3 7-3s4 1 4 3c-1 2-4 3-7 3s-5-1-4-3m451 0c0-2 2-3 5-3s6 1 6 3-2 3-5 3-6-1-6-3m23 0c0-2 2-3 5-3s6 1 6 3-2 3-5 3-6-1-6-3m22 0c0-2 2-3 5-3s6 1 6 3-2 3-5 3-6-1-6-3m23 0c0-2 2-3 5-3s6 1 6 3-2 3-5 3-6-1-6-3m23 0c0-2 2-3 5-3s6 1 6 3-2 3-5 3-6-1-6-3m135 0c0-2 2-3 5-3s5 1 6 3c0 2-2 3-5 3s-5-1-6-3m542 0c-2-2-1-3 2-3s7 1 8 3c2 2 1 3-2 3s-7-1-8-3m23 0c-2-2-1-3 2-3s7 1 8 3c2 2 1 3-2 3s-7-1-8-3m23 0c-2-2-1-3 2-3s7 1 8 3c2 2 1 3-2 3s-7-1-8-3m22 0c-2-2-1-3 3-3s7 1 8 3c2 2 1 3-3 3-3 0-7-1-8-3m22 0c-2-2-1-3 2-3 4 0 8 1 9 3 2 2 1 3-2 3-4 0-8-1-9-3m23 0c-2-2-1-3 2-3 4 0 7 1 9 3s1 3-2 3c-4 0-8-1-9-3m22 0c-2-2-1-3 2-3s7 1 9 3 1 3-2 3c-4 0-7-1-9-3m23 0c-2-2-1-3 2-3s7 1 9 3 1 3-2 3-7-1-9-3m23 0c-2-2-1-3 2-3s7 1 9 3 1 3-2 3-7-1-9-3m22 0c-2-2-1-3 2-3s7 1 9 3 1 3-2 3-7-1-9-3m23 0c-2-2-1-3 2-3s7 1 9 3 1 3-2 3l-9-3m23 0c-2-2-1-3 2-3s7 1 9 3 1 3-2 3l-9-3m23 0c-2-2-1-3 2-3l9 3c2 2 1 3-2 3s-7-1-9-3m22 0c-2-2-1-3 2-3l9 3c2 2 1 3-2 3s-7-1-9-3m22 0c-2-2-1-3 2-3l9 3c2 2 1 3-2 3s-7-1-9-3M323 383c1-2 5-3 8-3s5 1 4 3-5 3-8 3-5-1-4-3m23 0c1-2 5-3 8-3s5 1 4 3-5 3-8 3-5-1-4-3m22 0c1-2 5-3 8-3s5 1 4 3-5 3-8 3-5-1-4-3m23 0c1-2 4-3 8-3 3 0 5 1 4 3s-4 3-8 3c-3 0-5-1-4-3m23 0c1-2 4-3 8-3 3 0 5 1 4 3s-4 3-8 3c-3 0-5-1-4-3m23 0c1-2 4-3 8-3 3 0 5 1 4 3s-4 3-8 3c-3 0-5-1-4-3m23 0c1-2 4-3 7-3s6 1 5 3-4 3-7 3c-4 0-6-1-5-3m46 0c1-2 4-3 7-3s5 1 4 3-4 3-7 3-5-1-4-3m481 0c0-2 2-3 5-3s6 1 6 3-2 3-5 3-6-1-6-3m22 0c0-2 2-3 5-3s6 1 6 3-2 3-5 3-6-1-6-3m23 0c0-2 2-3 5-3s6 1 6 3-2 3-5 3-6-1-6-3m23 0c0-2 2-3 5-3s6 1 6 3-2 3-5 3-6-1-6-3m23 0c0-2 2-3 5-3s6 1 6 3-2 3-5 3-6-1-6-3m23 0c0-2 2-3 5-3s6 1 6 3-2 3-5 3-6-1-6-3m686 0c-2-2-1-3 3-3 3 0 7 1 8 3 2 2 1 3-3 3s-7-1-8-3m23 0c-2-2-1-3 3-3 3 0 7 1 8 3 2 2 1 3-3 3s-7-1-8-3m23 0c-2-2-1-3 2-3 4 0 8 1 9 3 2 2 1 3-2 3-4 0-8-1-9-3m22 0c-2-2-1-3 2-3 4 0 8 1 9 3 2 2 1 3-2 3s-8-1-9-3m24 0c-2-2-1-3 2-3 4 0 7 1 9 3s1 3-2 3c-4 0-7-1-9-3m23 0c-2-2-1-3 2-3s7 1 9 3 1 3-2 3-7-1-9-3m22 0c-2-2-1-3 2-3s7 1 9 3 1 3-2 3-7-1-9-3m23 0c-2-2-1-3 2-3l9 3c2 2 1 3-2 3s-7-1-9-3m23 0c-2-2-1-3 2-3s7 1 9 3 1 3-2 3l-9-3m23 0c-2-2-1-3 2-3s7 1 9 3 1 3-2 3-7-1-9-3m23 0c-2-2-1-3 2-3l9 3c2 2 1 3-2 3s-7-1-9-3m22 0c-2-2-1-3 2-3s8 1 10 3 1 3-2 3c-4 0-8-1-10-3m23 0c-2-2-1-3 2-3s8 1 10 3 1 3-2 3-8-1-10-3M315 395c1-2 5-3 8-3s5 1 4 3-5 3-8 3-5-1-4-3m23 0c1-2 5-3 8-3s5 1 4 3-5 3-8 3-5-1-4-3m23 0c1-2 5-3 8-3s5 1 4 3-5 3-8 3-5-1-4-3m24 0c1-2 5-3 8-3s5 1 4 3-5 3-8 3-5-1-4-3m23 0c1-2 4-3 8-3 3 0 5 1 4 3s-4 3-8 3c-3 0-5-1-4-3m23 0c1-2 4-3 8-3 3 0 5 1 4 3s-4 3-8 3c-3 0-5-1-4-3m23 0c1-2 4-3 7-3 4 0 6 1 5 3s-4 3-7 3c-4 0-6-1-5-3m23 0c1-2 4-3 7-3 4 0 6 1 5 3s-4 3-7 3c-4 0-6-1-5-3m533 0c0-2 2-3 5-3s6 1 6 3-2 3-5 3-6-1-6-3m24 0c0-2 2-3 5-3s6 1 6 3-2 3-5 3-6-1-6-3m23 0c0-2 2-3 5-3s6 1 6 3-2 3-5 3-6-1-6-3m23 0c0-2 2-3 5-3s6 1 6 3-2 3-5 3-6-1-6-3m24 0c0-2 2-3 5-3s6 1 6 3-2 3-5 3-6-1-6-3m695 0c-2-2-1-3 3-3 3 0 7 1 8 3 2 2 1 3-3 3-3 0-7-1-8-3m22 0c-2-2-1-3 3-3 3 0 7 1 8 3 2 2 1 3-3 3-3 0-7-1-8-3m24 0c-2-2-1-3 2-3 4 0 8 1 9 3 2 2 1 3-2 3-4 0-8-1-9-3m92 0c-2-2-1-3 2-3l9 3c2 2 1 3-2 3s-7-1-9-3m24 0c-2-2-1-3 2-3s7 1 9 3 1 3-2 3-7-1-9-3m22 0c-2-2-1-3 2-3 4 0 8 1 10 3s1 3-2 3c-4 0-8-1-10-3m23 0c-2-2-1-3 2-3 4 0 8 1 10 3s1 3-2 3c-4 0-8-1-10-3m24 0c-2-2-1-3 2-3 4 0 8 1 10 3s1 3-2 3c-4 0-8-1-10-3m23 0c-2-2-1-3 2-3s8 1 10 3 1 3-2 3-8-1-10-3m23 0c-2-2-1-3 2-3s8 1 10 3 1 3-2 3-8-1-10-3M307 408c1-1 5-3 8-3s5 2 4 3c-1 2-5 4-8 4s-5-2-4-4m24 0c1-1 5-3 8-3s5 2 4 3c-1 2-5 4-8 4s-5-2-4-4m24 0c1-1 5-3 8-3s5 2 4 3c-1 2-5 4-8 4s-5-2-4-4m23 0c1-1 5-3 8-3s5 2 4 3c-1 2-5 4-8 4s-5-2-4-4m24 0c1-1 4-3 8-3 3 0 5 2 4 3-1 2-4 4-8 4-3 0-5-2-4-4m22 0c1-1 4-3 8-3 3 0 5 2 4 3-1 2-4 4-8 4-3 0-5-2-4-4m24 0c1-1 4-3 7-3 4 0 6 2 5 3-1 2-4 4-7 4-4 0-6-2-5-4m564 0c0-1 2-3 5-3s6 2 6 3c0 2-2 4-5 4s-6-2-6-4m24 0c0-1 2-3 5-3s6 2 6 3c0 2-2 4-5 4s-6-2-6-4m22 0c0-1 2-3 5-3 4 0 7 2 7 3 0 2-2 4-5 4-4 0-7-2-7-4m24 0c0-1 2-3 5-3 4 0 7 2 7 3 0 2-2 4-5 4s-7-2-7-4m728 0c-2-1-1-3 3-3 3 0 7 2 8 3 2 2 1 4-3 4-3 0-7-2-8-4m164 0c-2-1-1-3 2-3 4 0 8 2 10 3 2 2 1 4-2 4-4 0-8-2-10-4m23 0c-2-1-1-3 2-3 4 0 8 2 10 3 2 2 1 4-2 4-4 0-8-2-10-4m24 0c-2-1-1-3 2-3 4 0 8 2 10 3 2 2 1 4-2 4-4 0-8-2-10-4m23 0c-2-1-1-3 2-3s8 2 10 3c2 2 1 4-2 4s-8-2-10-4m24 0c-2-1-1-3 2-3l10 3c2 2 1 4-2 4s-8-2-10-4M300 422c1-1 5-3 8-3s5 2 4 3c-1 2-5 4-8 4s-5-2-4-4m23 0c1-1 5-3 8-3s5 2 4 3c-1 2-5 4-8 4s-5-2-4-4m24 0c1-1 5-3 8-3s5 2 4 3c-1 2-5 4-8 4s-5-2-4-4m24 0c1-1 5-3 8-3s5 2 4 3c-1 2-5 4-8 4s-5-2-4-4m24 0c1-1 4-3 8-3 3 0 5 2 4 3-1 2-4 4-8 4-3 0-5-2-4-4m23 0c1-1 4-3 8-3 3 0 5 2 4 3-1 2-4 4-8 4-3 0-5-2-4-4m24 0c1-1 4-3 8-3 3 0 5 2 4 3-1 2-4 4-8 4-3 0-5-2-4-4m1570 0c-2-1-1-3 2-3 4 0 8 2 10 3 2 2 1 4-2 4s-8-2-10-4m24 0c-2-1-1-3 2-3s8 2 10 3c2 2 1 4-2 4-4 0-8-2-10-4m24 0c-2-1-1-3 2-3l10 3c2 2 1 4-2 4s-8-2-10-4m24 0c-2-1-1-3 2-3l10 3c2 2 1 4-2 4s-8-2-10-4M291 436c2-1 5-3 9-3 3 0 5 2 4 3-2 2-5 4-9 4-3 0-5-2-4-4m23 0c1-1 5-3 9-3 3 0 5 2 4 3-1 2-5 4-9 4-3 0-5-2-4-4m25 0c1-1 5-3 8-3 4 0 6 2 5 3-1 2-5 4-8 4-4 0-6-2-5-4m24 0c1-1 5-3 8-3s5 2 4 3c-1 2-5 4-8 4s-5-2-4-4m25 0c1-1 5-3 8-3s5 2 4 3c-1 2-4 4-8 4-3 0-5-2-4-4m23 0c1-1 4-3 8-3 3 0 5 2 4 3-1 2-4 4-8 4-3 0-5-2-4-4m-153 14c2-1 5-3 9-3 3 0 5 2 4 3-2 2-5 4-9 4-3 0-5-2-4-4m24 0c2-1 5-3 9-3 3 0 5 2 4 3-2 2-5 4-9 4-3 0-5-2-4-4m24 0c2-1 5-3 9-3 3 0 5 2 4 3-1 2-5 4-9 4-3 0-5-2-4-4m25 0c1-1 5-3 8-3 4 0 6 2 5 3-1 2-5 4-9 4s-5-2-4-4m24 0c1-1 5-3 8-3 4 0 6 2 5 3-1 2-5 4-8 4-4 0-6-2-5-4m25 0c1-1 5-3 8-3 4 0 6 2 5 3-1 2-5 4-8 4-4 0-6-2-5-4m1686 0c-2-1-1-3 2-3 4 0 8 2 11 3 2 2 1 4-2 4-4 0-9-2-11-4m26 0c-2-1-1-3 2-3 4 0 8 2 11 3 2 2 1 4-2 4-4 0-8-2-11-4M249 465c2-2 5-4 9-4 3 0 5 2 4 4-2 2-5 4-9 4-3 0-5-2-4-4m24 0c2-2 5-4 9-4 3 0 5 2 4 4-2 2-5 4-9 4-3 0-5-2-4-4m25 0c2-2 5-4 9-4 3 0 5 2 4 4s-5 4-9 4c-3 0-5-2-4-4m25 0c1-2 5-4 9-4 3 0 5 2 4 4s-5 4-9 4c-3 0-5-2-4-4m24 0c1-2 5-4 8-4 4 0 6 2 5 4s-5 4-8 4c-4 0-6-2-5-4m26 0c1-2 5-4 8-4 4 0 6 2 5 4s-5 4-8 4c-4 0-6-2-5-4m1710 0c-2-2-1-4 2-4 4 0 8 2 11 4 2 2 1 4-2 4-4 0-8-2-11-4m25 0c-2-2-1-4 2-4 4 0 8 2 11 4 2 2 1 4-2 4s-8-2-11-4M239 481c2-2 5-4 9-4 3 0 5 2 4 4-2 2-5 4-9 4-3 0-5-2-4-4m51 0c2-2 5-4 9-4 3 0 5 2 4 4-2 2-5 4-9 4-3 0-5-2-4-4m24 0c1-2 5-4 9-4 3 0 5 2 4 4s-5 4-9 4c-3 0-5-2-4-4m-85 16c2-2 6-4 9-4 4 0 6 2 5 4-2 2-6 4-9 4-4 0-6-2-5-4m26 0c2-2 6-4 9-4 4 0 6 2 5 4-2 2-6 4-9 4-4 0-6-2-5-4m25 0c2-2 6-4 9-4 4 0 6 2 5 4-2 2-6 4-9 4-4 0-6-2-5-4m-61 15c2-2 6-4 10-4 3 0 5 2 4 4-2 2-6 4-10 4-3 0-5-2-4-4m26 0c2-2 6-4 9-4 4 0 6 2 5 4-2 2-6 4-9 4s-6-2-5-4m26 0c2-2 6-4 9-4 4 0 6 2 5 4-2 2-6 4-9 4-4 0-6-2-5-4m-61 17c2-3 6-5 10-5 3 0 5 2 4 5-2 2-6 4-10 4-3 0-5-2-4-4m26 0c2-3 6-5 9-5 4 0 6 2 5 5-2 2-6 4-9 4-4 0-6-2-5-4m26 0c2-3 6-5 9-5 4 0 6 2 5 5-2 2-6 4-9 4-4 0-6-2-5-4m-90 16c1-2 6-4 9-4 4 0 6 2 4 4-1 3-6 5-9 5-4 0-6-2-4-5m28 0c1-2 5-4 9-4 3 0 5 2 4 4-2 3-6 5-10 5-3 0-5-2-3-5m25 0c2-2 6-4 10-4s5 2 4 4c-2 3-6 5-10 5-3 0-5-2-4-5m81 0c2-2 6-4 9-4 4 0 6 2 5 4-2 3-6 5-9 5-4 0-6-2-5-5m-64 18c2-2 6-4 10-4s6 2 5 4c-2 3-6 5-10 5s-6-2-5-5m-38 18c1-3 5-5 9-5s6 2 4 5c-1 3-5 5-9 5s-6-2-4-5" opacity=".3"/>
</svg>
